<?xml version="1.0" encoding="UTF-8" standalone="no"?><svg xmlns="http://www.w3.org/2000/svg" xmlns:xlink="http://www.w3.org/1999/xlink" clip-rule="evenodd" stroke-miterlimit="10" viewBox="0 0 148 25"><desc>SVG generated by Keynote</desc><defs></defs><g transform="matrix(1.00, 0.00, -0.00, -1.00, 0.0, 25.0)"><text xml:space="preserve" font-family=".LucidaGrandeUI,.Lucida Grande UI" font-size="28.0" fill="#424242" transform="matrix(1.00, 0.00, -0.00, -1.00, 0.1, 1.9)">C</text><text xml:space="preserve" font-family=".LucidaGrandeUI,.Lucida Grande UI" font-size="28.0" fill="#424242" transform="matrix(1.00, 0.00, -0.00, -1.00, 19.4, 1.9)">o</text><text xml:space="preserve" font-family=".LucidaGrandeUI,.Lucida Grande UI" font-size="28.0" fill="#424242" transform="matrix(1.00, 0.00, -0.00, -1.00, 36.6, 1.9)">n</text><text xml:space="preserve" font-family=".LucidaGrandeUI,.Lucida Grande UI" font-size="28.0" fill="#424242" transform="matrix(1.00, 0.00, -0.00, -1.00, 54.0, 1.9)">c</text><text xml:space="preserve" font-family=".LucidaGrandeUI,.Lucida Grande UI" font-size="28.0" fill="#424242" transform="matrix(1.00, 0.00, -0.00, -1.00, 68.3, 1.9)">l</text><text xml:space="preserve" font-family=".LucidaGrandeUI,.Lucida Grande UI" font-size="28.0" fill="#424242" transform="matrix(1.00, 0.00, -0.00, -1.00, 76.4, 1.9)">u</text><text xml:space="preserve" font-family=".LucidaGrandeUI,.Lucida Grande UI" font-size="28.0" fill="#424242" transform="matrix(1.00, 0.00, -0.00, -1.00, 93.8, 1.9)">s</text><text xml:space="preserve" font-family=".LucidaGrandeUI,.Lucida Grande UI" font-size="28.0" fill="#424242" transform="matrix(1.00, 0.00, -0.00, -1.00, 106.7, 1.9)">i</text><text xml:space="preserve" font-family=".LucidaGrandeUI,.Lucida Grande UI" font-size="28.0" fill="#424242" transform="matrix(1.00, 0.00, -0.00, -1.00, 114.8, 1.9)">o</text><text xml:space="preserve" font-family=".LucidaGrandeUI,.Lucida Grande UI" font-size="28.0" fill="#424242" transform="matrix(1.00, 0.00, -0.00, -1.00, 132.0, 1.9)">n</text></g></svg>