<?xml version="1.0" encoding="UTF-8" standalone="no"?><svg xmlns="http://www.w3.org/2000/svg" xmlns:xlink="http://www.w3.org/1999/xlink" clip-rule="evenodd" stroke-miterlimit="10" viewBox="0 0 217 250"><desc>SVG generated by Keynote</desc><defs></defs><g transform="matrix(1.00, 0.00, -0.00, -1.00, 0.0, 250.0)"><text xml:space="preserve" font-family=".LucidaGrandeUI,.Lucida Grande UI" font-size="18.0" fill="#008E00" transform="matrix(1.00, 0.00, -0.00, -1.00, 0.7, 167.3)"> </text><g><clipPath id="clip0x6080076b9ec0"><path d="M 0.0 3.1 L 217.0 3.1 L 217.0 250.0 L 0.0 250.0 Z M 0.0 3.1 "></path></clipPath><g clip-path="url(#clip0x6080076b9ec0)"><text xml:space="preserve" font-family=".LucidaGrandeUI,.Lucida Grande UI" font-size="13.5" fill="#008E00" transform="matrix(1.00, 0.00, -0.00, -1.00, 35.7, 6.5)">•</text><text xml:space="preserve" font-family=".LucidaGrandeUI,.Lucida Grande UI" font-size="18.0" fill="#008E00" transform="matrix(1.00, 0.00, -0.00, -1.00, 59.1, 4.9)">C</text><text xml:space="preserve" font-family=".LucidaGrandeUI,.Lucida Grande UI" font-size="18.0" fill="#008E00" transform="matrix(1.00, 0.00, -0.00, -1.00, 71.5, 4.9)">o</text><text xml:space="preserve" font-family=".LucidaGrandeUI,.Lucida Grande UI" font-size="18.0" fill="#008E00" transform="matrix(1.00, 0.00, -0.00, -1.00, 82.5, 4.9)">p</text><text xml:space="preserve" font-family=".LucidaGrandeUI,.Lucida Grande UI" font-size="18.0" fill="#008E00" transform="matrix(1.00, 0.00, -0.00, -1.00, 93.9, 4.9)">y</text><text xml:space="preserve" font-family=".LucidaGrandeUI,.Lucida Grande UI" font-size="18.0" fill="#008E00" transform="matrix(1.00, 0.00, -0.00, -1.00, 103.1, 4.9)">-</text><text xml:space="preserve" font-family=".LucidaGrandeUI,.Lucida Grande UI" font-size="18.0" fill="#008E00" transform="matrix(1.00, 0.00, -0.00, -1.00, 113.5, 4.9)">o</text><text xml:space="preserve" font-family=".LucidaGrandeUI,.Lucida Grande UI" font-size="18.0" fill="#008E00" transform="matrix(1.00, 0.00, -0.00, -1.00, 124.6, 4.9)">n</text><text xml:space="preserve" font-family=".LucidaGrandeUI,.Lucida Grande UI" font-size="18.0" fill="#008E00" transform="matrix(1.00, 0.00, -0.00, -1.00, 135.8, 4.9)">-</text><text xml:space="preserve" font-family=".LucidaGrandeUI,.Lucida Grande UI" font-size="18.0" fill="#008E00" transform="matrix(1.00, 0.00, -0.00, -1.00, 146.2, 4.9)">W</text><text xml:space="preserve" font-family=".LucidaGrandeUI,.Lucida Grande UI" font-size="18.0" fill="#008E00" transform="matrix(1.00, 0.00, -0.00, -1.00, 161.6, 4.9)">r</text><text xml:space="preserve" font-family=".LucidaGrandeUI,.Lucida Grande UI" font-size="18.0" fill="#008E00" transform="matrix(1.00, 0.00, -0.00, -1.00, 169.0, 4.9)">i</text><text xml:space="preserve" font-family=".LucidaGrandeUI,.Lucida Grande UI" font-size="18.0" fill="#008E00" transform="matrix(1.00, 0.00, -0.00, -1.00, 174.2, 4.9)">t</text><text xml:space="preserve" font-family=".LucidaGrandeUI,.Lucida Grande UI" font-size="18.0" fill="#008E00" transform="matrix(1.00, 0.00, -0.00, -1.00, 181.0, 4.9)">e</text><text xml:space="preserve" font-family=".LucidaGrandeUI,.Lucida Grande UI" font-size="18.0" fill="#008E00" transform="matrix(1.00, 0.00, -0.00, -1.00, 191.0, 4.9)"> </text><text xml:space="preserve" font-family=".LucidaGrandeUI,.Lucida Grande UI" font-size="18.0" fill="#008E00" transform="matrix(1.00, 0.00, -0.00, -1.00, 196.7, 4.9)">F</text><text xml:space="preserve" font-family=".LucidaGrandeUI,.Lucida Grande UI" font-size="18.0" fill="#008E00" transform="matrix(1.00, 0.00, -0.00, -1.00, 206.2, 4.9)">S</text></g></g></g></svg>