<?xml version="1.0" encoding="UTF-8" standalone="no"?><svg xmlns="http://www.w3.org/2000/svg" xmlns:xlink="http://www.w3.org/1999/xlink" clip-rule="evenodd" stroke-miterlimit="10" viewBox="0 0 288 170"><desc>SVG generated by Keynote</desc><defs></defs><g transform="matrix(1.00, 0.00, -0.00, -1.00, 0.0, 170.0)"><text xml:space="preserve" font-family=".LucidaGrandeUI,.Lucida Grande UI" font-size="18.0" fill="#008E00" transform="matrix(1.00, 0.00, -0.00, -1.00, 0.7, 87.3)"> </text><text xml:space="preserve" font-family=".LucidaGrandeUI,.Lucida Grande UI" font-size="13.5" fill="#008E00" transform="matrix(1.00, 0.00, -0.00, -1.00, 35.7, 7.1)">•</text><text xml:space="preserve" font-family=".LucidaGrandeUI,.Lucida Grande UI" font-size="18.0" fill="#008E00" transform="matrix(1.00, 0.00, -0.00, -1.00, 59.1, 5.5)">‚</text><text xml:space="preserve" font-family=".LucidaGrandeUI,.Lucida Grande UI" font-size="18.0" fill="#008E00" transform="matrix(1.00, 0.00, -0.00, -1.00, 64.8, 5.5)">G</text><text xml:space="preserve" font-family=".LucidaGrandeUI,.Lucida Grande UI" font-size="18.0" fill="#008E00" transform="matrix(1.00, 0.00, -0.00, -1.00, 77.8, 5.5)">O</text><text xml:space="preserve" font-family=".LucidaGrandeUI,.Lucida Grande UI" font-size="18.0" fill="#008E00" transform="matrix(1.00, 0.00, -0.00, -1.00, 91.7, 5.5)">-</text><text xml:space="preserve" font-family=".LucidaGrandeUI,.Lucida Grande UI" font-size="18.0" fill="#008E00" transform="matrix(1.00, 0.00, -0.00, -1.00, 102.2, 5.5)">W</text><text xml:space="preserve" font-family=".LucidaGrandeUI,.Lucida Grande UI" font-size="18.0" fill="#008E00" transform="matrix(1.00, 0.00, -0.00, -1.00, 117.6, 5.5)">r</text><text xml:space="preserve" font-family=".LucidaGrandeUI,.Lucida Grande UI" font-size="18.0" fill="#008E00" transform="matrix(1.00, 0.00, -0.00, -1.00, 125.0, 5.5)">a</text><text xml:space="preserve" font-family=".LucidaGrandeUI,.Lucida Grande UI" font-size="18.0" fill="#008E00" transform="matrix(1.00, 0.00, -0.00, -1.00, 134.9, 5.5)">p</text><text xml:space="preserve" font-family=".LucidaGrandeUI,.Lucida Grande UI" font-size="18.0" fill="#008E00" transform="matrix(1.00, 0.00, -0.00, -1.00, 146.3, 5.5)">p</text><text xml:space="preserve" font-family=".LucidaGrandeUI,.Lucida Grande UI" font-size="18.0" fill="#008E00" transform="matrix(1.00, 0.00, -0.00, -1.00, 157.6, 5.5)">e</text><text xml:space="preserve" font-family=".LucidaGrandeUI,.Lucida Grande UI" font-size="18.0" fill="#008E00" transform="matrix(1.00, 0.00, -0.00, -1.00, 167.6, 5.5)">r</text><text xml:space="preserve" font-family=".LucidaGrandeUI,.Lucida Grande UI" font-size="18.0" fill="#008E00" transform="matrix(1.00, 0.00, -0.00, -1.00, 175.0, 5.5)">’</text><text xml:space="preserve" font-family=".LucidaGrandeUI,.Lucida Grande UI" font-size="18.0" fill="#008E00" transform="matrix(1.00, 0.00, -0.00, -1.00, 179.1, 5.5)"> </text><text xml:space="preserve" font-family=".LucidaGrandeUI,.Lucida Grande UI" font-size="18.0" fill="#008E00" transform="matrix(1.00, 0.00, -0.00, -1.00, 184.8, 5.5)">a</text><text xml:space="preserve" font-family=".LucidaGrandeUI,.Lucida Grande UI" font-size="18.0" fill="#008E00" transform="matrix(1.00, 0.00, -0.00, -1.00, 194.8, 5.5)">r</text><text xml:space="preserve" font-family=".LucidaGrandeUI,.Lucida Grande UI" font-size="18.0" fill="#008E00" transform="matrix(1.00, 0.00, -0.00, -1.00, 202.2, 5.5)">o</text><text xml:space="preserve" font-family=".LucidaGrandeUI,.Lucida Grande UI" font-size="18.0" fill="#008E00" transform="matrix(1.00, 0.00, -0.00, -1.00, 213.2, 5.5)">u</text><text xml:space="preserve" font-family=".LucidaGrandeUI,.Lucida Grande UI" font-size="18.0" fill="#008E00" transform="matrix(1.00, 0.00, -0.00, -1.00, 224.4, 5.5)">n</text><text xml:space="preserve" font-family=".LucidaGrandeUI,.Lucida Grande UI" font-size="18.0" fill="#008E00" transform="matrix(1.00, 0.00, -0.00, -1.00, 235.5, 5.5)">d</text><text xml:space="preserve" font-family=".LucidaGrandeUI,.Lucida Grande UI" font-size="18.0" fill="#008E00" transform="matrix(1.00, 0.00, -0.00, -1.00, 246.9, 5.5)"> </text><text xml:space="preserve" font-family=".LucidaGrandeUI,.Lucida Grande UI" font-size="18.0" fill="#008E00" transform="matrix(1.00, 0.00, -0.00, -1.00, 252.6, 5.5)">L</text><text xml:space="preserve" font-family=".LucidaGrandeUI,.Lucida Grande UI" font-size="18.0" fill="#008E00" transform="matrix(1.00, 0.00, -0.00, -1.00, 262.2, 5.5)">X</text><text xml:space="preserve" font-family=".LucidaGrandeUI,.Lucida Grande UI" font-size="18.0" fill="#008E00" transform="matrix(1.00, 0.00, -0.00, -1.00, 273.4, 5.5)">C</text><text xml:space="preserve" font-family=".LucidaGrandeUI,.Lucida Grande UI" font-size="18.0" fill="#008E00" transform="matrix(1.00, 0.00, -0.00, -1.00, 285.8, 5.5)"> </text></g></svg>