<?xml version="1.0" encoding="UTF-8" standalone="no"?><svg xmlns="http://www.w3.org/2000/svg" xmlns:xlink="http://www.w3.org/1999/xlink" clip-rule="evenodd" stroke-miterlimit="10" viewBox="0 0 179 25"><desc>SVG generated by Keynote</desc><defs></defs><g transform="matrix(1.00, 0.00, -0.00, -1.00, 0.0, 25.0)"><text xml:space="preserve" font-family=".LucidaGrandeUI,.Lucida Grande UI" font-size="28.0" fill="#424242" transform="matrix(1.00, 0.00, -0.00, -1.00, -0.9, 1.9)">B</text><text xml:space="preserve" font-family=".LucidaGrandeUI,.Lucida Grande UI" font-size="28.0" fill="#424242" transform="matrix(1.00, 0.00, -0.00, -1.00, 15.2, 1.9)">e</text><text xml:space="preserve" font-family=".LucidaGrandeUI,.Lucida Grande UI" font-size="28.0" fill="#424242" transform="matrix(1.00, 0.00, -0.00, -1.00, 30.8, 1.9)">t</text><text xml:space="preserve" font-family=".LucidaGrandeUI,.Lucida Grande UI" font-size="28.0" fill="#424242" transform="matrix(1.00, 0.00, -0.00, -1.00, 41.3, 1.9)">t</text><text xml:space="preserve" font-family=".LucidaGrandeUI,.Lucida Grande UI" font-size="28.0" fill="#424242" transform="matrix(1.00, 0.00, -0.00, -1.00, 51.7, 1.9)">e</text><text xml:space="preserve" font-family=".LucidaGrandeUI,.Lucida Grande UI" font-size="28.0" fill="#424242" transform="matrix(1.00, 0.00, -0.00, -1.00, 67.3, 1.9)">r</text><text xml:space="preserve" font-family=".LucidaGrandeUI,.Lucida Grande UI" font-size="28.0" fill="#424242" transform="matrix(1.00, 0.00, -0.00, -1.00, 78.8, 1.9)"> </text><text xml:space="preserve" font-family=".LucidaGrandeUI,.Lucida Grande UI" font-size="28.0" fill="#424242" transform="matrix(1.00, 0.00, -0.00, -1.00, 87.7, 1.9)">C</text><text xml:space="preserve" font-family=".LucidaGrandeUI,.Lucida Grande UI" font-size="28.0" fill="#424242" transform="matrix(1.00, 0.00, -0.00, -1.00, 107.1, 1.9)">h</text><text xml:space="preserve" font-family=".LucidaGrandeUI,.Lucida Grande UI" font-size="28.0" fill="#424242" transform="matrix(1.00, 0.00, -0.00, -1.00, 124.4, 1.9)">o</text><text xml:space="preserve" font-family=".LucidaGrandeUI,.Lucida Grande UI" font-size="28.0" fill="#424242" transform="matrix(1.00, 0.00, -0.00, -1.00, 141.6, 1.9)">i</text><text xml:space="preserve" font-family=".LucidaGrandeUI,.Lucida Grande UI" font-size="28.0" fill="#424242" transform="matrix(1.00, 0.00, -0.00, -1.00, 149.7, 1.9)">c</text><text xml:space="preserve" font-family=".LucidaGrandeUI,.Lucida Grande UI" font-size="28.0" fill="#424242" transform="matrix(1.00, 0.00, -0.00, -1.00, 164.1, 1.9)">e</text></g></svg>