<?xml version="1.0" encoding="UTF-8" standalone="no"?><svg xmlns="http://www.w3.org/2000/svg" xmlns:xlink="http://www.w3.org/1999/xlink" clip-rule="evenodd" stroke-miterlimit="10" viewBox="0 0 169 224"><desc>SVG generated by Keynote</desc><defs></defs><g transform="matrix(1.00, 0.00, -0.00, -1.00, 0.0, 224.0)"><text xml:space="preserve" font-family=".LucidaGrandeUI,.Lucida Grande UI" font-size="18.0" fill="#008E00" transform="matrix(1.00, 0.00, -0.00, -1.00, 0.7, 141.3)"> </text><text xml:space="preserve" font-family=".LucidaGrandeUI,.Lucida Grande UI" font-size="13.5" fill="#008E00" transform="matrix(1.00, 0.00, -0.00, -1.00, 35.7, 7.3)">•</text><text xml:space="preserve" font-family=".LucidaGrandeUI,.Lucida Grande UI" font-size="18.0" fill="#008E00" transform="matrix(1.00, 0.00, -0.00, -1.00, 59.1, 5.8)">I</text><text xml:space="preserve" font-family=".LucidaGrandeUI,.Lucida Grande UI" font-size="18.0" fill="#008E00" transform="matrix(1.00, 0.00, -0.00, -1.00, 64.2, 5.8)">m</text><text xml:space="preserve" font-family=".LucidaGrandeUI,.Lucida Grande UI" font-size="18.0" fill="#008E00" transform="matrix(1.00, 0.00, -0.00, -1.00, 81.0, 5.8)">a</text><text xml:space="preserve" font-family=".LucidaGrandeUI,.Lucida Grande UI" font-size="18.0" fill="#008E00" transform="matrix(1.00, 0.00, -0.00, -1.00, 91.0, 5.8)">g</text><text xml:space="preserve" font-family=".LucidaGrandeUI,.Lucida Grande UI" font-size="18.0" fill="#008E00" transform="matrix(1.00, 0.00, -0.00, -1.00, 102.2, 5.8)">e</text><text xml:space="preserve" font-family=".LucidaGrandeUI,.Lucida Grande UI" font-size="18.0" fill="#008E00" transform="matrix(1.00, 0.00, -0.00, -1.00, 112.2, 5.8)">s</text><text xml:space="preserve" font-family=".LucidaGrandeUI,.Lucida Grande UI" font-size="18.0" fill="#008E00" transform="matrix(1.00, 0.00, -0.00, -1.00, 120.5, 5.8)">-</text><text xml:space="preserve" font-family=".LucidaGrandeUI,.Lucida Grande UI" font-size="18.0" fill="#008E00" transform="matrix(1.00, 0.00, -0.00, -1.00, 130.9, 5.8)">T</text><text xml:space="preserve" font-family=".LucidaGrandeUI,.Lucida Grande UI" font-size="18.0" fill="#008E00" transform="matrix(1.00, 0.00, -0.00, -1.00, 141.3, 5.8)">r</text><text xml:space="preserve" font-family=".LucidaGrandeUI,.Lucida Grande UI" font-size="18.0" fill="#008E00" transform="matrix(1.00, 0.00, -0.00, -1.00, 148.7, 5.8)">e</text><text xml:space="preserve" font-family=".LucidaGrandeUI,.Lucida Grande UI" font-size="18.0" fill="#008E00" transform="matrix(1.00, 0.00, -0.00, -1.00, 158.7, 5.8)">e</text></g></svg>