<?xml version="1.0" encoding="UTF-8" standalone="no"?><svg xmlns="http://www.w3.org/2000/svg" xmlns:xlink="http://www.w3.org/1999/xlink" clip-rule="evenodd" stroke-miterlimit="10" viewBox="0 0 270 337"><desc>SVG generated by Keynote</desc><defs></defs><g transform="matrix(1.00, 0.00, -0.00, -1.00, 0.0, 337.0)"><text xml:space="preserve" font-family=".LucidaGrandeUI,.Lucida Grande UI" font-size="18.0" fill="#008E00" transform="matrix(1.00, 0.00, -0.00, -1.00, 0.7, 254.7)"> </text><text xml:space="preserve" font-family=".LucidaGrandeUI,.Lucida Grande UI" font-size="12.0" fill="#5E5E5E" transform="matrix(1.00, 0.00, -0.00, -1.00, 0.7, 36.8)">‣</text><text xml:space="preserve" font-family=".LucidaGrandeUI,.Lucida Grande UI" font-size="24.0" fill="#5E5E5E" transform="matrix(1.00, 0.00, -0.00, -1.00, 15.7, 32.8)">T</text><text xml:space="preserve" font-family=".LucidaGrandeUI,.Lucida Grande UI" font-size="24.0" fill="#5E5E5E" transform="matrix(1.00, 0.00, -0.00, -1.00, 30.0, 32.8)">h</text><text xml:space="preserve" font-family=".LucidaGrandeUI,.Lucida Grande UI" font-size="24.0" fill="#5E5E5E" transform="matrix(1.00, 0.00, -0.00, -1.00, 44.9, 32.8)">e</text><text xml:space="preserve" font-family=".LucidaGrandeUI,.Lucida Grande UI" font-size="24.0" fill="#5E5E5E" transform="matrix(1.00, 0.00, -0.00, -1.00, 58.3, 32.8)"> </text><text xml:space="preserve" font-family=".LucidaGrandeUI,.Lucida Grande UI" font-size="24.0" fill="#5E5E5E" transform="matrix(1.00, 0.00, -0.00, -1.00, 65.9, 32.8)">n</text><text xml:space="preserve" font-family=".LucidaGrandeUI,.Lucida Grande UI" font-size="24.0" fill="#5E5E5E" transform="matrix(1.00, 0.00, -0.00, -1.00, 80.8, 32.8)">e</text><text xml:space="preserve" font-family=".LucidaGrandeUI,.Lucida Grande UI" font-size="24.0" fill="#5E5E5E" transform="matrix(1.00, 0.00, -0.00, -1.00, 94.1, 32.8)">w</text><text xml:space="preserve" font-family=".LucidaGrandeUI,.Lucida Grande UI" font-size="24.0" fill="#5E5E5E" transform="matrix(1.00, 0.00, -0.00, -1.00, 112.6, 32.8)"> </text><text xml:space="preserve" font-family=".LucidaGrandeUI,.Lucida Grande UI" font-size="24.0" fill="#5E5E5E" transform="matrix(1.00, 0.00, -0.00, -1.00, 120.2, 32.8)">b</text><text xml:space="preserve" font-family=".LucidaGrandeUI,.Lucida Grande UI" font-size="24.0" fill="#5E5E5E" transform="matrix(1.00, 0.00, -0.00, -1.00, 135.3, 32.8)">l</text><text xml:space="preserve" font-family=".LucidaGrandeUI,.Lucida Grande UI" font-size="24.0" fill="#5E5E5E" transform="matrix(1.00, 0.00, -0.00, -1.00, 142.3, 32.8)">a</text><text xml:space="preserve" font-family=".LucidaGrandeUI,.Lucida Grande UI" font-size="24.0" fill="#5E5E5E" transform="matrix(1.00, 0.00, -0.00, -1.00, 155.5, 32.8)">c</text><text xml:space="preserve" font-family=".LucidaGrandeUI,.Lucida Grande UI" font-size="24.0" fill="#5E5E5E" transform="matrix(1.00, 0.00, -0.00, -1.00, 167.8, 32.8)">k</text><text xml:space="preserve" font-family=".LucidaGrandeUI,.Lucida Grande UI" font-size="24.0" fill="#5E5E5E" transform="matrix(1.00, 0.00, -0.00, -1.00, 181.7, 32.8)"> </text><text xml:space="preserve" font-family=".LucidaGrandeUI,.Lucida Grande UI" font-size="24.0" fill="#5E5E5E" transform="matrix(1.00, 0.00, -0.00, -1.00, 189.3, 32.8)">i</text><text xml:space="preserve" font-family=".LucidaGrandeUI,.Lucida Grande UI" font-size="24.0" fill="#5E5E5E" transform="matrix(1.00, 0.00, -0.00, -1.00, 196.2, 32.8)">n</text><text xml:space="preserve" font-family=".LucidaGrandeUI,.Lucida Grande UI" font-size="24.0" fill="#5E5E5E" transform="matrix(1.00, 0.00, -0.00, -1.00, 211.1, 32.8)"> </text><text xml:space="preserve" font-family=".LucidaGrandeUI,.Lucida Grande UI" font-size="24.0" fill="#5E5E5E" transform="matrix(1.00, 0.00, -0.00, -1.00, 218.7, 32.8)">t</text><text xml:space="preserve" font-family=".LucidaGrandeUI,.Lucida Grande UI" font-size="24.0" fill="#5E5E5E" transform="matrix(1.00, 0.00, -0.00, -1.00, 227.7, 32.8)">e</text><text xml:space="preserve" font-family=".LucidaGrandeUI,.Lucida Grande UI" font-size="24.0" fill="#5E5E5E" transform="matrix(1.00, 0.00, -0.00, -1.00, 241.1, 32.8)">c</text><text xml:space="preserve" font-family=".LucidaGrandeUI,.Lucida Grande UI" font-size="24.0" fill="#5E5E5E" transform="matrix(1.00, 0.00, -0.00, -1.00, 253.4, 32.8)">h</text><text xml:space="preserve" font-family=".LucidaGrandeUI,.Lucida Grande UI" font-size="24.0" fill="#5E5E5E" transform="matrix(1.00, 0.00, -0.00, -1.00, 268.2, 32.8)"></text><text xml:space="preserve" font-family=".LucidaGrandeUI,.Lucida Grande UI" font-size="13.5" fill="#008E00" transform="matrix(1.00, 0.00, -0.00, -1.00, 35.7, 6.2)">•</text><text xml:space="preserve" font-family=".LucidaGrandeUI,.Lucida Grande UI" font-size="18.0" fill="#008E00" transform="matrix(1.00, 0.00, -0.00, -1.00, 59.1, 4.7)">P</text><text xml:space="preserve" font-family=".LucidaGrandeUI,.Lucida Grande UI" font-size="18.0" fill="#008E00" transform="matrix(1.00, 0.00, -0.00, -1.00, 68.9, 4.7)">a</text><text xml:space="preserve" font-family=".LucidaGrandeUI,.Lucida Grande UI" font-size="18.0" fill="#008E00" transform="matrix(1.00, 0.00, -0.00, -1.00, 78.9, 4.7)">r</text><text xml:space="preserve" font-family=".LucidaGrandeUI,.Lucida Grande UI" font-size="18.0" fill="#008E00" transform="matrix(1.00, 0.00, -0.00, -1.00, 86.2, 4.7)">t</text><text xml:space="preserve" font-family=".LucidaGrandeUI,.Lucida Grande UI" font-size="18.0" fill="#008E00" transform="matrix(1.00, 0.00, -0.00, -1.00, 93.0, 4.7)"> </text><text xml:space="preserve" font-family=".LucidaGrandeUI,.Lucida Grande UI" font-size="18.0" fill="#008E00" transform="matrix(1.00, 0.00, -0.00, -1.00, 98.7, 4.7)">o</text><text xml:space="preserve" font-family=".LucidaGrandeUI,.Lucida Grande UI" font-size="18.0" fill="#008E00" transform="matrix(1.00, 0.00, -0.00, -1.00, 109.7, 4.7)">f</text><text xml:space="preserve" font-family=".LucidaGrandeUI,.Lucida Grande UI" font-size="18.0" fill="#008E00" transform="matrix(1.00, 0.00, -0.00, -1.00, 116.3, 4.7)"> </text><text xml:space="preserve" font-family=".LucidaGrandeUI,.Lucida Grande UI" font-size="18.0" fill="#008E00" transform="matrix(1.00, 0.00, -0.00, -1.00, 122.0, 4.7)">R</text><text xml:space="preserve" font-family=".LucidaGrandeUI,.Lucida Grande UI" font-size="18.0" fill="#008E00" transform="matrix(1.00, 0.00, -0.00, -1.00, 133.4, 4.7)">H</text><text xml:space="preserve" font-family=".LucidaGrandeUI,.Lucida Grande UI" font-size="18.0" fill="#008E00" transform="matrix(1.00, 0.00, -0.00, -1.00, 146.7, 4.7)">E</text><text xml:space="preserve" font-family=".LucidaGrandeUI,.Lucida Grande UI" font-size="18.0" fill="#008E00" transform="matrix(1.00, 0.00, -0.00, -1.00, 156.4, 4.7)">L</text><text xml:space="preserve" font-family=".LucidaGrandeUI,.Lucida Grande UI" font-size="18.0" fill="#008E00" transform="matrix(1.00, 0.00, -0.00, -1.00, 166.0, 4.7)">7</text><text xml:space="preserve" font-family=".LucidaGrandeUI,.Lucida Grande UI" font-size="18.0" fill="#008E00" transform="matrix(1.00, 0.00, -0.00, -1.00, 177.4, 4.7)">,</text><text xml:space="preserve" font-family=".LucidaGrandeUI,.Lucida Grande UI" font-size="18.0" fill="#008E00" transform="matrix(1.00, 0.00, -0.00, -1.00, 183.1, 4.7)"> </text><text xml:space="preserve" font-family=".LucidaGrandeUI,.Lucida Grande UI" font-size="18.0" fill="#008E00" transform="matrix(1.00, 0.00, -0.00, -1.00, 188.8, 4.7)">U</text><text xml:space="preserve" font-family=".LucidaGrandeUI,.Lucida Grande UI" font-size="18.0" fill="#008E00" transform="matrix(1.00, 0.00, -0.00, -1.00, 201.3, 4.7)">b</text><text xml:space="preserve" font-family=".LucidaGrandeUI,.Lucida Grande UI" font-size="18.0" fill="#008E00" transform="matrix(1.00, 0.00, -0.00, -1.00, 212.6, 4.7)">u</text><text xml:space="preserve" font-family=".LucidaGrandeUI,.Lucida Grande UI" font-size="18.0" fill="#008E00" transform="matrix(1.00, 0.00, -0.00, -1.00, 223.8, 4.7)">n</text><text xml:space="preserve" font-family=".LucidaGrandeUI,.Lucida Grande UI" font-size="18.0" fill="#008E00" transform="matrix(1.00, 0.00, -0.00, -1.00, 234.9, 4.7)">t</text><text xml:space="preserve" font-family=".LucidaGrandeUI,.Lucida Grande UI" font-size="18.0" fill="#008E00" transform="matrix(1.00, 0.00, -0.00, -1.00, 241.7, 4.7)">u</text></g></svg>