<?xml version="1.0" encoding="UTF-8" standalone="no"?><svg xmlns="http://www.w3.org/2000/svg" xmlns:xlink="http://www.w3.org/1999/xlink" clip-rule="evenodd" stroke-miterlimit="10" viewBox="0 0 89 36"><desc>SVG generated by Keynote</desc><defs></defs><g transform="matrix(1.00, 0.00, -0.00, -1.00, 0.0, 36.0)"><path d="M 1.5 34.5 L 87.5 34.5 L 87.5 2.5 L 1.5 2.5 Z M 1.5 34.4 " fill="#941100"></path><path d="M 0.0 -0.1 L 86.0 -0.1 L 86.0 31.9 L 0.0 31.9 Z M 0.0 0.0 " fill="none" stroke="#000000" stroke-width="0.75" stroke-linejoin="round" transform="matrix(1.00, 0.00, 0.00, -1.00, 1.5, 34.4)"></path><g><clipPath id="clip0x6000054b8420"><path d="M 2.5 3.4 L 86.1 3.4 L 86.1 33.4 L 2.5 33.4 Z M 2.5 3.4 "></path></clipPath><g clip-path="url(#clip0x6000054b8420)"><text xml:space="preserve" font-family=".LucidaGrandeUI,.Lucida Grande UI" font-size="13.0" fill="#FEFFFF" transform="matrix(1.00, 0.00, -0.00, -1.00, 11.0, 13.1)">U</text><text xml:space="preserve" font-family=".LucidaGrandeUI,.Lucida Grande UI" font-size="13.0" fill="#FEFFFF" transform="matrix(1.00, 0.00, -0.00, -1.00, 20.0, 13.1)">S</text><text xml:space="preserve" font-family=".LucidaGrandeUI,.Lucida Grande UI" font-size="13.0" fill="#FEFFFF" transform="matrix(1.00, 0.00, -0.00, -1.00, 27.0, 13.1)">E</text><text xml:space="preserve" font-family=".LucidaGrandeUI,.Lucida Grande UI" font-size="13.0" fill="#FEFFFF" transform="matrix(1.00, 0.00, -0.00, -1.00, 34.1, 13.1)">R</text><text xml:space="preserve" font-family=".LucidaGrandeUI,.Lucida Grande UI" font-size="13.0" fill="#FEFFFF" transform="matrix(1.00, 0.00, -0.00, -1.00, 42.3, 13.1)">L</text><text xml:space="preserve" font-family=".LucidaGrandeUI,.Lucida Grande UI" font-size="13.0" fill="#FEFFFF" transform="matrix(1.00, 0.00, -0.00, -1.00, 49.2, 13.1)">A</text><text xml:space="preserve" font-family=".LucidaGrandeUI,.Lucida Grande UI" font-size="13.0" fill="#FEFFFF" transform="matrix(1.00, 0.00, -0.00, -1.00, 58.2, 13.1)">N</text><text xml:space="preserve" font-family=".LucidaGrandeUI,.Lucida Grande UI" font-size="13.0" fill="#FEFFFF" transform="matrix(1.00, 0.00, -0.00, -1.00, 67.8, 13.1)">D</text></g></g></g></svg>