<?xml version="1.0" encoding="UTF-8" standalone="no"?><svg xmlns="http://www.w3.org/2000/svg" xmlns:xlink="http://www.w3.org/1999/xlink" clip-rule="evenodd" stroke-miterlimit="10" viewBox="0 0 99 138"><desc>SVG generated by Keynote</desc><defs></defs><g transform="matrix(1.00, 0.00, -0.00, -1.00, 0.0, 138.0)"><text xml:space="preserve" font-family=".LucidaGrandeUI,.Lucida Grande UI" font-size="18.0" fill="#008E00" transform="matrix(1.00, 0.00, -0.00, -1.00, 0.7, 55.3)"> </text><g><clipPath id="clip0x6000050a6000"><path d="M 0.0 0.0 L 99.0 0.0 L 99.0 138.0 L 0.0 138.0 Z M 0.0 0.0 "></path></clipPath><g clip-path="url(#clip0x6000050a6000)"><text xml:space="preserve" font-family=".LucidaGrandeUI,.Lucida Grande UI" font-size="12.0" fill="#5E5E5E" transform="matrix(1.00, 0.00, -0.00, -1.00, 0.7, 5.6)">‣</text><text xml:space="preserve" font-family=".LucidaGrandeUI,.Lucida Grande UI" font-size="24.0" fill="#5E5E5E" transform="matrix(1.00, 0.00, -0.00, -1.00, 15.7, 1.7)">D</text><text xml:space="preserve" font-family=".LucidaGrandeUI,.Lucida Grande UI" font-size="24.0" fill="#5E5E5E" transform="matrix(1.00, 0.00, -0.00, -1.00, 33.7, 1.7)">o</text><text xml:space="preserve" font-family=".LucidaGrandeUI,.Lucida Grande UI" font-size="24.0" fill="#5E5E5E" transform="matrix(1.00, 0.00, -0.00, -1.00, 48.4, 1.7)">c</text><text xml:space="preserve" font-family=".LucidaGrandeUI,.Lucida Grande UI" font-size="24.0" fill="#5E5E5E" transform="matrix(1.00, 0.00, -0.00, -1.00, 60.7, 1.7)">k</text><text xml:space="preserve" font-family=".LucidaGrandeUI,.Lucida Grande UI" font-size="24.0" fill="#5E5E5E" transform="matrix(1.00, 0.00, -0.00, -1.00, 74.6, 1.7)">e</text><text xml:space="preserve" font-family=".LucidaGrandeUI,.Lucida Grande UI" font-size="24.0" fill="#5E5E5E" transform="matrix(1.00, 0.00, -0.00, -1.00, 87.9, 1.7)">r</text></g></g></g></svg>