<?xml version="1.0" encoding="UTF-8" standalone="no"?><svg xmlns="http://www.w3.org/2000/svg" xmlns:xlink="http://www.w3.org/1999/xlink" clip-rule="evenodd" stroke-miterlimit="10" viewBox="0 0 90 41"><desc>SVG generated by Keynote</desc><defs></defs><g transform="matrix(1.00, 0.00, -0.00, -1.00, 0.0, 41.0)"><image xlink:href="581E03F82AD6E14B2F48B1B2D1A694A9.png" width="86.00" height="34.00" transform="matrix(1.00, 0.00, -0.00, -1.00, 2.0, 35.7)" opacity="0.50"></image><g><clipPath id="clip0x6080062aa020"><path d="M 5.0 19.2 L 5.0 22.3 C 5.0 29.1 10.5 35.0 17.4 35.0 L 73.0 35.0 C 79.8 35.0 85.0 29.1 85.0 22.3 L 85.0 19.2 C 85.0 12.3 79.8 7.0 73.0 7.0 L 17.4 7.0 C 10.5 7.0 5.0 12.3 5.0 19.2 Z M 5.0 19.2 "></path></clipPath><g clip-path="url(#clip0x6080062aa020)"><image xlink:href="79559B53344726561A56900E5F7EFED3.png" width="600.00" height="600.00" transform="matrix(0.50, 0.00, -0.00, -0.50, 5.0, 35.0)"></image></g></g><g><clipPath id="clip0x600003cafc60"><path d="M 5.0 6.7 L 85.3 6.7 L 85.3 34.7 L 5.0 34.7 Z M 5.0 6.7 "></path></clipPath><g clip-path="url(#clip0x600003cafc60)"><text xml:space="preserve" font-family=".LucidaGrandeUI,.Lucida Grande UI" font-size="16.0" fill="#FEFFFF" transform="matrix(1.00, 0.00, -0.00, -1.00, 20.5, 14.8)">e</text><text xml:space="preserve" font-family=".LucidaGrandeUI,.Lucida Grande UI" font-size="16.0" fill="#FEFFFF" transform="matrix(1.00, 0.00, -0.00, -1.00, 29.4, 14.8)">v</text><text xml:space="preserve" font-family=".LucidaGrandeUI,.Lucida Grande UI" font-size="16.0" fill="#FEFFFF" transform="matrix(1.00, 0.00, -0.00, -1.00, 37.6, 14.8)">e</text><text xml:space="preserve" font-family=".LucidaGrandeUI,.Lucida Grande UI" font-size="16.0" fill="#FEFFFF" transform="matrix(1.00, 0.00, -0.00, -1.00, 46.5, 14.8)">n</text><text xml:space="preserve" font-family=".LucidaGrandeUI,.Lucida Grande UI" font-size="16.0" fill="#FEFFFF" transform="matrix(1.00, 0.00, -0.00, -1.00, 56.5, 14.8)">t</text><text xml:space="preserve" font-family=".LucidaGrandeUI,.Lucida Grande UI" font-size="16.0" fill="#FEFFFF" transform="matrix(1.00, 0.00, -0.00, -1.00, 62.4, 14.8)">s</text></g></g></g></svg>