<?xml version="1.0" encoding="UTF-8" standalone="no"?><svg xmlns="http://www.w3.org/2000/svg" xmlns:xlink="http://www.w3.org/1999/xlink" clip-rule="evenodd" stroke-miterlimit="10" viewBox="0 0 203 27"><desc>SVG generated by Keynote</desc><defs></defs><g transform="matrix(1.00, 0.00, -0.00, -1.00, 0.0, 27.0)"><text xml:space="preserve" font-family=".LucidaGrandeUI,.Lucida Grande UI" font-size="12.0" fill="#5E5E5E" transform="matrix(1.00, 0.00, -0.00, -1.00, 0.2, 10.3)">‣</text><text xml:space="preserve" font-family=".LucidaGrandeUI,.Lucida Grande UI" font-size="24.0" fill="#5E5E5E" transform="matrix(1.00, 0.00, -0.00, -1.00, 15.2, 6.3)">I</text><text xml:space="preserve" font-family=".LucidaGrandeUI,.Lucida Grande UI" font-size="24.0" fill="#5E5E5E" transform="matrix(1.00, 0.00, -0.00, -1.00, 22.1, 6.3)">B</text><text xml:space="preserve" font-family=".LucidaGrandeUI,.Lucida Grande UI" font-size="24.0" fill="#5E5E5E" transform="matrix(1.00, 0.00, -0.00, -1.00, 35.9, 6.3)"> </text><text xml:space="preserve" font-family=".LucidaGrandeUI,.Lucida Grande UI" font-size="24.0" fill="#5E5E5E" transform="matrix(1.00, 0.00, -0.00, -1.00, 43.5, 6.3)">i</text><text xml:space="preserve" font-family=".LucidaGrandeUI,.Lucida Grande UI" font-size="24.0" fill="#5E5E5E" transform="matrix(1.00, 0.00, -0.00, -1.00, 50.5, 6.3)">s</text><text xml:space="preserve" font-family=".LucidaGrandeUI,.Lucida Grande UI" font-size="24.0" fill="#5E5E5E" transform="matrix(1.00, 0.00, -0.00, -1.00, 61.6, 6.3)"> </text><text xml:space="preserve" font-family=".LucidaGrandeUI,.Lucida Grande UI" font-size="24.0" fill="#5E5E5E" transform="matrix(1.00, 0.00, -0.00, -1.00, 69.2, 6.3)">n</text><text xml:space="preserve" font-family=".LucidaGrandeUI,.Lucida Grande UI" font-size="24.0" fill="#5E5E5E" transform="matrix(1.00, 0.00, -0.00, -1.00, 84.1, 6.3)">o</text><text xml:space="preserve" font-family=".LucidaGrandeUI,.Lucida Grande UI" font-size="24.0" fill="#5E5E5E" transform="matrix(1.00, 0.00, -0.00, -1.00, 98.8, 6.3)">t</text><text xml:space="preserve" font-family=".LucidaGrandeUI,.Lucida Grande UI" font-size="24.0" fill="#5E5E5E" transform="matrix(1.00, 0.00, -0.00, -1.00, 107.8, 6.3)"> </text><text xml:space="preserve" font-family=".LucidaGrandeUI,.Lucida Grande UI" font-size="24.0" fill="#5E5E5E" transform="matrix(1.00, 0.00, -0.00, -1.00, 115.4, 6.3)">e</text><text xml:space="preserve" font-family=".LucidaGrandeUI,.Lucida Grande UI" font-size="24.0" fill="#5E5E5E" transform="matrix(1.00, 0.00, -0.00, -1.00, 128.8, 6.3)">n</text><text xml:space="preserve" font-family=".LucidaGrandeUI,.Lucida Grande UI" font-size="24.0" fill="#5E5E5E" transform="matrix(1.00, 0.00, -0.00, -1.00, 143.7, 6.3)">o</text><text xml:space="preserve" font-family=".LucidaGrandeUI,.Lucida Grande UI" font-size="24.0" fill="#5E5E5E" transform="matrix(1.00, 0.00, -0.00, -1.00, 158.4, 6.3)">u</text><text xml:space="preserve" font-family=".LucidaGrandeUI,.Lucida Grande UI" font-size="24.0" fill="#5E5E5E" transform="matrix(1.00, 0.00, -0.00, -1.00, 173.3, 6.3)">g</text><text xml:space="preserve" font-family=".LucidaGrandeUI,.Lucida Grande UI" font-size="24.0" fill="#5E5E5E" transform="matrix(1.00, 0.00, -0.00, -1.00, 188.2, 6.3)">h</text></g></svg>