<?xml version="1.0" encoding="UTF-8" standalone="no"?><svg xmlns="http://www.w3.org/2000/svg" xmlns:xlink="http://www.w3.org/1999/xlink" clip-rule="evenodd" stroke-miterlimit="10" viewBox="0 0 90 41"><desc>SVG generated by Keynote</desc><defs></defs><g transform="matrix(1.00, 0.00, -0.00, -1.00, 0.0, 41.0)"><image xlink:href="AA586564BF3E79316FA5A86FE0868F0E.png" width="86.00" height="34.00" transform="matrix(1.00, 0.00, -0.00, -1.00, 2.0, 35.8)" opacity="0.50"></image><g><clipPath id="clip0x600003cb09e0"><path d="M 5.0 19.2 L 5.0 22.4 C 5.0 29.2 10.5 35.0 17.4 35.0 L 73.0 35.0 C 79.8 35.0 85.0 29.2 85.0 22.4 L 85.0 19.2 C 85.0 12.4 79.8 7.0 73.0 7.0 L 17.4 7.0 C 10.5 7.0 5.0 12.4 5.0 19.2 Z M 5.0 19.2 "></path></clipPath><g clip-path="url(#clip0x600003cb09e0)"><image xlink:href="../../388AC461-A37F-4D13-9E58-D44EF987A297/assets/79559B53344726561A56900E5F7EFED3.png" width="600.00" height="600.00" transform="matrix(0.50, 0.00, -0.00, -0.50, 5.0, 35.0)"></image></g></g><g><clipPath id="clip0x6080062aada0"><path d="M 5.0 6.8 L 85.3 6.8 L 85.3 34.8 L 5.0 34.8 Z M 5.0 6.8 "></path></clipPath><g clip-path="url(#clip0x6080062aada0)"><text xml:space="preserve" font-family=".LucidaGrandeUI,.Lucida Grande UI" font-size="16.0" fill="#FEFFFF" transform="matrix(1.00, 0.00, -0.00, -1.00, 20.5, 14.9)">e</text><text xml:space="preserve" font-family=".LucidaGrandeUI,.Lucida Grande UI" font-size="16.0" fill="#FEFFFF" transform="matrix(1.00, 0.00, -0.00, -1.00, 29.4, 14.9)">v</text><text xml:space="preserve" font-family=".LucidaGrandeUI,.Lucida Grande UI" font-size="16.0" fill="#FEFFFF" transform="matrix(1.00, 0.00, -0.00, -1.00, 37.6, 14.9)">e</text><text xml:space="preserve" font-family=".LucidaGrandeUI,.Lucida Grande UI" font-size="16.0" fill="#FEFFFF" transform="matrix(1.00, 0.00, -0.00, -1.00, 46.5, 14.9)">n</text><text xml:space="preserve" font-family=".LucidaGrandeUI,.Lucida Grande UI" font-size="16.0" fill="#FEFFFF" transform="matrix(1.00, 0.00, -0.00, -1.00, 56.5, 14.9)">t</text><text xml:space="preserve" font-family=".LucidaGrandeUI,.Lucida Grande UI" font-size="16.0" fill="#FEFFFF" transform="matrix(1.00, 0.00, -0.00, -1.00, 62.4, 14.9)">s</text></g></g></g></svg>