<?xml version="1.0" encoding="UTF-8" standalone="no"?><svg xmlns="http://www.w3.org/2000/svg" xmlns:xlink="http://www.w3.org/1999/xlink" clip-rule="evenodd" stroke-miterlimit="10" viewBox="0 0 90 41"><desc>SVG generated by Keynote</desc><defs></defs><g transform="matrix(1.00, 0.00, -0.00, -1.00, 0.0, 41.0)"><image xlink:href="4665AFB44467A134FD36CB4DF00FD081.png" width="86.00" height="34.00" transform="matrix(1.00, 0.00, -0.00, -1.00, 2.0, 35.3)" opacity="0.50"></image><g><clipPath id="clip0x6080062aaf20"><path d="M 5.0 18.7 L 5.0 21.9 C 5.0 28.7 10.5 34.0 17.4 34.0 L 73.0 34.0 C 79.8 34.0 85.0 28.7 85.0 21.9 L 85.0 18.7 C 85.0 11.9 79.8 6.0 73.0 6.0 L 17.4 6.0 C 10.5 6.0 5.0 11.9 5.0 18.7 Z M 5.0 18.7 "></path></clipPath><g clip-path="url(#clip0x6080062aaf20)"><image xlink:href="../../388AC461-A37F-4D13-9E58-D44EF987A297/assets/79559B53344726561A56900E5F7EFED3.png" width="600.00" height="600.00" transform="matrix(0.50, 0.00, -0.00, -0.50, 5.0, 34.0)"></image></g></g><g><clipPath id="clip0x6080062ab340"><path d="M 5.0 6.3 L 85.3 6.3 L 85.3 34.3 L 5.0 34.3 Z M 5.0 6.3 "></path></clipPath><g clip-path="url(#clip0x6080062ab340)"><text xml:space="preserve" font-family=".LucidaGrandeUI,.Lucida Grande UI" font-size="16.0" fill="#FEFFFF" transform="matrix(1.00, 0.00, -0.00, -1.00, 20.5, 14.4)">e</text><text xml:space="preserve" font-family=".LucidaGrandeUI,.Lucida Grande UI" font-size="16.0" fill="#FEFFFF" transform="matrix(1.00, 0.00, -0.00, -1.00, 29.4, 14.4)">v</text><text xml:space="preserve" font-family=".LucidaGrandeUI,.Lucida Grande UI" font-size="16.0" fill="#FEFFFF" transform="matrix(1.00, 0.00, -0.00, -1.00, 37.6, 14.4)">e</text><text xml:space="preserve" font-family=".LucidaGrandeUI,.Lucida Grande UI" font-size="16.0" fill="#FEFFFF" transform="matrix(1.00, 0.00, -0.00, -1.00, 46.5, 14.4)">n</text><text xml:space="preserve" font-family=".LucidaGrandeUI,.Lucida Grande UI" font-size="16.0" fill="#FEFFFF" transform="matrix(1.00, 0.00, -0.00, -1.00, 56.5, 14.4)">t</text><text xml:space="preserve" font-family=".LucidaGrandeUI,.Lucida Grande UI" font-size="16.0" fill="#FEFFFF" transform="matrix(1.00, 0.00, -0.00, -1.00, 62.4, 14.4)">s</text></g></g></g></svg>