<?xml version="1.0" encoding="UTF-8" standalone="no"?><svg xmlns="http://www.w3.org/2000/svg" xmlns:xlink="http://www.w3.org/1999/xlink" clip-rule="evenodd" stroke-miterlimit="10" viewBox="0 0 89 41"><desc>SVG generated by Keynote</desc><defs></defs><g transform="matrix(1.00, 0.00, -0.00, -1.00, 0.0, 41.0)"><image xlink:href="7EFCF7596245547B8762FE5C43B204B0.png" width="86.00" height="34.00" transform="matrix(1.00, 0.00, -0.00, -1.00, 1.7, 35.7)" opacity="0.50"></image><path d="M 4.7 19.2 L 5.0 22.3 C 5.0 29.1 10.2 35.0 17.1 35.0 L 71.9 35.0 C 78.7 35.0 84.0 29.1 84.0 22.3 L 84.0 19.2 C 84.0 12.3 78.7 7.0 71.9 7.0 L 17.1 7.0 C 10.2 7.0 4.7 12.3 4.7 19.2 Z M 4.7 19.2 " fill="#00C5FF"></path><g><clipPath id="clip0x6080062aa740"><path d="M 4.7 6.8 L 84.3 6.8 L 84.3 34.7 L 4.7 34.7 Z M 4.7 6.8 "></path></clipPath><g clip-path="url(#clip0x6080062aa740)"><text xml:space="preserve" font-family=".LucidaGrandeUI,.Lucida Grande UI" font-size="16.0" fill="#FEFFFF" transform="matrix(1.00, 0.00, -0.00, -1.00, 16.2, 15.1)">m</text><text xml:space="preserve" font-family=".LucidaGrandeUI,.Lucida Grande UI" font-size="16.0" fill="#FEFFFF" transform="matrix(1.00, 0.00, -0.00, -1.00, 31.1, 15.1)">e</text><text xml:space="preserve" font-family=".LucidaGrandeUI,.Lucida Grande UI" font-size="16.0" fill="#FEFFFF" transform="matrix(1.00, 0.00, -0.00, -1.00, 40.0, 15.1)">t</text><text xml:space="preserve" font-family=".LucidaGrandeUI,.Lucida Grande UI" font-size="16.0" fill="#FEFFFF" transform="matrix(1.00, 0.00, -0.00, -1.00, 46.0, 15.1)">r</text><text xml:space="preserve" font-family=".LucidaGrandeUI,.Lucida Grande UI" font-size="16.0" fill="#FEFFFF" transform="matrix(1.00, 0.00, -0.00, -1.00, 52.6, 15.1)">i</text><text xml:space="preserve" font-family=".LucidaGrandeUI,.Lucida Grande UI" font-size="16.0" fill="#FEFFFF" transform="matrix(1.00, 0.00, -0.00, -1.00, 57.2, 15.1)">c</text><text xml:space="preserve" font-family=".LucidaGrandeUI,.Lucida Grande UI" font-size="16.0" fill="#FEFFFF" transform="matrix(1.00, 0.00, -0.00, -1.00, 65.4, 15.1)">s</text></g></g></g></svg>