<?xml version="1.0" encoding="UTF-8" standalone="no"?><svg xmlns="http://www.w3.org/2000/svg" xmlns:xlink="http://www.w3.org/1999/xlink" clip-rule="evenodd" stroke-miterlimit="10" viewBox="0 0 720 540"><desc>SVG generated by Keynote</desc><defs><pattern id="patternP1" patternUnits="userSpaceOnUse" width="580" height="580" viewBox="0 0 580 580"><image xlink:href="../../7C2A55CB-7573-4367-A759-6FF0CA913EB8/assets/35183B1AB2AC5EBA97DEDB0248F0E33D.png" width="580.00" height="580.00"></image></pattern><pattern id="patternP2" patternUnits="userSpaceOnUse" width="580" height="580" viewBox="0 0 580 580"><image xlink:href="../../7C2A55CB-7573-4367-A759-6FF0CA913EB8/assets/E2C6BACC91D5322B15A4C2F304F1B309.png" width="580.00" height="580.00"></image></pattern><pattern id="patternP3" patternUnits="userSpaceOnUse" width="580" height="580" viewBox="0 0 580 580"><image xlink:href="../../7C2A55CB-7573-4367-A759-6FF0CA913EB8/assets/58A53FB1C3BD2309C101DECB3C8FC7BA.png" width="580.00" height="580.00"></image></pattern><pattern id="patternP4" patternUnits="userSpaceOnUse" width="580" height="580" viewBox="0 0 580 580"><image xlink:href="../../7C2A55CB-7573-4367-A759-6FF0CA913EB8/assets/74601BB7892AC3B88E4D5260C57B1F8A.png" width="580.00" height="580.00"></image></pattern><pattern id="patternP5" patternUnits="userSpaceOnUse" width="580" height="580" viewBox="0 0 580 580"><image xlink:href="../../7C2A55CB-7573-4367-A759-6FF0CA913EB8/assets/31615450312E9FC2160B32D69BF08411.png" width="580.00" height="580.00"></image></pattern><linearGradient id="gradSh1.17" x1="0.0" y1="0.0" x2="100.0" y2="0.0" gradientUnits="userSpaceOnUse" gradientTransform="matrix(0.00, -0.47, -4.48, 0.00, 243.0, 264.0)"><stop offset="0.00000" stop-color="#6C7C4E"></stop><stop offset="0.00587" stop-color="#6D7C4E"></stop><stop offset="0.04179" stop-color="#708050"></stop><stop offset="0.05059" stop-color="#718050"></stop><stop offset="1.00000" stop-color="#C5D07C"></stop></linearGradient></defs><g transform="matrix(1.00, 0.00, -0.00, -1.00, 0.0, 540.0)"><path d="M 0.0 540.0 L 720.0 540.0 L 720.0 0.0 L 0.0 0.0 Z M 0.0 540.0 " fill="#FEFFFF"></path><path d="M 0.5 -0.2 L 606.5 -0.2 " fill="none" stroke="#949EAF" stroke-width="2.00" transform="matrix(1.00, 0.00, 0.00, -1.00, 0.5, 482.8)"></path><g><clipPath id="clip0x6080052b4700"><path d="M 626.4 503.1 L 720.9 503.1 L 720.9 506.8 L 626.4 506.8 Z M 626.4 503.1 "></path></clipPath><g clip-path="url(#clip0x6080052b4700)"><path d="M -0.4 0.0 L 92.6 0.0 " fill="none" stroke="#949EAF" stroke-width="2.00" transform="matrix(1.00, 0.00, 0.00, -1.00, 627.4, 505.0)"></path></g></g><g><clipPath id="clip0x6080052b4e20"><path d="M 604.7 480.7 L 629.1 480.7 L 629.1 506.9 L 604.7 506.9 Z M 604.7 480.7 "></path></clipPath><g clip-path="url(#clip0x6080052b4e20)"><path d="M 0.0 23.1 L 21.2 0.0 " fill="none" stroke="#949EAF" stroke-width="2.00" transform="matrix(1.00, 0.00, 0.00, -1.00, 606.2, 505.4)"></path></g></g><text xml:space="preserve" font-family=".LucidaGrandeUI,.Lucida Grande UI" font-size="10.0" fill="#363636" transform="matrix(1.00, 0.00, -0.00, -1.00, 14.2, 9.1)">©</text><text xml:space="preserve" font-family=".LucidaGrandeUI,.Lucida Grande UI" font-size="10.0" fill="#363636" transform="matrix(1.00, 0.00, -0.00, -1.00, 22.8, 9.1)">B</text><text xml:space="preserve" font-family=".LucidaGrandeUI,.Lucida Grande UI" font-size="10.0" fill="#363636" transform="matrix(1.00, 0.00, -0.00, -1.00, 28.5, 9.1)">u</text><text xml:space="preserve" font-family=".LucidaGrandeUI,.Lucida Grande UI" font-size="10.0" fill="#363636" transform="matrix(1.00, 0.00, -0.00, -1.00, 34.7, 9.1)">l</text><text xml:space="preserve" font-family=".LucidaGrandeUI,.Lucida Grande UI" font-size="10.0" fill="#363636" transform="matrix(1.00, 0.00, -0.00, -1.00, 37.6, 9.1)">l</text><text xml:space="preserve" font-family=".LucidaGrandeUI,.Lucida Grande UI" font-size="10.0" fill="#363636" transform="matrix(1.00, 0.00, -0.00, -1.00, 40.5, 9.1)"> </text><text xml:space="preserve" font-family=".LucidaGrandeUI,.Lucida Grande UI" font-size="10.0" fill="#363636" transform="matrix(1.00, 0.00, -0.00, -1.00, 43.7, 9.1)">2</text><text xml:space="preserve" font-family=".LucidaGrandeUI,.Lucida Grande UI" font-size="10.0" fill="#363636" transform="matrix(1.00, 0.00, -0.00, -1.00, 50.0, 9.1)">0</text><text xml:space="preserve" font-family=".LucidaGrandeUI,.Lucida Grande UI" font-size="10.0" fill="#363636" transform="matrix(1.00, 0.00, -0.00, -1.00, 56.3, 9.1)">1</text><text xml:space="preserve" font-family=".LucidaGrandeUI,.Lucida Grande UI" font-size="10.0" fill="#363636" transform="matrix(1.00, 0.00, -0.00, -1.00, 62.6, 9.1)">4</text><text xml:space="preserve" font-family=".LucidaGrandeUI,.Lucida Grande UI" font-size="28.0" fill="#424242" transform="matrix(1.00, 0.00, -0.00, -1.00, 43.1, 492.9)">A</text><text xml:space="preserve" font-family=".LucidaGrandeUI,.Lucida Grande UI" font-size="28.0" fill="#424242" transform="matrix(1.00, 0.00, -0.00, -1.00, 62.3, 492.9)">c</text><text xml:space="preserve" font-family=".LucidaGrandeUI,.Lucida Grande UI" font-size="28.0" fill="#424242" transform="matrix(1.00, 0.00, -0.00, -1.00, 76.7, 492.9)">h</text><text xml:space="preserve" font-family=".LucidaGrandeUI,.Lucida Grande UI" font-size="28.0" fill="#424242" transform="matrix(1.00, 0.00, -0.00, -1.00, 94.1, 492.9)">i</text><text xml:space="preserve" font-family=".LucidaGrandeUI,.Lucida Grande UI" font-size="28.0" fill="#424242" transform="matrix(1.00, 0.00, -0.00, -1.00, 102.2, 492.9)">e</text><text xml:space="preserve" font-family=".LucidaGrandeUI,.Lucida Grande UI" font-size="28.0" fill="#424242" transform="matrix(1.00, 0.00, -0.00, -1.00, 117.8, 492.9)">v</text><text xml:space="preserve" font-family=".LucidaGrandeUI,.Lucida Grande UI" font-size="28.0" fill="#424242" transform="matrix(1.00, 0.00, -0.00, -1.00, 132.2, 492.9)">e</text><text xml:space="preserve" font-family=".LucidaGrandeUI,.Lucida Grande UI" font-size="28.0" fill="#424242" transform="matrix(1.00, 0.00, -0.00, -1.00, 147.8, 492.9)">d</text><text xml:space="preserve" font-family=".LucidaGrandeUI,.Lucida Grande UI" font-size="28.0" fill="#424242" transform="matrix(1.00, 0.00, -0.00, -1.00, 165.4, 492.9)"> </text><text xml:space="preserve" font-family=".LucidaGrandeUI,.Lucida Grande UI" font-size="28.0" fill="#424242" transform="matrix(1.00, 0.00, -0.00, -1.00, 174.3, 492.9)">H</text><text xml:space="preserve" font-family=".LucidaGrandeUI,.Lucida Grande UI" font-size="28.0" fill="#424242" transform="matrix(1.00, 0.00, -0.00, -1.00, 194.8, 492.9)">P</text><text xml:space="preserve" font-family=".LucidaGrandeUI,.Lucida Grande UI" font-size="28.0" fill="#424242" transform="matrix(1.00, 0.00, -0.00, -1.00, 210.3, 492.9)">C</text><text xml:space="preserve" font-family=".LucidaGrandeUI,.Lucida Grande UI" font-size="28.0" fill="#424242" transform="matrix(1.00, 0.00, -0.00, -1.00, 229.7, 492.9)"> </text><text xml:space="preserve" font-family=".LucidaGrandeUI,.Lucida Grande UI" font-size="28.0" fill="#424242" transform="matrix(1.00, 0.00, -0.00, -1.00, 238.5, 492.9)">S</text><text xml:space="preserve" font-family=".LucidaGrandeUI,.Lucida Grande UI" font-size="28.0" fill="#424242" transform="matrix(1.00, 0.00, -0.00, -1.00, 253.6, 492.9)">o</text><text xml:space="preserve" font-family=".LucidaGrandeUI,.Lucida Grande UI" font-size="28.0" fill="#424242" transform="matrix(1.00, 0.00, -0.00, -1.00, 270.8, 492.9)">f</text><text xml:space="preserve" font-family=".LucidaGrandeUI,.Lucida Grande UI" font-size="28.0" fill="#424242" transform="matrix(1.00, 0.00, -0.00, -1.00, 281.1, 492.9)">t</text><text xml:space="preserve" font-family=".LucidaGrandeUI,.Lucida Grande UI" font-size="28.0" fill="#424242" transform="matrix(1.00, 0.00, -0.00, -1.00, 291.6, 492.9)">w</text><text xml:space="preserve" font-family=".LucidaGrandeUI,.Lucida Grande UI" font-size="28.0" fill="#424242" transform="matrix(1.00, 0.00, -0.00, -1.00, 313.1, 492.9)">a</text><text xml:space="preserve" font-family=".LucidaGrandeUI,.Lucida Grande UI" font-size="28.0" fill="#424242" transform="matrix(1.00, 0.00, -0.00, -1.00, 328.6, 492.9)">r</text><text xml:space="preserve" font-family=".LucidaGrandeUI,.Lucida Grande UI" font-size="28.0" fill="#424242" transform="matrix(1.00, 0.00, -0.00, -1.00, 340.1, 492.9)">e</text><text xml:space="preserve" font-family=".LucidaGrandeUI,.Lucida Grande UI" font-size="28.0" fill="#424242" transform="matrix(1.00, 0.00, -0.00, -1.00, 355.7, 492.9)"> </text><text xml:space="preserve" font-family=".LucidaGrandeUI,.Lucida Grande UI" font-size="28.0" fill="#424242" transform="matrix(1.00, 0.00, -0.00, -1.00, 364.5, 492.9)">S</text><text xml:space="preserve" font-family=".LucidaGrandeUI,.Lucida Grande UI" font-size="28.0" fill="#424242" transform="matrix(1.00, 0.00, -0.00, -1.00, 379.6, 492.9)">t</text><text xml:space="preserve" font-family=".LucidaGrandeUI,.Lucida Grande UI" font-size="28.0" fill="#424242" transform="matrix(1.00, 0.00, -0.00, -1.00, 390.1, 492.9)">a</text><text xml:space="preserve" font-family=".LucidaGrandeUI,.Lucida Grande UI" font-size="28.0" fill="#424242" transform="matrix(1.00, 0.00, -0.00, -1.00, 405.6, 492.9)">c</text><text xml:space="preserve" font-family=".LucidaGrandeUI,.Lucida Grande UI" font-size="28.0" fill="#424242" transform="matrix(1.00, 0.00, -0.00, -1.00, 419.9, 492.9)">k</text><text xml:space="preserve" font-family=".LucidaGrandeUI,.Lucida Grande UI" font-size="8.0" fill="#363636" transform="matrix(1.00, 0.00, -0.00, -1.00, 689.4, 9.4)">1</text><text xml:space="preserve" font-family=".LucidaGrandeUI,.Lucida Grande UI" font-size="8.0" fill="#363636" transform="matrix(1.00, 0.00, -0.00, -1.00, 694.5, 9.4)">6</text><g><clipPath id="clip0x6080056b5a20"><path d="M 20.0 133.0 L 466.0 133.0 L 466.0 90.0 L 20.0 90.0 Z M 20.3 133.0 "></path></clipPath><g clip-path="url(#clip0x6080056b5a20)"><path d="M 20.0 90.0 L 466.0 90.0 L 466.0 133.0 L 20.0 133.0 Z M 20.0 90.0 " fill="url(#patternP1)"></path></g></g><image xlink:href="626D5439A186D8314A56EAC30D2A8596.png" width="117.00" height="23.00" transform="matrix(1.00, 0.00, -0.00, -1.00, 23.0, 120.0)"></image><g><clipPath id="clip0x6080056b5b40"><path d="M 16.5 84.5 L 473.6 84.5 L 473.6 133.7 L 16.5 133.7 Z M 16.5 84.5 "></path></clipPath><g clip-path="url(#clip0x6080056b5b40)"><text xml:space="preserve" font-family="Palatino-Roman,Palatino" font-size="24.0" fill="#FEFFFE" transform="matrix(1.00, 0.00, -0.00, -1.00, 23.3, 101.6)">H</text><text xml:space="preserve" font-family="Palatino-Roman,Palatino" font-size="24.0" fill="#FEFFFE" transform="matrix(1.00, 0.00, -0.00, -1.00, 43.2, 101.6)">a</text><text xml:space="preserve" font-family="Palatino-Roman,Palatino" font-size="24.0" fill="#FEFFFE" transform="matrix(1.00, 0.00, -0.00, -1.00, 55.2, 101.6)">r</text><text xml:space="preserve" font-family="Palatino-Roman,Palatino" font-size="24.0" fill="#FEFFFE" transform="matrix(1.00, 0.00, -0.00, -1.00, 64.3, 101.6)">d</text><text xml:space="preserve" font-family="Palatino-Roman,Palatino" font-size="24.0" fill="#FEFFFE" transform="matrix(1.00, 0.00, -0.00, -1.00, 78.9, 101.6)">w</text><text xml:space="preserve" font-family="Palatino-Roman,Palatino" font-size="24.0" fill="#FEFFFE" transform="matrix(1.00, 0.00, -0.00, -1.00, 98.9, 101.6)">a</text><text xml:space="preserve" font-family="Palatino-Roman,Palatino" font-size="24.0" fill="#FEFFFE" transform="matrix(1.00, 0.00, -0.00, -1.00, 110.9, 101.6)">r</text><text xml:space="preserve" font-family="Palatino-Roman,Palatino" font-size="24.0" fill="#FEFFFE" transform="matrix(1.00, 0.00, -0.00, -1.00, 120.0, 101.6)">e</text><text xml:space="preserve" font-family="Palatino-Roman,Palatino" font-size="24.0" fill="#FEFFFE" transform="matrix(1.00, 0.00, -0.00, -1.00, 131.5, 101.6)">:</text></g></g><image xlink:href="01850579F4BB6AA65EA3382326810DC0.png" width="28.00" height="22.00" transform="matrix(1.00, 0.00, -0.00, -1.00, 219.0, 119.0)"></image><g><clipPath id="clip0x6080056b60e0"><path d="M 16.5 84.5 L 473.6 84.5 L 473.6 133.7 L 16.5 133.7 Z M 16.5 84.5 "></path></clipPath><g clip-path="url(#clip0x6080056b60e0)"><text xml:space="preserve" font-family="Palatino-Bold,Palatino" font-weight="bold" font-size="24.0" fill="#FF2600" transform="matrix(1.00, 0.00, -0.00, -1.00, 218.3, 101.6)">I</text><text xml:space="preserve" font-family="Palatino-Bold,Palatino" font-weight="bold" font-size="24.0" fill="#FF2600" transform="matrix(1.00, 0.00, -0.00, -1.00, 227.6, 101.6)">B</text></g></g><image xlink:href="77AE398B1EB09428CBDC0798A0055B52.png" width="175.00" height="27.00" transform="matrix(1.00, 0.00, -0.00, -1.00, 244.0, 121.0)"></image><g><clipPath id="clip0x6000036b8720"><path d="M 16.5 84.5 L 473.6 84.5 L 473.6 133.7 L 16.5 133.7 Z M 16.5 84.5 "></path></clipPath><g clip-path="url(#clip0x6000036b8720)"><text xml:space="preserve" font-family="Palatino-Roman,Palatino" font-size="24.0" fill="#FEFFFE" transform="matrix(1.00, 0.00, -0.00, -1.00, 243.6, 101.6)">-</text><text xml:space="preserve" font-family="Palatino-Roman,Palatino" font-size="24.0" fill="#FEFFFE" transform="matrix(1.00, 0.00, -0.00, -1.00, 251.6, 101.6)">s</text><text xml:space="preserve" font-family="Palatino-Roman,Palatino" font-size="24.0" fill="#FEFFFE" transform="matrix(1.00, 0.00, -0.00, -1.00, 261.8, 101.6)">e</text><text xml:space="preserve" font-family="Palatino-Roman,Palatino" font-size="24.0" fill="#FEFFFE" transform="matrix(1.00, 0.00, -0.00, -1.00, 273.3, 101.6)">n</text><text xml:space="preserve" font-family="Palatino-Roman,Palatino" font-size="24.0" fill="#FEFFFE" transform="matrix(1.00, 0.00, -0.00, -1.00, 287.2, 101.6)">s</text><text xml:space="preserve" font-family="Palatino-Roman,Palatino" font-size="24.0" fill="#FEFFFE" transform="matrix(1.00, 0.00, -0.00, -1.00, 297.4, 101.6)">o</text><text xml:space="preserve" font-family="Palatino-Roman,Palatino" font-size="24.0" fill="#FEFFFE" transform="matrix(1.00, 0.00, -0.00, -1.00, 310.5, 101.6)">r</text><text xml:space="preserve" font-family="Palatino-Roman,Palatino" font-size="24.0" fill="#FEFFFE" transform="matrix(1.00, 0.00, -0.00, -1.00, 320.0, 101.6)">s</text><text xml:space="preserve" font-family="Palatino-Roman,Palatino" font-size="24.0" fill="#FEFFFE" transform="matrix(1.00, 0.00, -0.00, -1.00, 330.1, 101.6)">/</text><text xml:space="preserve" font-family="Palatino-Roman,Palatino" font-size="24.0" fill="#FEFFFE" transform="matrix(1.00, 0.00, -0.00, -1.00, 344.7, 101.6)">-</text><text xml:space="preserve" font-family="Palatino-Roman,Palatino" font-size="24.0" fill="#FEFFFE" transform="matrix(1.00, 0.00, -0.00, -1.00, 352.7, 101.6)">e</text><text xml:space="preserve" font-family="Palatino-Roman,Palatino" font-size="24.0" fill="#FEFFFE" transform="matrix(1.00, 0.00, -0.00, -1.00, 364.2, 101.6)">r</text><text xml:space="preserve" font-family="Palatino-Roman,Palatino" font-size="24.0" fill="#FEFFFE" transform="matrix(1.00, 0.00, -0.00, -1.00, 373.6, 101.6)">r</text><text xml:space="preserve" font-family="Palatino-Roman,Palatino" font-size="24.0" fill="#FEFFFE" transform="matrix(1.00, 0.00, -0.00, -1.00, 382.7, 101.6)">o</text><text xml:space="preserve" font-family="Palatino-Roman,Palatino" font-size="24.0" fill="#FEFFFE" transform="matrix(1.00, 0.00, -0.00, -1.00, 395.8, 101.6)">r</text><text xml:space="preserve" font-family="Palatino-Roman,Palatino" font-size="24.0" fill="#FEFFFE" transform="matrix(1.00, 0.00, -0.00, -1.00, 405.3, 101.6)">s</text></g></g><g><clipPath id="clip0x6000036b9200"><path d="M 20.0 197.0 L 466.0 197.0 L 466.0 152.0 L 20.0 152.0 Z M 20.3 196.7 "></path></clipPath><g clip-path="url(#clip0x6000036b9200)"><path d="M 20.0 152.0 L 466.0 152.0 L 466.0 197.0 L 20.0 197.0 Z M 20.0 152.0 " fill="url(#patternP2)"></path></g></g><image xlink:href="../../7C2A55CB-7573-4367-A759-6FF0CA913EB8/assets/6CF164888C822CA67C76528329F07B75.png" width="436.00" height="26.00" transform="matrix(1.00, 0.00, -0.00, -1.00, 23.0, 182.0)"></image><g><clipPath id="clip0x6080056b6920"><path d="M 16.5 147.2 L 473.6 147.2 L 473.6 196.7 L 16.5 196.7 Z M 16.5 147.2 "></path></clipPath><g clip-path="url(#clip0x6080056b6920)"><text xml:space="preserve" font-family="Palatino-Roman,Palatino" font-size="24.0" fill="#FEFFFE" transform="matrix(1.00, 0.00, -0.00, -1.00, 23.3, 164.4)">O</text><text xml:space="preserve" font-family="Palatino-Roman,Palatino" font-size="24.0" fill="#FEFFFE" transform="matrix(1.00, 0.00, -0.00, -1.00, 42.1, 164.4)">S</text><text xml:space="preserve" font-family="Palatino-Roman,Palatino" font-size="24.0" fill="#FEFFFE" transform="matrix(1.00, 0.00, -0.00, -1.00, 54.7, 164.4)">:</text><text xml:space="preserve" font-family="Palatino-Roman,Palatino" font-size="24.0" fill="#FEFFFE" transform="matrix(1.00, 0.00, -0.00, -1.00, 200.3, 164.4)">K</text><text xml:space="preserve" font-family="Palatino-Roman,Palatino" font-size="24.0" fill="#FEFFFE" transform="matrix(1.00, 0.00, -0.00, -1.00, 217.7, 164.4)">e</text><text xml:space="preserve" font-family="Palatino-Roman,Palatino" font-size="24.0" fill="#FEFFFE" transform="matrix(1.00, 0.00, -0.00, -1.00, 229.2, 164.4)">r</text><text xml:space="preserve" font-family="Palatino-Roman,Palatino" font-size="24.0" fill="#FEFFFE" transform="matrix(1.00, 0.00, -0.00, -1.00, 238.7, 164.4)">n</text><text xml:space="preserve" font-family="Palatino-Roman,Palatino" font-size="24.0" fill="#FEFFFE" transform="matrix(1.00, 0.00, -0.00, -1.00, 252.6, 164.4)">e</text><text xml:space="preserve" font-family="Palatino-Roman,Palatino" font-size="24.0" fill="#FEFFFE" transform="matrix(1.00, 0.00, -0.00, -1.00, 264.1, 164.4)">l</text><text xml:space="preserve" font-family="Palatino-Roman,Palatino" font-size="24.0" fill="#FEFFFE" transform="matrix(1.00, 0.00, -0.00, -1.00, 271.1, 164.4)">,</text><text xml:space="preserve" font-family="Palatino-Roman,Palatino" font-size="24.0" fill="#FEFFFE" transform="matrix(1.00, 0.00, -0.00, -1.00, 277.1, 164.4)"> </text><text xml:space="preserve" font-family="Palatino-Roman,Palatino" font-size="24.0" fill="#FEFFFE" transform="matrix(1.00, 0.00, -0.00, -1.00, 283.1, 164.4)">U</text><text xml:space="preserve" font-family="Palatino-Roman,Palatino" font-size="24.0" fill="#FEFFFE" transform="matrix(1.00, 0.00, -0.00, -1.00, 301.8, 164.4)">s</text><text xml:space="preserve" font-family="Palatino-Roman,Palatino" font-size="24.0" fill="#FEFFFE" transform="matrix(1.00, 0.00, -0.00, -1.00, 311.9, 164.4)">e</text><text xml:space="preserve" font-family="Palatino-Roman,Palatino" font-size="24.0" fill="#FEFFFE" transform="matrix(1.00, 0.00, -0.00, -1.00, 323.4, 164.4)">r</text><text xml:space="preserve" font-family="Palatino-Roman,Palatino" font-size="24.0" fill="#FEFFFE" transform="matrix(1.00, 0.00, -0.00, -1.00, 332.9, 164.4)">l</text><text xml:space="preserve" font-family="Palatino-Roman,Palatino" font-size="24.0" fill="#FEFFFE" transform="matrix(1.00, 0.00, -0.00, -1.00, 339.9, 164.4)">a</text><text xml:space="preserve" font-family="Palatino-Roman,Palatino" font-size="24.0" fill="#FEFFFE" transform="matrix(1.00, 0.00, -0.00, -1.00, 351.9, 164.4)">n</text><text xml:space="preserve" font-family="Palatino-Roman,Palatino" font-size="24.0" fill="#FEFFFE" transform="matrix(1.00, 0.00, -0.00, -1.00, 365.9, 164.4)">d</text><text xml:space="preserve" font-family="Palatino-Roman,Palatino" font-size="24.0" fill="#FEFFFE" transform="matrix(1.00, 0.00, -0.00, -1.00, 380.5, 164.4)"> </text><text xml:space="preserve" font-family="Palatino-Roman,Palatino" font-size="24.0" fill="#FEFFFE" transform="matrix(1.00, 0.00, -0.00, -1.00, 386.5, 164.4)">t</text><text xml:space="preserve" font-family="Palatino-Roman,Palatino" font-size="24.0" fill="#FEFFFE" transform="matrix(1.00, 0.00, -0.00, -1.00, 394.4, 164.4)">o</text><text xml:space="preserve" font-family="Palatino-Roman,Palatino" font-size="24.0" fill="#FEFFFE" transform="matrix(1.00, 0.00, -0.00, -1.00, 407.5, 164.4)">o</text><text xml:space="preserve" font-family="Palatino-Roman,Palatino" font-size="24.0" fill="#FEFFFE" transform="matrix(1.00, 0.00, -0.00, -1.00, 420.6, 164.4)">l</text><text xml:space="preserve" font-family="Palatino-Roman,Palatino" font-size="24.0" fill="#FEFFFE" transform="matrix(1.00, 0.00, -0.00, -1.00, 427.5, 164.4)">s</text></g></g><g><clipPath id="clip0x6080056b7340"><path d="M 20.0 327.0 L 466.0 327.0 L 466.0 282.0 L 20.0 282.0 Z M 20.3 326.7 "></path></clipPath><g clip-path="url(#clip0x6080056b7340)"><path d="M 20.0 282.0 L 466.0 282.0 L 466.0 327.0 L 20.0 327.0 Z M 20.0 282.0 " fill="url(#patternP3)"></path></g></g><image xlink:href="../../7C2A55CB-7573-4367-A759-6FF0CA913EB8/assets/5A59291A47C73A61D2C6819A7E63D55D.png" width="338.00" height="26.00" transform="matrix(1.00, 0.00, -0.00, -1.00, 23.0, 312.0)"></image><g><clipPath id="clip0x6000036b93e0"><path d="M 16.5 277.2 L 473.6 277.2 L 473.6 326.7 L 16.5 326.7 Z M 16.5 277.2 "></path></clipPath><g clip-path="url(#clip0x6000036b93e0)"><text xml:space="preserve" font-family="Palatino-Roman,Palatino" font-size="24.0" fill="#FEFFFE" transform="matrix(1.00, 0.00, -0.00, -1.00, 23.3, 294.4)">M</text><text xml:space="preserve" font-family="Palatino-Roman,Palatino" font-size="24.0" fill="#FEFFFE" transform="matrix(1.00, 0.00, -0.00, -1.00, 45.9, 294.4)">i</text><text xml:space="preserve" font-family="Palatino-Roman,Palatino" font-size="24.0" fill="#FEFFFE" transform="matrix(1.00, 0.00, -0.00, -1.00, 52.9, 294.4)">d</text><text xml:space="preserve" font-family="Palatino-Roman,Palatino" font-size="24.0" fill="#FEFFFE" transform="matrix(1.00, 0.00, -0.00, -1.00, 67.6, 294.4)">d</text><text xml:space="preserve" font-family="Palatino-Roman,Palatino" font-size="24.0" fill="#FEFFFE" transform="matrix(1.00, 0.00, -0.00, -1.00, 82.2, 294.4)">l</text><text xml:space="preserve" font-family="Palatino-Roman,Palatino" font-size="24.0" fill="#FEFFFE" transform="matrix(1.00, 0.00, -0.00, -1.00, 89.2, 294.4)">e</text><text xml:space="preserve" font-family="Palatino-Roman,Palatino" font-size="24.0" fill="#FEFFFE" transform="matrix(1.00, 0.00, -0.00, -1.00, 100.7, 294.4)">W</text><text xml:space="preserve" font-family="Palatino-Roman,Palatino" font-size="24.0" fill="#FEFFFE" transform="matrix(1.00, 0.00, -0.00, -1.00, 122.5, 294.4)">a</text><text xml:space="preserve" font-family="Palatino-Roman,Palatino" font-size="24.0" fill="#FEFFFE" transform="matrix(1.00, 0.00, -0.00, -1.00, 134.5, 294.4)">r</text><text xml:space="preserve" font-family="Palatino-Roman,Palatino" font-size="24.0" fill="#FEFFFE" transform="matrix(1.00, 0.00, -0.00, -1.00, 143.6, 294.4)">e</text><text xml:space="preserve" font-family="Palatino-Roman,Palatino" font-size="24.0" fill="#FEFFFE" transform="matrix(1.00, 0.00, -0.00, -1.00, 155.1, 294.4)">:</text><text xml:space="preserve" font-family="Palatino-Roman,Palatino" font-size="24.0" fill="#FEFFFE" transform="matrix(1.00, 0.00, -0.00, -1.00, 212.2, 294.4)">M</text><text xml:space="preserve" font-family="Palatino-Roman,Palatino" font-size="24.0" fill="#FEFFFE" transform="matrix(1.00, 0.00, -0.00, -1.00, 234.9, 294.4)">P</text><text xml:space="preserve" font-family="Palatino-Roman,Palatino" font-size="24.0" fill="#FEFFFE" transform="matrix(1.00, 0.00, -0.00, -1.00, 249.4, 294.4)">I</text><text xml:space="preserve" font-family="Palatino-Roman,Palatino" font-size="24.0" fill="#FEFFFE" transform="matrix(1.00, 0.00, -0.00, -1.00, 257.5, 294.4)">,</text><text xml:space="preserve" font-family="Palatino-Roman,Palatino" font-size="24.0" fill="#FEFFFE" transform="matrix(1.00, 0.00, -0.00, -1.00, 263.5, 294.4)"> </text><text xml:space="preserve" font-family="Palatino-Roman,Palatino" font-size="24.0" fill="#FEFFFE" transform="matrix(1.00, 0.00, -0.00, -1.00, 269.5, 294.4)">I</text><text xml:space="preserve" font-family="Palatino-Roman,Palatino" font-size="24.0" fill="#FEFFFE" transform="matrix(1.00, 0.00, -0.00, -1.00, 277.6, 294.4)">S</text><text xml:space="preserve" font-family="Palatino-Roman,Palatino" font-size="24.0" fill="#FEFFFE" transform="matrix(1.00, 0.00, -0.00, -1.00, 290.2, 294.4)">V</text><text xml:space="preserve" font-family="Palatino-Roman,Palatino" font-size="24.0" fill="#FEFFFE" transform="matrix(1.00, 0.00, -0.00, -1.00, 305.8, 294.4)">-</text><text xml:space="preserve" font-family="Palatino-Roman,Palatino" font-size="24.0" fill="#FEFFFE" transform="matrix(1.00, 0.00, -0.00, -1.00, 313.7, 294.4)">l</text><text xml:space="preserve" font-family="Palatino-Roman,Palatino" font-size="24.0" fill="#FEFFFE" transform="matrix(1.00, 0.00, -0.00, -1.00, 320.7, 294.4)">i</text><text xml:space="preserve" font-family="Palatino-Roman,Palatino" font-size="24.0" fill="#FEFFFE" transform="matrix(1.00, 0.00, -0.00, -1.00, 327.7, 294.4)">b</text><text xml:space="preserve" font-family="Palatino-Roman,Palatino" font-size="24.0" fill="#FEFFFE" transform="matrix(1.00, 0.00, -0.00, -1.00, 341.0, 294.4)">s</text></g></g><g><clipPath id="clip0x6080056b75e0"><path d="M 20.0 387.0 L 466.0 387.0 L 466.0 342.0 L 20.0 342.0 Z M 20.3 386.9 "></path></clipPath><g clip-path="url(#clip0x6080056b75e0)"><path d="M 20.0 342.0 L 466.0 342.0 L 466.0 387.0 L 20.0 387.0 Z M 20.0 342.0 " fill="url(#patternP4)"></path></g></g><g><clipPath id="clip0x6080056b7940"><path d="M 16.7 341.3 L 469.7 341.3 L 469.7 386.9 L 16.7 386.9 Z M 16.7 341.3 "></path></clipPath><g clip-path="url(#clip0x6080056b7940)"><text xml:space="preserve" font-family="Palatino-Roman,Palatino" font-size="24.0" fill="#FFFFFF" transform="matrix(1.00, 0.00, -0.00, -1.00, 23.3, 354.6)">S</text><text xml:space="preserve" font-family="Palatino-Roman,Palatino" font-size="24.0" fill="#FFFFFF" transform="matrix(1.00, 0.00, -0.00, -1.00, 35.8, 354.6)">o</text><text xml:space="preserve" font-family="Palatino-Roman,Palatino" font-size="24.0" fill="#FFFFFF" transform="matrix(1.00, 0.00, -0.00, -1.00, 48.9, 354.6)">f</text><text xml:space="preserve" font-family="Palatino-Roman,Palatino" font-size="24.0" fill="#FFFFFF" transform="matrix(1.00, 0.00, -0.00, -1.00, 56.9, 354.6)">t</text><text xml:space="preserve" font-family="Palatino-Roman,Palatino" font-size="24.0" fill="#FFFFFF" transform="matrix(1.00, 0.00, -0.00, -1.00, 64.8, 354.6)">w</text><text xml:space="preserve" font-family="Palatino-Roman,Palatino" font-size="24.0" fill="#FFFFFF" transform="matrix(1.00, 0.00, -0.00, -1.00, 84.8, 354.6)">a</text><text xml:space="preserve" font-family="Palatino-Roman,Palatino" font-size="24.0" fill="#FFFFFF" transform="matrix(1.00, 0.00, -0.00, -1.00, 96.8, 354.6)">r</text><text xml:space="preserve" font-family="Palatino-Roman,Palatino" font-size="24.0" fill="#FFFFFF" transform="matrix(1.00, 0.00, -0.00, -1.00, 105.8, 354.6)">e</text><text xml:space="preserve" font-family="Palatino-Roman,Palatino" font-size="24.0" fill="#FFFFFF" transform="matrix(1.00, 0.00, -0.00, -1.00, 117.3, 354.6)">:</text><text xml:space="preserve" font-family="Palatino-Roman,Palatino" font-size="24.0" fill="#FFFFFF" transform="matrix(1.00, 0.00, -0.00, -1.00, 206.3, 354.6)">E</text><text xml:space="preserve" font-family="Palatino-Roman,Palatino" font-size="24.0" fill="#FFFFFF" transform="matrix(1.00, 0.00, -0.00, -1.00, 220.9, 354.6)">n</text><text xml:space="preserve" font-family="Palatino-Roman,Palatino" font-size="24.0" fill="#FFFFFF" transform="matrix(1.00, 0.00, -0.00, -1.00, 234.9, 354.6)">d</text><text xml:space="preserve" font-family="Palatino-Roman,Palatino" font-size="24.0" fill="#FFFFFF" transform="matrix(1.00, 0.00, -0.00, -1.00, 249.5, 354.6)"> </text><text xml:space="preserve" font-family="Palatino-Roman,Palatino" font-size="24.0" fill="#FFFFFF" transform="matrix(1.00, 0.00, -0.00, -1.00, 255.5, 354.6)">u</text><text xml:space="preserve" font-family="Palatino-Roman,Palatino" font-size="24.0" fill="#FFFFFF" transform="matrix(1.00, 0.00, -0.00, -1.00, 270.0, 354.6)">s</text><text xml:space="preserve" font-family="Palatino-Roman,Palatino" font-size="24.0" fill="#FFFFFF" transform="matrix(1.00, 0.00, -0.00, -1.00, 280.2, 354.6)">e</text><text xml:space="preserve" font-family="Palatino-Roman,Palatino" font-size="24.0" fill="#FFFFFF" transform="matrix(1.00, 0.00, -0.00, -1.00, 291.7, 354.6)">r</text><text xml:space="preserve" font-family="Palatino-Roman,Palatino" font-size="24.0" fill="#FFFFFF" transform="matrix(1.00, 0.00, -0.00, -1.00, 301.1, 354.6)"> </text><text xml:space="preserve" font-family="Palatino-Roman,Palatino" font-size="24.0" fill="#FFFFFF" transform="matrix(1.00, 0.00, -0.00, -1.00, 307.1, 354.6)">a</text><text xml:space="preserve" font-family="Palatino-Roman,Palatino" font-size="24.0" fill="#FFFFFF" transform="matrix(1.00, 0.00, -0.00, -1.00, 319.1, 354.6)">p</text><text xml:space="preserve" font-family="Palatino-Roman,Palatino" font-size="24.0" fill="#FFFFFF" transform="matrix(1.00, 0.00, -0.00, -1.00, 333.6, 354.6)">p</text><text xml:space="preserve" font-family="Palatino-Roman,Palatino" font-size="24.0" fill="#FFFFFF" transform="matrix(1.00, 0.00, -0.00, -1.00, 348.0, 354.6)">l</text><text xml:space="preserve" font-family="Palatino-Roman,Palatino" font-size="24.0" fill="#FFFFFF" transform="matrix(1.00, 0.00, -0.00, -1.00, 355.0, 354.6)">i</text><text xml:space="preserve" font-family="Palatino-Roman,Palatino" font-size="24.0" fill="#FFFFFF" transform="matrix(1.00, 0.00, -0.00, -1.00, 362.0, 354.6)">c</text><text xml:space="preserve" font-family="Palatino-Roman,Palatino" font-size="24.0" fill="#FFFFFF" transform="matrix(1.00, 0.00, -0.00, -1.00, 372.6, 354.6)">a</text><text xml:space="preserve" font-family="Palatino-Roman,Palatino" font-size="24.0" fill="#FFFFFF" transform="matrix(1.00, 0.00, -0.00, -1.00, 384.6, 354.6)">t</text><text xml:space="preserve" font-family="Palatino-Roman,Palatino" font-size="24.0" fill="#FFFFFF" transform="matrix(1.00, 0.00, -0.00, -1.00, 392.5, 354.6)">i</text><text xml:space="preserve" font-family="Palatino-Roman,Palatino" font-size="24.0" fill="#FFFFFF" transform="matrix(1.00, 0.00, -0.00, -1.00, 399.4, 354.6)">o</text><text xml:space="preserve" font-family="Palatino-Roman,Palatino" font-size="24.0" fill="#FFFFFF" transform="matrix(1.00, 0.00, -0.00, -1.00, 412.5, 354.6)">n</text></g></g><g><clipPath id="clip0x6080056b8600"><path d="M 20.0 450.0 L 466.0 450.0 L 466.0 405.0 L 20.0 405.0 Z M 20.3 449.7 "></path></clipPath><g clip-path="url(#clip0x6080056b8600)"><path d="M 20.0 405.0 L 466.0 405.0 L 466.0 450.0 L 20.0 450.0 Z M 20.0 405.0 " fill="url(#patternP5)"></path></g></g><g><clipPath id="clip0x6080056b8900"><path d="M 16.7 404.1 L 469.7 404.1 L 469.7 449.7 L 16.7 449.7 Z M 16.7 404.1 "></path></clipPath><g clip-path="url(#clip0x6080056b8900)"><text xml:space="preserve" font-family="Palatino-Roman,Palatino" font-size="24.0" fill="#FFFFFF" transform="matrix(1.00, 0.00, -0.00, -1.00, 23.3, 417.3)">E</text><text xml:space="preserve" font-family="Palatino-Roman,Palatino" font-size="24.0" fill="#FFFFFF" transform="matrix(1.00, 0.00, -0.00, -1.00, 37.9, 417.3)">x</text><text xml:space="preserve" font-family="Palatino-Roman,Palatino" font-size="24.0" fill="#FFFFFF" transform="matrix(1.00, 0.00, -0.00, -1.00, 50.3, 417.3)">c</text><text xml:space="preserve" font-family="Palatino-Roman,Palatino" font-size="24.0" fill="#FFFFFF" transform="matrix(1.00, 0.00, -0.00, -1.00, 60.9, 417.3)">e</text><text xml:space="preserve" font-family="Palatino-Roman,Palatino" font-size="24.0" fill="#FFFFFF" transform="matrix(1.00, 0.00, -0.00, -1.00, 72.4, 417.3)">l</text><text xml:space="preserve" font-family="Palatino-Roman,Palatino" font-size="24.0" fill="#FFFFFF" transform="matrix(1.00, 0.00, -0.00, -1.00, 79.4, 417.3)">:</text><text xml:space="preserve" font-family="Palatino-Roman,Palatino" font-size="24.0" fill="#FFFFFF" transform="matrix(1.00, 0.00, -0.00, -1.00, 200.2, 417.3)">K</text><text xml:space="preserve" font-family="Palatino-Roman,Palatino" font-size="24.0" fill="#FFFFFF" transform="matrix(1.00, 0.00, -0.00, -1.00, 217.7, 417.3)">P</text><text xml:space="preserve" font-family="Palatino-Roman,Palatino" font-size="24.0" fill="#FFFFFF" transform="matrix(1.00, 0.00, -0.00, -1.00, 232.2, 417.3)">I</text><text xml:space="preserve" font-family="Palatino-Roman,Palatino" font-size="24.0" fill="#FFFFFF" transform="matrix(1.00, 0.00, -0.00, -1.00, 240.3, 417.3)">,</text><text xml:space="preserve" font-family="Palatino-Roman,Palatino" font-size="24.0" fill="#FFFFFF" transform="matrix(1.00, 0.00, -0.00, -1.00, 246.3, 417.3)"> </text><text xml:space="preserve" font-family="Palatino-Roman,Palatino" font-size="24.0" fill="#FFFFFF" transform="matrix(1.00, 0.00, -0.00, -1.00, 252.3, 417.3)">S</text><text xml:space="preserve" font-family="Palatino-Roman,Palatino" font-size="24.0" fill="#FFFFFF" transform="matrix(1.00, 0.00, -0.00, -1.00, 264.8, 417.3)">L</text><text xml:space="preserve" font-family="Palatino-Roman,Palatino" font-size="24.0" fill="#FFFFFF" transform="matrix(1.00, 0.00, -0.00, -1.00, 279.5, 417.3)">A</text></g></g><g><clipPath id="clip0x6080056b9020"><path d="M 20.0 263.0 L 466.0 263.0 L 466.0 218.0 L 20.0 218.0 Z M 20.3 263.0 "></path></clipPath><g clip-path="url(#clip0x6080056b9020)"><path d="M 20.0 263.0 L 466.0 263.0 L 466.0 218.0 L 20.0 218.0 Z M 20.3 263.0 " fill="url(#gradSh1.17)"></path></g></g><image xlink:href="../../7C2A55CB-7573-4367-A759-6FF0CA913EB8/assets/BFDE31099B507EA2725C265626144586.png" width="437.00" height="30.00" transform="matrix(1.00, 0.00, -0.00, -1.00, 23.0, 250.0)"></image><g><clipPath id="clip0x6000036b9f80"><path d="M 16.5 213.5 L 473.6 213.5 L 473.6 263.0 L 16.5 263.0 Z M 16.5 213.5 "></path></clipPath><g clip-path="url(#clip0x6000036b9f80)"><text xml:space="preserve" font-family="Palatino-Roman,Palatino" font-size="24.0" fill="#FEFFFE" transform="matrix(1.00, 0.00, -0.00, -1.00, 23.3, 230.7)">S</text><text xml:space="preserve" font-family="Palatino-Roman,Palatino" font-size="24.0" fill="#FEFFFE" transform="matrix(1.00, 0.00, -0.00, -1.00, 35.8, 230.7)">e</text><text xml:space="preserve" font-family="Palatino-Roman,Palatino" font-size="24.0" fill="#FEFFFE" transform="matrix(1.00, 0.00, -0.00, -1.00, 47.3, 230.7)">r</text><text xml:space="preserve" font-family="Palatino-Roman,Palatino" font-size="24.0" fill="#FEFFFE" transform="matrix(1.00, 0.00, -0.00, -1.00, 56.8, 230.7)">v</text><text xml:space="preserve" font-family="Palatino-Roman,Palatino" font-size="24.0" fill="#FEFFFE" transform="matrix(1.00, 0.00, -0.00, -1.00, 70.4, 230.7)">i</text><text xml:space="preserve" font-family="Palatino-Roman,Palatino" font-size="24.0" fill="#FEFFFE" transform="matrix(1.00, 0.00, -0.00, -1.00, 77.4, 230.7)">c</text><text xml:space="preserve" font-family="Palatino-Roman,Palatino" font-size="24.0" fill="#FEFFFE" transform="matrix(1.00, 0.00, -0.00, -1.00, 88.0, 230.7)">e</text><text xml:space="preserve" font-family="Palatino-Roman,Palatino" font-size="24.0" fill="#FEFFFE" transform="matrix(1.00, 0.00, -0.00, -1.00, 99.5, 230.7)">s</text><text xml:space="preserve" font-family="Palatino-Roman,Palatino" font-size="24.0" fill="#FEFFFE" transform="matrix(1.00, 0.00, -0.00, -1.00, 109.7, 230.7)">:</text><text xml:space="preserve" font-family="Palatino-Roman,Palatino" font-size="24.0" fill="#FEFFFE" transform="matrix(1.00, 0.00, -0.00, -1.00, 206.2, 230.7)">S</text><text xml:space="preserve" font-family="Palatino-Roman,Palatino" font-size="24.0" fill="#FEFFFE" transform="matrix(1.00, 0.00, -0.00, -1.00, 218.8, 230.7)">t</text><text xml:space="preserve" font-family="Palatino-Roman,Palatino" font-size="24.0" fill="#FEFFFE" transform="matrix(1.00, 0.00, -0.00, -1.00, 226.7, 230.7)">o</text><text xml:space="preserve" font-family="Palatino-Roman,Palatino" font-size="24.0" fill="#FEFFFE" transform="matrix(1.00, 0.00, -0.00, -1.00, 239.8, 230.7)">r</text><text xml:space="preserve" font-family="Palatino-Roman,Palatino" font-size="24.0" fill="#FEFFFE" transform="matrix(1.00, 0.00, -0.00, -1.00, 249.2, 230.7)">a</text><text xml:space="preserve" font-family="Palatino-Roman,Palatino" font-size="24.0" fill="#FEFFFE" transform="matrix(1.00, 0.00, -0.00, -1.00, 261.2, 230.7)">g</text><text xml:space="preserve" font-family="Palatino-Roman,Palatino" font-size="24.0" fill="#FEFFFE" transform="matrix(1.00, 0.00, -0.00, -1.00, 274.6, 230.7)">e</text><text xml:space="preserve" font-family="Palatino-Roman,Palatino" font-size="24.0" fill="#FEFFFE" transform="matrix(1.00, 0.00, -0.00, -1.00, 286.1, 230.7)">,</text><text xml:space="preserve" font-family="Palatino-Roman,Palatino" font-size="24.0" fill="#FEFFFE" transform="matrix(1.00, 0.00, -0.00, -1.00, 292.1, 230.7)"> </text><text xml:space="preserve" font-family="Palatino-Roman,Palatino" font-size="24.0" fill="#FEFFFE" transform="matrix(1.00, 0.00, -0.00, -1.00, 298.1, 230.7)">J</text><text xml:space="preserve" font-family="Palatino-Roman,Palatino" font-size="24.0" fill="#FEFFFE" transform="matrix(1.00, 0.00, -0.00, -1.00, 306.1, 230.7)">o</text><text xml:space="preserve" font-family="Palatino-Roman,Palatino" font-size="24.0" fill="#FEFFFE" transform="matrix(1.00, 0.00, -0.00, -1.00, 319.2, 230.7)">b</text><text xml:space="preserve" font-family="Palatino-Roman,Palatino" font-size="24.0" fill="#FEFFFE" transform="matrix(1.00, 0.00, -0.00, -1.00, 332.5, 230.7)"> </text><text xml:space="preserve" font-family="Palatino-Roman,Palatino" font-size="24.0" fill="#FEFFFE" transform="matrix(1.00, 0.00, -0.00, -1.00, 338.5, 230.7)">S</text><text xml:space="preserve" font-family="Palatino-Roman,Palatino" font-size="24.0" fill="#FEFFFE" transform="matrix(1.00, 0.00, -0.00, -1.00, 351.1, 230.7)">c</text><text xml:space="preserve" font-family="Palatino-Roman,Palatino" font-size="24.0" fill="#FEFFFE" transform="matrix(1.00, 0.00, -0.00, -1.00, 361.7, 230.7)">h</text><text xml:space="preserve" font-family="Palatino-Roman,Palatino" font-size="24.0" fill="#FEFFFE" transform="matrix(1.00, 0.00, -0.00, -1.00, 375.7, 230.7)">e</text><text xml:space="preserve" font-family="Palatino-Roman,Palatino" font-size="24.0" fill="#FEFFFE" transform="matrix(1.00, 0.00, -0.00, -1.00, 387.2, 230.7)">d</text><text xml:space="preserve" font-family="Palatino-Roman,Palatino" font-size="24.0" fill="#FEFFFE" transform="matrix(1.00, 0.00, -0.00, -1.00, 401.8, 230.7)">u</text><text xml:space="preserve" font-family="Palatino-Roman,Palatino" font-size="24.0" fill="#FEFFFE" transform="matrix(1.00, 0.00, -0.00, -1.00, 416.3, 230.7)">l</text><text xml:space="preserve" font-family="Palatino-Roman,Palatino" font-size="24.0" fill="#FEFFFE" transform="matrix(1.00, 0.00, -0.00, -1.00, 423.3, 230.7)">e</text><text xml:space="preserve" font-family="Palatino-Roman,Palatino" font-size="24.0" fill="#FEFFFE" transform="matrix(1.00, 0.00, -0.00, -1.00, 434.8, 230.7)">r</text></g></g></g></svg>