<?xml version="1.0" encoding="UTF-8" standalone="no"?><svg xmlns="http://www.w3.org/2000/svg" xmlns:xlink="http://www.w3.org/1999/xlink" clip-rule="evenodd" stroke-miterlimit="10" viewBox="0 0 143 45"><desc>SVG generated by Keynote</desc><defs></defs><g transform="matrix(1.00, 0.00, -0.00, -1.00, 0.0, 45.0)"><image xlink:href="A0AD6C81B1347017F72701BCAC617A9B.png" width="139.00" height="38.00" transform="matrix(1.00, 0.00, -0.00, -0.99, 1.9, 39.6)" opacity="0.50"></image><g><clipPath id="clip0x600005cb6e60"><path d="M 4.9 22.0 L 5.0 23.6 C 5.0 31.9 11.6 39.0 19.9 39.0 L 123.2 39.0 C 131.5 39.0 138.0 31.9 138.0 23.6 L 138.0 22.0 C 138.0 13.7 131.5 7.0 123.2 7.0 L 19.9 7.0 C 11.6 7.0 4.9 13.7 4.9 22.0 Z M 4.9 22.0 "></path></clipPath><g clip-path="url(#clip0x600005cb6e60)"><image xlink:href="../../388AC461-A37F-4D13-9E58-D44EF987A297/assets/79559B53344726561A56900E5F7EFED3.png" width="600.00" height="600.00" transform="matrix(0.50, 0.00, -0.00, -0.50, 4.9, 39.0)"></image></g></g><g><clipPath id="clip0x600005cb7460"><path d="M 4.9 7.0 L 138.2 7.0 L 138.2 38.6 L 4.9 38.6 Z M 4.9 7.0 "></path></clipPath><g clip-path="url(#clip0x600005cb7460)"><text xml:space="preserve" font-family="Helvetica-Bold,Helvetica" font-weight="bold" font-size="16.0" fill="#FEFFFE" transform="matrix(1.00, 0.00, -0.00, -1.00, 44.8, 16.3)">s</text><text xml:space="preserve" font-family="Helvetica-Bold,Helvetica" font-weight="bold" font-size="16.0" fill="#FEFFFE" transform="matrix(1.00, 0.00, -0.00, -1.00, 53.7, 16.3)">l</text><text xml:space="preserve" font-family="Helvetica-Bold,Helvetica" font-weight="bold" font-size="16.0" fill="#FEFFFE" transform="matrix(1.00, 0.00, -0.00, -1.00, 58.2, 16.3)">u</text><text xml:space="preserve" font-family="Helvetica-Bold,Helvetica" font-weight="bold" font-size="16.0" fill="#FEFFFE" transform="matrix(1.00, 0.00, -0.00, -1.00, 68.0, 16.3)">r</text><text xml:space="preserve" font-family="Helvetica-Bold,Helvetica" font-weight="bold" font-size="16.0" fill="#FEFFFE" transform="matrix(1.00, 0.00, -0.00, -1.00, 74.2, 16.3)">m</text><text xml:space="preserve" font-family="Helvetica-Bold,Helvetica" font-weight="bold" font-size="16.0" fill="#FEFFFE" transform="matrix(1.00, 0.00, -0.00, -1.00, 88.4, 16.3)">d</text></g></g></g></svg>