<?xml version="1.0" encoding="UTF-8" standalone="no"?><svg xmlns="http://www.w3.org/2000/svg" xmlns:xlink="http://www.w3.org/1999/xlink" clip-rule="evenodd" stroke-miterlimit="10" viewBox="0 0 272 50"><desc>SVG generated by Keynote</desc><defs></defs><g transform="matrix(1.00, 0.00, -0.00, -1.00, 0.0, 50.0)"><image xlink:href="6CE3AADC7A758CA5256672C12C07BAA8.png" width="269.00" height="44.00" transform="matrix(1.00, 0.00, -0.00, -0.99, 1.7, 44.8)" opacity="0.50"></image><g><clipPath id="clip0x600005cb1460"><path d="M 5.0 44.0 L 267.0 44.0 L 267.0 6.0 L 5.0 6.0 Z M 4.7 43.8 "></path></clipPath><g clip-path="url(#clip0x600005cb1460)"><image xlink:href="../../2B0449AA-8DFE-49EE-B5C9-C307EBCB8C1F/assets/8571D34485008A2B4E76C6C919FEC199.png" width="600.00" height="600.00" transform="matrix(0.50, 0.00, -0.00, -0.50, 5.0, 44.0)"></image></g></g><g><clipPath id="clip0x6080080b5720"><path d="M 4.2 6.2 L 267.8 6.2 L 267.8 43.8 L 4.2 43.8 Z M 4.2 6.2 "></path></clipPath><g clip-path="url(#clip0x6080080b5720)"><text xml:space="preserve" font-family="Helvetica-Bold,Helvetica" font-weight="bold" font-size="18.0" fill="#FEFFFE" transform="matrix(1.00, 0.00, -0.00, -1.00, 203.3, 18.0)">c</text><text xml:space="preserve" font-family="Helvetica-Bold,Helvetica" font-weight="bold" font-size="18.0" fill="#FEFFFE" transform="matrix(1.00, 0.00, -0.00, -1.00, 213.3, 18.0)">a</text><text xml:space="preserve" font-family="Helvetica-Bold,Helvetica" font-weight="bold" font-size="18.0" fill="#FEFFFE" transform="matrix(1.00, 0.00, -0.00, -1.00, 223.3, 18.0)">r</text><text xml:space="preserve" font-family="Helvetica-Bold,Helvetica" font-weight="bold" font-size="18.0" fill="#FEFFFE" transform="matrix(1.00, 0.00, -0.00, -1.00, 230.3, 18.0)">b</text><text xml:space="preserve" font-family="Helvetica-Bold,Helvetica" font-weight="bold" font-size="18.0" fill="#FEFFFE" transform="matrix(1.00, 0.00, -0.00, -1.00, 241.3, 18.0)">o</text><text xml:space="preserve" font-family="Helvetica-Bold,Helvetica" font-weight="bold" font-size="18.0" fill="#FEFFFE" transform="matrix(1.00, 0.00, -0.00, -1.00, 252.3, 18.0)">n</text></g></g></g></svg>