<?xml version="1.0" encoding="UTF-8" standalone="no"?><svg xmlns="http://www.w3.org/2000/svg" xmlns:xlink="http://www.w3.org/1999/xlink" clip-rule="evenodd" stroke-miterlimit="10" viewBox="0 0 112 32"><desc>SVG generated by Keynote</desc><defs></defs><g transform="matrix(1.00, 0.00, -0.00, -1.00, 0.0, 32.0)"><path d="M 2.0 30.0 L 111.0 30.0 L 111.0 1.0 L 2.0 1.0 Z M 2.0 30.2 " fill="#FFC400"></path><g><clipPath id="clip0x600005cb7ca0"><path d="M 0.7 -0.1 L 111.9 -0.1 L 111.9 31.5 L 0.7 31.5 Z M 0.7 -0.1 "></path></clipPath><g clip-path="url(#clip0x600005cb7ca0)"><text xml:space="preserve" font-family=".LucidaGrandeUI,.Lucida Grande UI" font-size="18.0" fill="#363636" transform="matrix(1.00, 0.00, -0.00, -1.00, 9.2, 9.0)">L</text><text xml:space="preserve" font-family=".LucidaGrandeUI,.Lucida Grande UI" font-size="18.0" fill="#363636" transform="matrix(1.00, 0.00, -0.00, -1.00, 18.6, 9.0)">o</text><text xml:space="preserve" font-family=".LucidaGrandeUI,.Lucida Grande UI" font-size="18.0" fill="#363636" transform="matrix(1.00, 0.00, -0.00, -1.00, 29.6, 9.0)">g</text><text xml:space="preserve" font-family=".LucidaGrandeUI,.Lucida Grande UI" font-size="18.0" fill="#363636" transform="matrix(1.00, 0.00, -0.00, -1.00, 40.9, 9.0)">/</text><text xml:space="preserve" font-family=".LucidaGrandeUI,.Lucida Grande UI" font-size="18.0" fill="#363636" transform="matrix(1.00, 0.00, -0.00, -1.00, 50.3, 9.0)">E</text><text xml:space="preserve" font-family=".LucidaGrandeUI,.Lucida Grande UI" font-size="18.0" fill="#363636" transform="matrix(1.00, 0.00, -0.00, -1.00, 60.1, 9.0)">v</text><text xml:space="preserve" font-family=".LucidaGrandeUI,.Lucida Grande UI" font-size="18.0" fill="#363636" transform="matrix(1.00, 0.00, -0.00, -1.00, 69.3, 9.0)">e</text><text xml:space="preserve" font-family=".LucidaGrandeUI,.Lucida Grande UI" font-size="18.0" fill="#363636" transform="matrix(1.00, 0.00, -0.00, -1.00, 79.4, 9.0)">n</text><text xml:space="preserve" font-family=".LucidaGrandeUI,.Lucida Grande UI" font-size="18.0" fill="#363636" transform="matrix(1.00, 0.00, -0.00, -1.00, 90.5, 9.0)">t</text><text xml:space="preserve" font-family=".LucidaGrandeUI,.Lucida Grande UI" font-size="18.0" fill="#363636" transform="matrix(1.00, 0.00, -0.00, -1.00, 97.2, 9.0)">s</text></g></g></g></svg>