<?xml version="1.0" encoding="UTF-8" standalone="no"?><svg xmlns="http://www.w3.org/2000/svg" xmlns:xlink="http://www.w3.org/1999/xlink" clip-rule="evenodd" stroke-miterlimit="10" viewBox="0 0 143 45"><desc>SVG generated by Keynote</desc><defs></defs><g transform="matrix(1.00, 0.00, -0.00, -1.00, 0.0, 45.0)"><image xlink:href="8088AE241F04FCFDF56AD902E9355442.png" width="139.00" height="38.00" transform="matrix(1.00, 0.00, -0.00, -0.99, 1.8, 39.2)" opacity="0.50"></image><g><clipPath id="clip0x600005cb0680"><path d="M 4.8 21.6 L 5.0 23.2 C 5.0 31.5 11.5 38.0 19.8 38.0 L 123.1 38.0 C 131.4 38.0 138.0 31.5 138.0 23.2 L 138.0 21.6 C 138.0 13.3 131.4 7.0 123.1 7.0 L 19.8 7.0 C 11.5 7.0 4.8 13.3 4.8 21.6 Z M 4.8 21.6 "></path></clipPath><g clip-path="url(#clip0x600005cb0680)"><image xlink:href="../../388AC461-A37F-4D13-9E58-D44EF987A297/assets/79559B53344726561A56900E5F7EFED3.png" width="600.00" height="600.00" transform="matrix(0.50, 0.00, -0.00, -0.50, 4.8, 38.0)"></image></g></g><g><clipPath id="clip0x600005cb06e0"><path d="M 4.8 6.6 L 138.1 6.6 L 138.1 38.2 L 4.8 38.2 Z M 4.8 6.6 "></path></clipPath><g clip-path="url(#clip0x600005cb06e0)"><text xml:space="preserve" font-family="Helvetica-Bold,Helvetica" font-weight="bold" font-size="16.0" fill="#FEFFFE" transform="matrix(1.00, 0.00, -0.00, -1.00, 38.6, 15.9)">l</text><text xml:space="preserve" font-family="Helvetica-Bold,Helvetica" font-weight="bold" font-size="16.0" fill="#FEFFFE" transform="matrix(1.00, 0.00, -0.00, -1.00, 43.0, 15.9)">o</text><text xml:space="preserve" font-family="Helvetica-Bold,Helvetica" font-weight="bold" font-size="16.0" fill="#FEFFFE" transform="matrix(1.00, 0.00, -0.00, -1.00, 52.8, 15.9)">g</text><text xml:space="preserve" font-family="Helvetica-Bold,Helvetica" font-weight="bold" font-size="16.0" fill="#FEFFFE" transform="matrix(1.00, 0.00, -0.00, -1.00, 62.6, 15.9)">s</text><text xml:space="preserve" font-family="Helvetica-Bold,Helvetica" font-weight="bold" font-size="16.0" fill="#FEFFFE" transform="matrix(1.00, 0.00, -0.00, -1.00, 71.5, 15.9)">t</text><text xml:space="preserve" font-family="Helvetica-Bold,Helvetica" font-weight="bold" font-size="16.0" fill="#FEFFFE" transform="matrix(1.00, 0.00, -0.00, -1.00, 76.8, 15.9)">a</text><text xml:space="preserve" font-family="Helvetica-Bold,Helvetica" font-weight="bold" font-size="16.0" fill="#FEFFFE" transform="matrix(1.00, 0.00, -0.00, -1.00, 85.7, 15.9)">s</text><text xml:space="preserve" font-family="Helvetica-Bold,Helvetica" font-weight="bold" font-size="16.0" fill="#FEFFFE" transform="matrix(1.00, 0.00, -0.00, -1.00, 94.6, 15.9)">h</text></g></g></g></svg>