<?xml version="1.0" encoding="UTF-8" standalone="no"?><svg xmlns="http://www.w3.org/2000/svg" xmlns:xlink="http://www.w3.org/1999/xlink" clip-rule="evenodd" stroke-miterlimit="10" viewBox="0 0 272 87"><desc>SVG generated by Keynote</desc><defs></defs><g transform="matrix(1.00, 0.00, -0.00, -1.00, 0.0, 87.0)"><image xlink:href="../../2B0449AA-8DFE-49EE-B5C9-C307EBCB8C1F/assets/32DA73B567D263B3C455993467BA3A56.png" width="269.00" height="80.00" transform="matrix(1.00, 0.00, -0.00, -1.00, 1.7, 81.5)" opacity="0.50"></image><g><clipPath id="clip0x6080080b31a0"><path d="M 5.0 80.0 L 267.0 80.0 L 267.0 7.0 L 5.0 7.0 Z M 4.7 80.5 "></path></clipPath><g clip-path="url(#clip0x6080080b31a0)"><image xlink:href="../../2B0449AA-8DFE-49EE-B5C9-C307EBCB8C1F/assets/8571D34485008A2B4E76C6C919FEC199.png" width="600.00" height="600.00" transform="matrix(0.50, 0.00, -0.00, -0.50, 5.0, 80.0)"></image></g></g><g><clipPath id="clip0x600005caf0c0"><path d="M 4.2 6.7 L 267.8 6.7 L 267.8 80.5 L 4.2 80.5 Z M 4.2 6.7 "></path></clipPath><g clip-path="url(#clip0x600005caf0c0)"><text xml:space="preserve" font-family="Helvetica-Bold,Helvetica" font-weight="bold" font-size="18.0" fill="#FEFFFE" transform="matrix(1.00, 0.00, -0.00, -1.00, 8.7, 36.6)">d</text><text xml:space="preserve" font-family="Helvetica-Bold,Helvetica" font-weight="bold" font-size="18.0" fill="#FEFFFE" transform="matrix(1.00, 0.00, -0.00, -1.00, 19.7, 36.6)">n</text><text xml:space="preserve" font-family="Helvetica-Bold,Helvetica" font-weight="bold" font-size="18.0" fill="#FEFFFE" transform="matrix(1.00, 0.00, -0.00, -1.00, 30.7, 36.6)">s</text></g></g></g></svg>