<?xml version="1.0" encoding="UTF-8" standalone="no"?><svg xmlns="http://www.w3.org/2000/svg" xmlns:xlink="http://www.w3.org/1999/xlink" clip-rule="evenodd" stroke-miterlimit="10" viewBox="0 0 143 44"><desc>SVG generated by Keynote</desc><defs></defs><g transform="matrix(1.00, 0.00, -0.00, -1.00, 0.0, 44.0)"><image xlink:href="../../2B0449AA-8DFE-49EE-B5C9-C307EBCB8C1F/assets/FCC9D6CEAF69A271BAA1ECD61BFDF16F.png" width="139.00" height="38.00" transform="matrix(1.00, 0.00, -0.00, -0.99, 1.8, 38.8)" opacity="0.50"></image><g><clipPath id="clip0x600005cae700"><path d="M 4.8 21.2 L 5.0 22.8 C 5.0 31.1 11.5 38.0 19.8 38.0 L 123.1 38.0 C 131.4 38.0 138.0 31.1 138.0 22.8 L 138.0 21.2 C 138.0 12.9 131.4 6.0 123.1 6.0 L 19.8 6.0 C 11.5 6.0 4.8 12.9 4.8 21.2 Z M 4.8 21.2 "></path></clipPath><g clip-path="url(#clip0x600005cae700)"><image xlink:href="../../388AC461-A37F-4D13-9E58-D44EF987A297/assets/79559B53344726561A56900E5F7EFED3.png" width="600.00" height="600.00" transform="matrix(0.50, 0.00, -0.00, -0.50, 4.8, 38.0)"></image></g></g><g><clipPath id="clip0x600005cae9a0"><path d="M 4.8 6.2 L 138.1 6.2 L 138.1 37.8 L 4.8 37.8 Z M 4.8 6.2 "></path></clipPath><g clip-path="url(#clip0x600005cae9a0)"><text xml:space="preserve" font-family="Helvetica-Bold,Helvetica" font-weight="bold" font-size="16.0" fill="#FEFFFE" transform="matrix(1.00, 0.00, -0.00, -1.00, 40.4, 15.5)">h</text><text xml:space="preserve" font-family="Helvetica-Bold,Helvetica" font-weight="bold" font-size="16.0" fill="#FEFFFE" transform="matrix(1.00, 0.00, -0.00, -1.00, 50.1, 15.5)">a</text><text xml:space="preserve" font-family="Helvetica-Bold,Helvetica" font-weight="bold" font-size="16.0" fill="#FEFFFE" transform="matrix(1.00, 0.00, -0.00, -1.00, 59.0, 15.5)">p</text><text xml:space="preserve" font-family="Helvetica-Bold,Helvetica" font-weight="bold" font-size="16.0" fill="#FEFFFE" transform="matrix(1.00, 0.00, -0.00, -1.00, 68.8, 15.5)">r</text><text xml:space="preserve" font-family="Helvetica-Bold,Helvetica" font-weight="bold" font-size="16.0" fill="#FEFFFE" transform="matrix(1.00, 0.00, -0.00, -1.00, 75.0, 15.5)">o</text><text xml:space="preserve" font-family="Helvetica-Bold,Helvetica" font-weight="bold" font-size="16.0" fill="#FEFFFE" transform="matrix(1.00, 0.00, -0.00, -1.00, 84.8, 15.5)">x</text><text xml:space="preserve" font-family="Helvetica-Bold,Helvetica" font-weight="bold" font-size="16.0" fill="#FEFFFE" transform="matrix(1.00, 0.00, -0.00, -1.00, 93.7, 15.5)">y</text></g></g></g></svg>