<?xml version="1.0" encoding="UTF-8" standalone="no"?><svg xmlns="http://www.w3.org/2000/svg" xmlns:xlink="http://www.w3.org/1999/xlink" clip-rule="evenodd" stroke-miterlimit="10" viewBox="0 0 272 122"><desc>SVG generated by Keynote</desc><defs></defs><g transform="matrix(1.00, 0.00, -0.00, -1.00, 0.0, 122.0)"><image xlink:href="1E059DB1C749215EB91848C7FAD04CF2.png" width="269.00" height="114.00" transform="matrix(1.00, 0.00, -0.00, -1.00, 1.7, 116.4)" opacity="0.50"></image><g><clipPath id="clip0x6080080b3980"><path d="M 5.0 115.0 L 267.0 115.0 L 267.0 7.0 L 5.0 7.0 Z M 4.7 115.4 "></path></clipPath><g clip-path="url(#clip0x6080080b3980)"><image xlink:href="../../2B0449AA-8DFE-49EE-B5C9-C307EBCB8C1F/assets/8571D34485008A2B4E76C6C919FEC199.png" width="600.00" height="600.00" transform="matrix(0.50, 0.00, -0.00, -0.50, 5.0, 115.0)"></image></g></g><g><clipPath id="clip0x6080080b3da0"><path d="M 4.2 6.9 L 267.8 6.9 L 267.8 115.4 L 4.2 115.4 Z M 4.2 6.9 "></path></clipPath><g clip-path="url(#clip0x6080080b3da0)"><text xml:space="preserve" font-family="Helvetica-Bold,Helvetica" font-weight="bold" font-size="18.0" fill="#FEFFFE" transform="matrix(1.00, 0.00, -0.00, -1.00, 8.7, 54.5)">e</text><text xml:space="preserve" font-family="Helvetica-Bold,Helvetica" font-weight="bold" font-size="18.0" fill="#FEFFFE" transform="matrix(1.00, 0.00, -0.00, -1.00, 18.7, 54.5)">l</text><text xml:space="preserve" font-family="Helvetica-Bold,Helvetica" font-weight="bold" font-size="18.0" fill="#FEFFFE" transform="matrix(1.00, 0.00, -0.00, -1.00, 23.7, 54.5)">k</text></g></g></g></svg>