<?xml version="1.0" encoding="UTF-8" standalone="no"?><svg xmlns="http://www.w3.org/2000/svg" xmlns:xlink="http://www.w3.org/1999/xlink" clip-rule="evenodd" stroke-miterlimit="10" viewBox="0 0 720 540"><desc>SVG generated by Keynote</desc><defs></defs><g transform="matrix(1.00, 0.00, -0.00, -1.00, 0.0, 540.0)"><path d="M 0.0 540.0 L 720.0 540.0 L 720.0 0.0 L 0.0 0.0 Z M 0.0 540.0 " fill="#FEFFFF"></path><path d="M 0.5 -0.2 L 606.5 -0.2 " fill="none" stroke="#949EAF" stroke-width="2.00" transform="matrix(1.00, 0.00, 0.00, -1.00, 0.5, 482.8)"></path><g><clipPath id="clip0x600000eba940"><path d="M 626.4 503.1 L 720.9 503.1 L 720.9 506.8 L 626.4 506.8 Z M 626.4 503.1 "></path></clipPath><g clip-path="url(#clip0x600000eba940)"><path d="M -0.4 0.0 L 92.6 0.0 " fill="none" stroke="#949EAF" stroke-width="2.00" transform="matrix(1.00, 0.00, 0.00, -1.00, 627.4, 505.0)"></path></g></g><g><clipPath id="clip0x600000ebab80"><path d="M 604.7 480.7 L 629.1 480.7 L 629.1 506.9 L 604.7 506.9 Z M 604.7 480.7 "></path></clipPath><g clip-path="url(#clip0x600000ebab80)"><path d="M 0.0 23.1 L 21.2 0.0 " fill="none" stroke="#949EAF" stroke-width="2.00" transform="matrix(1.00, 0.00, 0.00, -1.00, 606.2, 505.4)"></path></g></g><text xml:space="preserve" font-family=".LucidaGrandeUI,.Lucida Grande UI" font-size="10.0" fill="#363636" transform="matrix(1.00, 0.00, -0.00, -1.00, 13.5, 9.1)">©</text><text xml:space="preserve" font-family=".LucidaGrandeUI,.Lucida Grande UI" font-size="10.0" fill="#363636" transform="matrix(1.00, 0.00, -0.00, -1.00, 22.0, 9.1)">B</text><text xml:space="preserve" font-family=".LucidaGrandeUI,.Lucida Grande UI" font-size="10.0" fill="#363636" transform="matrix(1.00, 0.00, -0.00, -1.00, 27.8, 9.1)">u</text><text xml:space="preserve" font-family=".LucidaGrandeUI,.Lucida Grande UI" font-size="10.0" fill="#363636" transform="matrix(1.00, 0.00, -0.00, -1.00, 34.0, 9.1)">l</text><text xml:space="preserve" font-family=".LucidaGrandeUI,.Lucida Grande UI" font-size="10.0" fill="#363636" transform="matrix(1.00, 0.00, -0.00, -1.00, 36.9, 9.1)">l</text><text xml:space="preserve" font-family=".LucidaGrandeUI,.Lucida Grande UI" font-size="10.0" fill="#363636" transform="matrix(1.00, 0.00, -0.00, -1.00, 39.8, 9.1)"> </text><text xml:space="preserve" font-family=".LucidaGrandeUI,.Lucida Grande UI" font-size="10.0" fill="#363636" transform="matrix(1.00, 0.00, -0.00, -1.00, 42.9, 9.1)">2</text><text xml:space="preserve" font-family=".LucidaGrandeUI,.Lucida Grande UI" font-size="10.0" fill="#363636" transform="matrix(1.00, 0.00, -0.00, -1.00, 49.3, 9.1)">0</text><text xml:space="preserve" font-family=".LucidaGrandeUI,.Lucida Grande UI" font-size="10.0" fill="#363636" transform="matrix(1.00, 0.00, -0.00, -1.00, 55.6, 9.1)">1</text><text xml:space="preserve" font-family=".LucidaGrandeUI,.Lucida Grande UI" font-size="10.0" fill="#363636" transform="matrix(1.00, 0.00, -0.00, -1.00, 61.9, 9.1)">2</text><image xlink:href="../../A4063FD5-B779-41FD-8855-808A6BAE2DA9/assets/A1F3D51227235751F4E0EAB7AAE7FA3C.jpeg" width="1766.00" height="1323.00" transform="matrix(0.41, 0.00, -0.00, -0.41, 0.0, 540.0)"></image><image xlink:href="../../A4063FD5-B779-41FD-8855-808A6BAE2DA9/assets/A1F3D51227235751F4E0EAB7AAE7FA3C.jpeg" width="1766.00" height="1323.00" transform="matrix(0.41, 0.00, -0.00, -0.41, 0.0, 540.0)"></image><g><clipPath id="clip0x6080010a16e0"><path d="M -0.4 487.7 L 607.4 487.7 L 607.4 492.1 L -0.4 492.1 Z M -0.4 487.7 "></path></clipPath><g clip-path="url(#clip0x6080010a16e0)"><path d="M 0.4 0.4 L 605.4 1.4 " fill="none" stroke="#949EAF" stroke-width="2.00" transform="matrix(1.00, 0.00, 0.00, -1.00, 0.6, 490.4)"></path></g></g><g><clipPath id="clip0x608000ebde80"><path d="M 626.4 510.4 L 720.9 510.4 L 720.9 514.0 L 626.4 514.0 Z M 626.4 510.4 "></path></clipPath><g clip-path="url(#clip0x608000ebde80)"><path d="M -0.4 0.2 L 92.6 0.2 " fill="none" stroke="#949EAF" stroke-width="2.00" transform="matrix(1.00, 0.00, 0.00, -1.00, 627.4, 512.2)"></path></g></g><g><clipPath id="clip0x608000ebe120"><path d="M 604.7 487.9 L 629.1 487.9 L 629.1 514.1 L 604.7 514.1 Z M 604.7 487.9 "></path></clipPath><g clip-path="url(#clip0x608000ebe120)"><path d="M 0.0 23.2 L 21.2 0.0 " fill="none" stroke="#949EAF" stroke-width="2.00" transform="matrix(1.00, 0.00, 0.00, -1.00, 606.2, 512.6)"></path></g></g><path d="M 0.0 0.6 L 452.0 -0.4 " fill="none" stroke="#949EAF" stroke-width="2.00" transform="matrix(1.00, 0.00, 0.00, -1.00, 0.0, 231.6)"></path><path d="M -0.4 0.4 L 211.6 0.4 " fill="none" stroke="#949EAF" stroke-width="2.00" transform="matrix(1.00, 0.00, 0.00, -1.00, 508.4, 176.4)"></path><path d="M 0.0 0.0 L 56.4 55.1 " fill="none" stroke="#949EAF" stroke-width="2.00" transform="matrix(1.00, 0.00, 0.00, -1.00, 452.2, 231.5)"></path><g><clipPath id="clip0x608000ebe4e0"><path d="M 554.0 263.0 L 680.0 263.0 L 680.0 188.0 L 554.0 188.0 Z M 554.0 262.8 "></path></clipPath><g clip-path="url(#clip0x608000ebe4e0)"><image xlink:href="../../FCC51B89-ACAE-44EC-8753-17F89CE58E5C/assets/4BE265A88237E82DFD763332F58FE3AB.jpeg" width="1000.00" height="1000.00" transform="matrix(0.17, 0.00, -0.00, -0.17, 528.4, 309.3)"></image></g></g><g><clipPath id="clip0x608000ebe600"><path d="M -0.4 487.7 L 607.4 487.7 L 607.4 492.1 L -0.4 492.1 Z M -0.4 487.7 "></path></clipPath><g clip-path="url(#clip0x608000ebe600)"><path d="M 0.4 0.4 L 605.4 1.4 " fill="none" stroke="#949EAF" stroke-width="2.00" transform="matrix(1.00, 0.00, 0.00, -1.00, 0.6, 490.4)"></path></g></g><g><clipPath id="clip0x608000ebea20"><path d="M 626.4 510.4 L 720.9 510.4 L 720.9 514.0 L 626.4 514.0 Z M 626.4 510.4 "></path></clipPath><g clip-path="url(#clip0x608000ebea20)"><path d="M -0.4 0.2 L 92.6 0.2 " fill="none" stroke="#949EAF" stroke-width="2.00" transform="matrix(1.00, 0.00, 0.00, -1.00, 627.4, 512.2)"></path></g></g><g><clipPath id="clip0x608000ebec60"><path d="M 604.7 487.9 L 629.1 487.9 L 629.1 514.1 L 604.7 514.1 Z M 604.7 487.9 "></path></clipPath><g clip-path="url(#clip0x608000ebec60)"><path d="M 0.0 23.2 L 21.2 0.0 " fill="none" stroke="#949EAF" stroke-width="2.00" transform="matrix(1.00, 0.00, 0.00, -1.00, 606.2, 512.6)"></path></g></g><path d="M 0.0 0.6 L 452.0 -0.4 " fill="none" stroke="#949EAF" stroke-width="2.00" transform="matrix(1.00, 0.00, 0.00, -1.00, 0.0, 231.6)"></path><path d="M -0.4 0.4 L 211.6 0.4 " fill="none" stroke="#949EAF" stroke-width="2.00" transform="matrix(1.00, 0.00, 0.00, -1.00, 508.4, 176.4)"></path><path d="M 0.0 0.0 L 56.4 55.1 " fill="none" stroke="#949EAF" stroke-width="2.00" transform="matrix(1.00, 0.00, 0.00, -1.00, 452.2, 231.5)"></path><g><clipPath id="clip0x608000ebf020"><path d="M 554.0 263.0 L 680.0 263.0 L 680.0 188.0 L 554.0 188.0 Z M 554.0 262.8 "></path></clipPath><g clip-path="url(#clip0x608000ebf020)"><image xlink:href="../../FCC51B89-ACAE-44EC-8753-17F89CE58E5C/assets/4BE265A88237E82DFD763332F58FE3AB.jpeg" width="1000.00" height="1000.00" transform="matrix(0.17, 0.00, -0.00, -0.17, 528.4, 309.3)"></image></g></g><text xml:space="preserve" font-family=".LucidaGrandeUI,.Lucida Grande UI" font-size="32.0" fill="#424242" transform="matrix(1.00, 0.00, -0.00, -1.00, 15.1, 359.6)">H</text><text xml:space="preserve" font-family=".LucidaGrandeUI,.Lucida Grande UI" font-size="32.0" fill="#424242" transform="matrix(1.00, 0.00, -0.00, -1.00, 38.6, 359.6)">P</text><text xml:space="preserve" font-family=".LucidaGrandeUI,.Lucida Grande UI" font-size="32.0" fill="#424242" transform="matrix(1.00, 0.00, -0.00, -1.00, 56.3, 359.6)">C</text><text xml:space="preserve" font-family=".LucidaGrandeUI,.Lucida Grande UI" font-size="32.0" fill="#424242" transform="matrix(1.00, 0.00, -0.00, -1.00, 78.4, 359.6)"> </text><text xml:space="preserve" font-family=".LucidaGrandeUI,.Lucida Grande UI" font-size="32.0" fill="#424242" transform="matrix(1.00, 0.00, -0.00, -1.00, 88.6, 359.6)">C</text><text xml:space="preserve" font-family=".LucidaGrandeUI,.Lucida Grande UI" font-size="32.0" fill="#424242" transform="matrix(1.00, 0.00, -0.00, -1.00, 110.7, 359.6)">l</text><text xml:space="preserve" font-family=".LucidaGrandeUI,.Lucida Grande UI" font-size="32.0" fill="#424242" transform="matrix(1.00, 0.00, -0.00, -1.00, 119.9, 359.6)">u</text><text xml:space="preserve" font-family=".LucidaGrandeUI,.Lucida Grande UI" font-size="32.0" fill="#424242" transform="matrix(1.00, 0.00, -0.00, -1.00, 139.8, 359.6)">s</text><text xml:space="preserve" font-family=".LucidaGrandeUI,.Lucida Grande UI" font-size="32.0" fill="#424242" transform="matrix(1.00, 0.00, -0.00, -1.00, 154.6, 359.6)">t</text><text xml:space="preserve" font-family=".LucidaGrandeUI,.Lucida Grande UI" font-size="32.0" fill="#424242" transform="matrix(1.00, 0.00, -0.00, -1.00, 166.6, 359.6)">e</text><text xml:space="preserve" font-family=".LucidaGrandeUI,.Lucida Grande UI" font-size="32.0" fill="#424242" transform="matrix(1.00, 0.00, -0.00, -1.00, 184.4, 359.6)">r</text><text xml:space="preserve" font-family=".LucidaGrandeUI,.Lucida Grande UI" font-size="32.0" fill="#424242" transform="matrix(1.00, 0.00, -0.00, -1.00, 197.5, 359.6)"> </text><text xml:space="preserve" font-family=".LucidaGrandeUI,.Lucida Grande UI" font-size="32.0" fill="#424242" transform="matrix(1.00, 0.00, -0.00, -1.00, 207.6, 359.6)">S</text><text xml:space="preserve" font-family=".LucidaGrandeUI,.Lucida Grande UI" font-size="32.0" fill="#424242" transform="matrix(1.00, 0.00, -0.00, -1.00, 224.9, 359.6)">t</text><text xml:space="preserve" font-family=".LucidaGrandeUI,.Lucida Grande UI" font-size="32.0" fill="#424242" transform="matrix(1.00, 0.00, -0.00, -1.00, 236.8, 359.6)">a</text><text xml:space="preserve" font-family=".LucidaGrandeUI,.Lucida Grande UI" font-size="32.0" fill="#424242" transform="matrix(1.00, 0.00, -0.00, -1.00, 254.5, 359.6)">c</text><text xml:space="preserve" font-family=".LucidaGrandeUI,.Lucida Grande UI" font-size="32.0" fill="#424242" transform="matrix(1.00, 0.00, -0.00, -1.00, 270.9, 359.6)">k</text><text xml:space="preserve" font-family=".LucidaGrandeUI,.Lucida Grande UI" font-size="32.0" fill="#424242" transform="matrix(1.00, 0.00, -0.00, -1.00, 289.4, 359.6)"> </text><text xml:space="preserve" font-family=".LucidaGrandeUI,.Lucida Grande UI" font-size="32.0" fill="#424242" transform="matrix(1.00, 0.00, -0.00, -1.00, 299.5, 359.6)">-</text><text xml:space="preserve" font-family=".LucidaGrandeUI,.Lucida Grande UI" font-size="32.0" fill="#424242" transform="matrix(1.00, 0.00, -0.00, -1.00, 318.0, 359.6)"> </text><text xml:space="preserve" font-family=".LucidaGrandeUI,.Lucida Grande UI" font-size="32.0" fill="#424242" transform="matrix(1.00, 0.00, -0.00, -1.00, 328.2, 359.6)">L</text><text xml:space="preserve" font-family=".LucidaGrandeUI,.Lucida Grande UI" font-size="32.0" fill="#424242" transform="matrix(1.00, 0.00, -0.00, -1.00, 345.2, 359.6)">a</text><text xml:space="preserve" font-family=".LucidaGrandeUI,.Lucida Grande UI" font-size="32.0" fill="#424242" transform="matrix(1.00, 0.00, -0.00, -1.00, 362.8, 359.6)">y</text><text xml:space="preserve" font-family=".LucidaGrandeUI,.Lucida Grande UI" font-size="32.0" fill="#424242" transform="matrix(1.00, 0.00, -0.00, -1.00, 379.3, 359.6)">e</text><text xml:space="preserve" font-family=".LucidaGrandeUI,.Lucida Grande UI" font-size="32.0" fill="#424242" transform="matrix(1.00, 0.00, -0.00, -1.00, 397.1, 359.6)">r</text><text xml:space="preserve" font-family=".LucidaGrandeUI,.Lucida Grande UI" font-size="32.0" fill="#424242" transform="matrix(1.00, 0.00, -0.00, -1.00, 410.2, 359.6)">s</text><text xml:space="preserve" font-family=".LucidaGrandeUI,.Lucida Grande UI" font-size="8.0" fill="#363636" transform="matrix(1.00, 0.00, -0.00, -1.00, 692.0, 9.4)">6</text></g></svg>