<?xml version="1.0" encoding="UTF-8" standalone="no"?><svg xmlns="http://www.w3.org/2000/svg" xmlns:xlink="http://www.w3.org/1999/xlink" clip-rule="evenodd" stroke-miterlimit="10" viewBox="0 0 449 48"><desc>SVG generated by Keynote</desc><defs><pattern id="patternP1" patternUnits="userSpaceOnUse" width="580" height="580" viewBox="0 0 580 580"><image xlink:href="74601BB7892AC3B88E4D5260C57B1F8A.png" width="580.00" height="580.00"></image></pattern></defs><g transform="matrix(1.00, 0.00, -0.00, -1.00, 0.0, 48.0)"><g><clipPath id="clip0x6080010a55e0"><path d="M 1.0 46.0 L 447.0 46.0 L 447.0 1.0 L 1.0 1.0 Z M 1.4 46.0 "></path></clipPath><g clip-path="url(#clip0x6080010a55e0)"><path d="M 1.0 1.0 L 447.0 1.0 L 447.0 46.0 L 1.0 46.0 Z M 1.0 1.0 " fill="url(#patternP1)"></path></g></g><g><clipPath id="clip0x6080010a5760"><path d="M -2.2 0.4 L 450.8 0.4 L 450.8 46.0 L -2.2 46.0 Z M -2.2 0.4 "></path></clipPath><g clip-path="url(#clip0x6080010a5760)"><text xml:space="preserve" font-family="Palatino-Roman,Palatino" font-size="24.0" fill="#FFFFFF" transform="matrix(1.00, 0.00, -0.00, -1.00, 4.4, 13.7)">S</text><text xml:space="preserve" font-family="Palatino-Roman,Palatino" font-size="24.0" fill="#FFFFFF" transform="matrix(1.00, 0.00, -0.00, -1.00, 17.0, 13.7)">o</text><text xml:space="preserve" font-family="Palatino-Roman,Palatino" font-size="24.0" fill="#FFFFFF" transform="matrix(1.00, 0.00, -0.00, -1.00, 30.1, 13.7)">f</text><text xml:space="preserve" font-family="Palatino-Roman,Palatino" font-size="24.0" fill="#FFFFFF" transform="matrix(1.00, 0.00, -0.00, -1.00, 38.1, 13.7)">t</text><text xml:space="preserve" font-family="Palatino-Roman,Palatino" font-size="24.0" fill="#FFFFFF" transform="matrix(1.00, 0.00, -0.00, -1.00, 45.9, 13.7)">w</text><text xml:space="preserve" font-family="Palatino-Roman,Palatino" font-size="24.0" fill="#FFFFFF" transform="matrix(1.00, 0.00, -0.00, -1.00, 65.9, 13.7)">a</text><text xml:space="preserve" font-family="Palatino-Roman,Palatino" font-size="24.0" fill="#FFFFFF" transform="matrix(1.00, 0.00, -0.00, -1.00, 77.9, 13.7)">r</text><text xml:space="preserve" font-family="Palatino-Roman,Palatino" font-size="24.0" fill="#FFFFFF" transform="matrix(1.00, 0.00, -0.00, -1.00, 87.0, 13.7)">e</text><text xml:space="preserve" font-family="Palatino-Roman,Palatino" font-size="24.0" fill="#FFFFFF" transform="matrix(1.00, 0.00, -0.00, -1.00, 98.5, 13.7)">:</text><text xml:space="preserve" font-family="Palatino-Roman,Palatino" font-size="24.0" fill="#FFFFFF" transform="matrix(1.00, 0.00, -0.00, -1.00, 187.4, 13.7)">E</text><text xml:space="preserve" font-family="Palatino-Roman,Palatino" font-size="24.0" fill="#FFFFFF" transform="matrix(1.00, 0.00, -0.00, -1.00, 202.0, 13.7)">n</text><text xml:space="preserve" font-family="Palatino-Roman,Palatino" font-size="24.0" fill="#FFFFFF" transform="matrix(1.00, 0.00, -0.00, -1.00, 216.0, 13.7)">d</text><text xml:space="preserve" font-family="Palatino-Roman,Palatino" font-size="24.0" fill="#FFFFFF" transform="matrix(1.00, 0.00, -0.00, -1.00, 230.7, 13.7)"> </text><text xml:space="preserve" font-family="Palatino-Roman,Palatino" font-size="24.0" fill="#FFFFFF" transform="matrix(1.00, 0.00, -0.00, -1.00, 236.7, 13.7)">u</text><text xml:space="preserve" font-family="Palatino-Roman,Palatino" font-size="24.0" fill="#FFFFFF" transform="matrix(1.00, 0.00, -0.00, -1.00, 251.1, 13.7)">s</text><text xml:space="preserve" font-family="Palatino-Roman,Palatino" font-size="24.0" fill="#FFFFFF" transform="matrix(1.00, 0.00, -0.00, -1.00, 261.3, 13.7)">e</text><text xml:space="preserve" font-family="Palatino-Roman,Palatino" font-size="24.0" fill="#FFFFFF" transform="matrix(1.00, 0.00, -0.00, -1.00, 272.8, 13.7)">r</text><text xml:space="preserve" font-family="Palatino-Roman,Palatino" font-size="24.0" fill="#FFFFFF" transform="matrix(1.00, 0.00, -0.00, -1.00, 282.3, 13.7)"> </text><text xml:space="preserve" font-family="Palatino-Roman,Palatino" font-size="24.0" fill="#FFFFFF" transform="matrix(1.00, 0.00, -0.00, -1.00, 288.3, 13.7)">a</text><text xml:space="preserve" font-family="Palatino-Roman,Palatino" font-size="24.0" fill="#FFFFFF" transform="matrix(1.00, 0.00, -0.00, -1.00, 300.3, 13.7)">p</text><text xml:space="preserve" font-family="Palatino-Roman,Palatino" font-size="24.0" fill="#FFFFFF" transform="matrix(1.00, 0.00, -0.00, -1.00, 314.7, 13.7)">p</text><text xml:space="preserve" font-family="Palatino-Roman,Palatino" font-size="24.0" fill="#FFFFFF" transform="matrix(1.00, 0.00, -0.00, -1.00, 329.1, 13.7)">l</text><text xml:space="preserve" font-family="Palatino-Roman,Palatino" font-size="24.0" fill="#FFFFFF" transform="matrix(1.00, 0.00, -0.00, -1.00, 336.1, 13.7)">i</text><text xml:space="preserve" font-family="Palatino-Roman,Palatino" font-size="24.0" fill="#FFFFFF" transform="matrix(1.00, 0.00, -0.00, -1.00, 343.1, 13.7)">c</text><text xml:space="preserve" font-family="Palatino-Roman,Palatino" font-size="24.0" fill="#FFFFFF" transform="matrix(1.00, 0.00, -0.00, -1.00, 353.8, 13.7)">a</text><text xml:space="preserve" font-family="Palatino-Roman,Palatino" font-size="24.0" fill="#FFFFFF" transform="matrix(1.00, 0.00, -0.00, -1.00, 365.8, 13.7)">t</text><text xml:space="preserve" font-family="Palatino-Roman,Palatino" font-size="24.0" fill="#FFFFFF" transform="matrix(1.00, 0.00, -0.00, -1.00, 373.6, 13.7)">i</text><text xml:space="preserve" font-family="Palatino-Roman,Palatino" font-size="24.0" fill="#FFFFFF" transform="matrix(1.00, 0.00, -0.00, -1.00, 380.6, 13.7)">o</text><text xml:space="preserve" font-family="Palatino-Roman,Palatino" font-size="24.0" fill="#FFFFFF" transform="matrix(1.00, 0.00, -0.00, -1.00, 393.7, 13.7)">n</text></g></g></g></svg>