<?xml version="1.0" encoding="UTF-8" standalone="no"?><svg xmlns="http://www.w3.org/2000/svg" xmlns:xlink="http://www.w3.org/1999/xlink" clip-rule="evenodd" stroke-miterlimit="10" viewBox="0 0 41 284"><desc>SVG generated by Keynote</desc><defs><linearGradient id="gradSh1.0" x1="0.0" y1="0.0" x2="100.0" y2="0.0" gradientUnits="userSpaceOnUse" gradientTransform="matrix(-0.40, 0.00, 0.00, 2.83, 40.6, 142.3)"><stop offset="0.00000" stop-color="#62566F"></stop><stop offset="0.00073" stop-color="#62576F"></stop><stop offset="0.13343" stop-color="#746A80"></stop><stop offset="0.13563" stop-color="#756A80"></stop><stop offset="0.27859" stop-color="#888092"></stop><stop offset="0.28079" stop-color="#898092"></stop><stop offset="1.00000" stop-color="#89847F"></stop></linearGradient></defs><g transform="matrix(1.00, 0.00, -0.00, -1.00, 0.0, 284.0)"><g><clipPath id="clip0x6080012b74c0"><path d="M 7.0 246.0 L 1.2 246.0 L 20.4 282.9 L 39.6 246.0 L 34.0 246.0 L 34.0 39.0 L 39.6 39.0 L 20.4 1.7 L 1.2 39.0 L 7.0 39.0 Z M 7.3 245.9 "></path></clipPath><g clip-path="url(#clip0x6080012b74c0)"><path d="M 7.0 246.0 L 1.2 246.0 L 20.4 282.9 L 39.6 246.0 L 34.0 246.0 L 34.0 39.0 L 39.6 39.0 L 20.4 1.7 L 1.2 39.0 L 7.0 39.0 Z M 7.3 245.9 " fill="url(#gradSh1.0)"></path></g></g><image xlink:href="74582F172E035D7709297A5F4D48DC77.png" width="20.00" height="68.00" transform="matrix(1.00, 0.00, -0.00, -1.00, 10.0, 174.0)"></image><g><clipPath id="clip0x6000010a55e0"><path d="M 39.6 282.9 L 39.6 1.7 L 1.2 1.7 L 1.2 282.9 Z M 39.6 282.9 "></path></clipPath><g clip-path="url(#clip0x6000010a55e0)"><text xml:space="preserve" font-family="DINAlternate-Bold,DIN Alternate" font-weight="bold" font-size="16.0" fill="#FEFFFE" transform="matrix(0.00, -1.00, -1.00, -0.00, 14.3, 174.6)">I</text><text xml:space="preserve" font-family="DINAlternate-Bold,DIN Alternate" font-weight="bold" font-size="16.0" fill="#FEFFFE" transform="matrix(0.00, -1.00, -1.00, -0.00, 14.3, 170.5)">S</text><text xml:space="preserve" font-family="DINAlternate-Bold,DIN Alternate" font-weight="bold" font-size="16.0" fill="#FEFFFE" transform="matrix(0.00, -1.00, -1.00, -0.00, 14.3, 161.3)">V</text><text xml:space="preserve" font-family="DINAlternate-Bold,DIN Alternate" font-weight="bold" font-size="16.0" fill="#FEFFFE" transform="matrix(0.00, -1.00, -1.00, -0.00, 14.3, 152.4)"> </text><text xml:space="preserve" font-family="DINAlternate-Bold,DIN Alternate" font-weight="bold" font-size="16.0" fill="#FEFFFE" transform="matrix(0.00, -1.00, -1.00, -0.00, 14.3, 148.6)">M</text><text xml:space="preserve" font-family="DINAlternate-Bold,DIN Alternate" font-weight="bold" font-size="16.0" fill="#FEFFFE" transform="matrix(0.00, -1.00, -1.00, -0.00, 14.3, 136.5)">g</text><text xml:space="preserve" font-family="DINAlternate-Bold,DIN Alternate" font-weight="bold" font-size="16.0" fill="#FEFFFE" transform="matrix(0.00, -1.00, -1.00, -0.00, 14.3, 128.2)">m</text><text xml:space="preserve" font-family="DINAlternate-Bold,DIN Alternate" font-weight="bold" font-size="16.0" fill="#FEFFFE" transform="matrix(0.00, -1.00, -1.00, -0.00, 14.3, 114.5)">t</text></g></g></g></svg>