<?xml version="1.0" encoding="UTF-8" standalone="no"?><svg xmlns="http://www.w3.org/2000/svg" xmlns:xlink="http://www.w3.org/1999/xlink" clip-rule="evenodd" stroke-miterlimit="10" viewBox="0 0 449 47"><desc>SVG generated by Keynote</desc><defs><pattern id="patternP1" patternUnits="userSpaceOnUse" width="580" height="580" viewBox="0 0 580 580"><image xlink:href="58A53FB1C3BD2309C101DECB3C8FC7BA.png" width="580.00" height="580.00"></image></pattern></defs><g transform="matrix(1.00, 0.00, -0.00, -1.00, 0.0, 47.0)"><g><clipPath id="clip0x6000010a1aa0"><path d="M 1.0 46.0 L 447.0 46.0 L 447.0 1.0 L 1.0 1.0 Z M 1.4 45.8 "></path></clipPath><g clip-path="url(#clip0x6000010a1aa0)"><path d="M 1.0 1.0 L 447.0 1.0 L 447.0 46.0 L 1.0 46.0 Z M 1.0 1.0 " fill="url(#patternP1)"></path></g></g><image xlink:href="1E41FDE0075CFF8465AE11EF3FC6B4D3.png" width="338.00" height="26.00" transform="matrix(1.00, 0.00, -0.00, -1.00, 4.0, 31.0)"></image><g><clipPath id="clip0x6080010a4620"><path d="M -2.3 -3.7 L 454.7 -3.7 L 454.7 45.8 L -2.3 45.8 Z M -2.3 -3.7 "></path></clipPath><g clip-path="url(#clip0x6080010a4620)"><text xml:space="preserve" font-family="Palatino-Roman,Palatino" font-size="24.0" fill="#FEFFFE" transform="matrix(1.00, 0.00, -0.00, -1.00, 4.4, 13.5)">M</text><text xml:space="preserve" font-family="Palatino-Roman,Palatino" font-size="24.0" fill="#FEFFFE" transform="matrix(1.00, 0.00, -0.00, -1.00, 27.1, 13.5)">i</text><text xml:space="preserve" font-family="Palatino-Roman,Palatino" font-size="24.0" fill="#FEFFFE" transform="matrix(1.00, 0.00, -0.00, -1.00, 34.1, 13.5)">d</text><text xml:space="preserve" font-family="Palatino-Roman,Palatino" font-size="24.0" fill="#FEFFFE" transform="matrix(1.00, 0.00, -0.00, -1.00, 48.7, 13.5)">d</text><text xml:space="preserve" font-family="Palatino-Roman,Palatino" font-size="24.0" fill="#FEFFFE" transform="matrix(1.00, 0.00, -0.00, -1.00, 63.4, 13.5)">l</text><text xml:space="preserve" font-family="Palatino-Roman,Palatino" font-size="24.0" fill="#FEFFFE" transform="matrix(1.00, 0.00, -0.00, -1.00, 70.4, 13.5)">e</text><text xml:space="preserve" font-family="Palatino-Roman,Palatino" font-size="24.0" fill="#FEFFFE" transform="matrix(1.00, 0.00, -0.00, -1.00, 81.9, 13.5)">W</text><text xml:space="preserve" font-family="Palatino-Roman,Palatino" font-size="24.0" fill="#FEFFFE" transform="matrix(1.00, 0.00, -0.00, -1.00, 103.7, 13.5)">a</text><text xml:space="preserve" font-family="Palatino-Roman,Palatino" font-size="24.0" fill="#FEFFFE" transform="matrix(1.00, 0.00, -0.00, -1.00, 115.7, 13.5)">r</text><text xml:space="preserve" font-family="Palatino-Roman,Palatino" font-size="24.0" fill="#FEFFFE" transform="matrix(1.00, 0.00, -0.00, -1.00, 124.7, 13.5)">e</text><text xml:space="preserve" font-family="Palatino-Roman,Palatino" font-size="24.0" fill="#FEFFFE" transform="matrix(1.00, 0.00, -0.00, -1.00, 136.2, 13.5)">:</text><text xml:space="preserve" font-family="Palatino-Roman,Palatino" font-size="24.0" fill="#FEFFFE" transform="matrix(1.00, 0.00, -0.00, -1.00, 193.4, 13.5)">M</text><text xml:space="preserve" font-family="Palatino-Roman,Palatino" font-size="24.0" fill="#FEFFFE" transform="matrix(1.00, 0.00, -0.00, -1.00, 216.1, 13.5)">P</text><text xml:space="preserve" font-family="Palatino-Roman,Palatino" font-size="24.0" fill="#FEFFFE" transform="matrix(1.00, 0.00, -0.00, -1.00, 230.6, 13.5)">I</text><text xml:space="preserve" font-family="Palatino-Roman,Palatino" font-size="24.0" fill="#FEFFFE" transform="matrix(1.00, 0.00, -0.00, -1.00, 238.7, 13.5)">,</text><text xml:space="preserve" font-family="Palatino-Roman,Palatino" font-size="24.0" fill="#FEFFFE" transform="matrix(1.00, 0.00, -0.00, -1.00, 244.7, 13.5)"> </text><text xml:space="preserve" font-family="Palatino-Roman,Palatino" font-size="24.0" fill="#FEFFFE" transform="matrix(1.00, 0.00, -0.00, -1.00, 250.7, 13.5)">I</text><text xml:space="preserve" font-family="Palatino-Roman,Palatino" font-size="24.0" fill="#FEFFFE" transform="matrix(1.00, 0.00, -0.00, -1.00, 258.7, 13.5)">S</text><text xml:space="preserve" font-family="Palatino-Roman,Palatino" font-size="24.0" fill="#FEFFFE" transform="matrix(1.00, 0.00, -0.00, -1.00, 271.3, 13.5)">V</text><text xml:space="preserve" font-family="Palatino-Roman,Palatino" font-size="24.0" fill="#FEFFFE" transform="matrix(1.00, 0.00, -0.00, -1.00, 286.9, 13.5)">-</text><text xml:space="preserve" font-family="Palatino-Roman,Palatino" font-size="24.0" fill="#FEFFFE" transform="matrix(1.00, 0.00, -0.00, -1.00, 294.9, 13.5)">l</text><text xml:space="preserve" font-family="Palatino-Roman,Palatino" font-size="24.0" fill="#FEFFFE" transform="matrix(1.00, 0.00, -0.00, -1.00, 301.9, 13.5)">i</text><text xml:space="preserve" font-family="Palatino-Roman,Palatino" font-size="24.0" fill="#FEFFFE" transform="matrix(1.00, 0.00, -0.00, -1.00, 308.9, 13.5)">b</text><text xml:space="preserve" font-family="Palatino-Roman,Palatino" font-size="24.0" fill="#FEFFFE" transform="matrix(1.00, 0.00, -0.00, -1.00, 322.1, 13.5)">s</text></g></g></g></svg>