<?xml version="1.0" encoding="UTF-8" standalone="no"?><svg xmlns="http://www.w3.org/2000/svg" xmlns:xlink="http://www.w3.org/1999/xlink" clip-rule="evenodd" stroke-miterlimit="10" viewBox="0 0 43 301"><desc>SVG generated by Keynote</desc><defs></defs><g transform="matrix(1.00, 0.00, -0.00, -1.00, 0.0, 301.0)"><path d="M 8.2 40.1 L 1.9 40.1 L 21.6 1.7 L 41.4 40.0 L 35.1 40.0 L 35.5 299.8 L 8.7 299.8 Z M 8.2 40.1 " fill="#88847E"></path><image xlink:href="4BA4B9791D261B12E5260213D031AFA1.png" width="16.00" height="110.00" transform="matrix(1.00, 0.00, -0.00, -1.00, 16.0, 296.0)"></image><g><clipPath id="clip0x6080010a83a0"><path d="M 41.9 301.5 L 41.4 1.7 L 1.8 1.7 L 2.3 301.6 Z M 41.9 301.5 "></path></clipPath><g clip-path="url(#clip0x6080010a83a0)"><text xml:space="preserve" font-family="DINAlternate-Bold,DIN Alternate" font-weight="bold" font-size="16.0" fill="#FEFFFE" transform="matrix(-0.00, -1.00, -1.00, 0.00, 16.5, 296.8)">P</text><text xml:space="preserve" font-family="DINAlternate-Bold,DIN Alternate" font-weight="bold" font-size="16.0" fill="#FEFFFE" transform="matrix(-0.00, -1.00, -1.00, 0.00, 16.5, 287.6)">o</text><text xml:space="preserve" font-family="DINAlternate-Bold,DIN Alternate" font-weight="bold" font-size="16.0" fill="#FEFFFE" transform="matrix(-0.00, -1.00, -1.00, 0.00, 16.5, 279.6)">w</text><text xml:space="preserve" font-family="DINAlternate-Bold,DIN Alternate" font-weight="bold" font-size="16.0" fill="#FEFFFE" transform="matrix(-0.00, -1.00, -1.00, 0.00, 16.5, 268.0)">e</text><text xml:space="preserve" font-family="DINAlternate-Bold,DIN Alternate" font-weight="bold" font-size="16.0" fill="#FEFFFE" transform="matrix(-0.00, -1.00, -1.00, 0.00, 16.5, 260.0)">r</text><text xml:space="preserve" font-family="DINAlternate-Bold,DIN Alternate" font-weight="bold" font-size="16.0" fill="#FEFFFE" transform="matrix(-0.00, -1.00, -1.00, 0.00, 16.4, 253.8)"> </text><text xml:space="preserve" font-family="DINAlternate-Bold,DIN Alternate" font-weight="bold" font-size="16.0" fill="#FEFFFE" transform="matrix(-0.00, -1.00, -1.00, 0.00, 16.4, 250.0)">U</text><text xml:space="preserve" font-family="DINAlternate-Bold,DIN Alternate" font-weight="bold" font-size="16.0" fill="#FEFFFE" transform="matrix(-0.00, -1.00, -1.00, 0.00, 16.4, 239.9)">s</text><text xml:space="preserve" font-family="DINAlternate-Bold,DIN Alternate" font-weight="bold" font-size="16.0" fill="#FEFFFE" transform="matrix(-0.00, -1.00, -1.00, 0.00, 16.4, 232.2)">e</text><text xml:space="preserve" font-family="DINAlternate-Bold,DIN Alternate" font-weight="bold" font-size="16.0" fill="#FEFFFE" transform="matrix(-0.00, -1.00, -1.00, 0.00, 16.4, 224.2)">r</text><text xml:space="preserve" font-family="DINAlternate-Bold,DIN Alternate" font-weight="bold" font-size="16.0" fill="#FEFFFE" transform="matrix(-0.00, -1.00, -1.00, 0.00, 16.4, 218.0)">/</text><text xml:space="preserve" font-family="DINAlternate-Bold,DIN Alternate" font-weight="bold" font-size="16.0" fill="#FEFFFE" transform="matrix(-0.00, -1.00, -1.00, 0.00, 16.4, 212.7)">I</text><text xml:space="preserve" font-family="DINAlternate-Bold,DIN Alternate" font-weight="bold" font-size="16.0" fill="#FEFFFE" transform="matrix(-0.00, -1.00, -1.00, 0.00, 16.4, 208.5)">S</text><text xml:space="preserve" font-family="DINAlternate-Bold,DIN Alternate" font-weight="bold" font-size="16.0" fill="#FEFFFE" transform="matrix(-0.00, -1.00, -1.00, 0.00, 16.3, 199.4)">V</text></g></g></g></svg>