<?xml version="1.0" encoding="UTF-8" standalone="no"?><svg xmlns="http://www.w3.org/2000/svg" xmlns:xlink="http://www.w3.org/1999/xlink" clip-rule="evenodd" stroke-miterlimit="10" viewBox="0 0 146 41"><desc>SVG generated by Keynote</desc><defs><linearGradient id="gradSh1.7" x1="0.0" y1="0.0" x2="100.0" y2="0.0" gradientUnits="userSpaceOnUse" gradientTransform="matrix(0.00, -0.30, -1.39, 0.00, 72.5, 35.0)"><stop offset="0.00000" stop-color="#FBFBFB"></stop><stop offset="0.01466" stop-color="#FAFAFA"></stop><stop offset="1.00000" stop-color="#BEBEBE"></stop></linearGradient></defs><g transform="matrix(1.00, 0.00, -0.00, -1.00, 0.0, 41.0)"><image xlink:href="A4237486C2E45E8081E8F5AF6BD71E1A.png" width="143.00" height="34.00" transform="matrix(1.00, 0.00, -0.00, -1.00, 1.2, 35.4)" opacity="0.50"></image><g><clipPath id="clip0x608002eaf660"><path d="M 4.2 18.9 L 4.0 22.0 C 4.0 28.8 9.7 34.0 16.6 34.0 L 128.7 34.0 C 135.5 34.0 141.0 28.8 141.0 22.0 L 141.0 18.9 C 141.0 12.0 135.5 6.0 128.7 6.0 L 16.6 6.0 C 9.7 6.0 4.2 12.0 4.2 18.9 Z M 4.2 18.9 "></path></clipPath><g clip-path="url(#clip0x608002eaf660)"><path d="M 4.2 18.9 L 4.0 22.0 C 4.0 28.8 9.7 34.0 16.6 34.0 L 128.7 34.0 C 135.5 34.0 141.0 28.8 141.0 22.0 L 141.0 18.9 C 141.0 12.0 135.5 6.0 128.7 6.0 L 16.6 6.0 C 9.7 6.0 4.2 12.0 4.2 18.9 Z M 4.2 18.9 " fill="url(#gradSh1.7)"></path></g></g><g><clipPath id="clip0x6080032a5fa0"><path d="M 4.2 6.4 L 141.1 6.4 L 141.1 34.4 L 4.2 34.4 Z M 4.2 6.4 "></path></clipPath><g clip-path="url(#clip0x6080032a5fa0)"><text xml:space="preserve" font-family=".LucidaGrandeUI,.Lucida Grande UI" font-size="16.0" fill="#363636" transform="matrix(1.00, 0.00, -0.00, -1.00, 19.3, 14.5)">c</text><text xml:space="preserve" font-family=".LucidaGrandeUI,.Lucida Grande UI" font-size="16.0" fill="#363636" transform="matrix(1.00, 0.00, -0.00, -1.00, 27.5, 14.5)">a</text><text xml:space="preserve" font-family=".LucidaGrandeUI,.Lucida Grande UI" font-size="16.0" fill="#363636" transform="matrix(1.00, 0.00, -0.00, -1.00, 36.3, 14.5)">r</text><text xml:space="preserve" font-family=".LucidaGrandeUI,.Lucida Grande UI" font-size="16.0" fill="#363636" transform="matrix(1.00, 0.00, -0.00, -1.00, 42.8, 14.5)">b</text><text xml:space="preserve" font-family=".LucidaGrandeUI,.Lucida Grande UI" font-size="16.0" fill="#363636" transform="matrix(1.00, 0.00, -0.00, -1.00, 52.9, 14.5)">o</text><text xml:space="preserve" font-family=".LucidaGrandeUI,.Lucida Grande UI" font-size="16.0" fill="#363636" transform="matrix(1.00, 0.00, -0.00, -1.00, 62.8, 14.5)">n</text><text xml:space="preserve" font-family=".LucidaGrandeUI,.Lucida Grande UI" font-size="16.0" fill="#363636" transform="matrix(1.00, 0.00, -0.00, -1.00, 72.7, 14.5)">-</text><text xml:space="preserve" font-family=".LucidaGrandeUI,.Lucida Grande UI" font-size="16.0" fill="#363636" transform="matrix(1.00, 0.00, -0.00, -1.00, 81.9, 14.5)">c</text><text xml:space="preserve" font-family=".LucidaGrandeUI,.Lucida Grande UI" font-size="16.0" fill="#363636" transform="matrix(1.00, 0.00, -0.00, -1.00, 90.1, 14.5)">a</text><text xml:space="preserve" font-family=".LucidaGrandeUI,.Lucida Grande UI" font-size="16.0" fill="#363636" transform="matrix(1.00, 0.00, -0.00, -1.00, 99.0, 14.5)">c</text><text xml:space="preserve" font-family=".LucidaGrandeUI,.Lucida Grande UI" font-size="16.0" fill="#363636" transform="matrix(1.00, 0.00, -0.00, -1.00, 107.2, 14.5)">h</text><text xml:space="preserve" font-family=".LucidaGrandeUI,.Lucida Grande UI" font-size="16.0" fill="#363636" transform="matrix(1.00, 0.00, -0.00, -1.00, 117.1, 14.5)">e</text></g></g></g></svg>