<?xml version="1.0" encoding="UTF-8" standalone="no"?><svg xmlns="http://www.w3.org/2000/svg" xmlns:xlink="http://www.w3.org/1999/xlink" clip-rule="evenodd" stroke-miterlimit="10" viewBox="0 0 312 52"><desc>SVG generated by Keynote</desc><defs><pattern id="patternP1" patternUnits="userSpaceOnUse" width="600" height="600" viewBox="0 0 600 600"><image xlink:href="80178DB44A976F13345376CE634CB034.png" width="600.00" height="600.00"></image></pattern></defs><g transform="matrix(1.00, 0.00, -0.00, -1.00, 0.0, 52.0)"><image xlink:href="ED85158E524B3CB17165D565BB16B230.png" width="305.00" height="47.00" transform="matrix(1.00, 0.00, -0.00, -1.00, 4.9, 48.1)" opacity="0.79"></image><g><clipPath id="clip0x6000028a18c0"><path d="M 5.4 19.3 L 5.0 32.4 C 5.0 40.7 12.1 47.0 20.4 47.0 L 291.6 47.0 C 299.9 47.0 307.0 40.7 307.0 32.4 L 307.0 19.3 C 307.0 11.0 299.9 4.0 291.6 4.0 L 20.4 4.0 C 12.1 4.0 5.4 11.0 5.4 19.3 Z M 5.4 19.3 "></path></clipPath><g clip-path="url(#clip0x6000028a18c0)"><path d="M 5.0 4.0 L 307.0 4.0 L 307.0 47.0 L 5.0 47.0 Z M 5.0 4.0 " fill="url(#patternP1)"></path></g></g><g><clipPath id="clip0x6000028a1da0"><path d="M 5.3 4.3 L 306.6 4.3 L 306.6 47.4 L 5.3 47.4 Z M 5.3 4.3 "></path></clipPath><g clip-path="url(#clip0x6000028a1da0)"><text xml:space="preserve" font-family=".LucidaGrandeUI-Bold,.Lucida Grande UI" font-weight="bold" font-size="22.0" fill="#FEFFFF" transform="matrix(1.00, 0.00, -0.00, -1.00, 35.1, 17.6)">&lt;</text><text xml:space="preserve" font-family=".LucidaGrandeUI-Bold,.Lucida Grande UI" font-weight="bold" font-size="22.0" fill="#FEFFFF" transform="matrix(1.00, 0.00, -0.00, -1.00, 52.6, 17.6)">k</text><text xml:space="preserve" font-family=".LucidaGrandeUI-Bold,.Lucida Grande UI" font-weight="bold" font-size="22.0" fill="#FEFFFF" transform="matrix(1.00, 0.00, -0.00, -1.00, 66.2, 17.6)">e</text><text xml:space="preserve" font-family=".LucidaGrandeUI-Bold,.Lucida Grande UI" font-weight="bold" font-size="22.0" fill="#FEFFFF" transform="matrix(1.00, 0.00, -0.00, -1.00, 79.2, 17.6)">y</text><text xml:space="preserve" font-family=".LucidaGrandeUI-Bold,.Lucida Grande UI" font-weight="bold" font-size="22.0" fill="#FEFFFF" transform="matrix(1.00, 0.00, -0.00, -1.00, 92.3, 17.6)">&gt;</text><text xml:space="preserve" font-family=".LucidaGrandeUI-Bold,.Lucida Grande UI" font-weight="bold" font-size="22.0" fill="#FEFFFF" transform="matrix(1.00, 0.00, -0.00, -1.00, 109.7, 17.6)"> </text><text xml:space="preserve" font-family=".LucidaGrandeUI-Bold,.Lucida Grande UI" font-weight="bold" font-size="22.0" fill="#FEFFFF" transform="matrix(1.00, 0.00, -0.00, -1.00, 117.0, 17.6)">&lt;</text><text xml:space="preserve" font-family=".LucidaGrandeUI-Bold,.Lucida Grande UI" font-weight="bold" font-size="22.0" fill="#FEFFFF" transform="matrix(1.00, 0.00, -0.00, -1.00, 134.5, 17.6)">v</text><text xml:space="preserve" font-family=".LucidaGrandeUI-Bold,.Lucida Grande UI" font-weight="bold" font-size="22.0" fill="#FEFFFF" transform="matrix(1.00, 0.00, -0.00, -1.00, 147.8, 17.6)">a</text><text xml:space="preserve" font-family=".LucidaGrandeUI-Bold,.Lucida Grande UI" font-weight="bold" font-size="22.0" fill="#FEFFFF" transform="matrix(1.00, 0.00, -0.00, -1.00, 160.7, 17.6)">l</text><text xml:space="preserve" font-family=".LucidaGrandeUI-Bold,.Lucida Grande UI" font-weight="bold" font-size="22.0" fill="#FEFFFF" transform="matrix(1.00, 0.00, -0.00, -1.00, 168.0, 17.6)">u</text><text xml:space="preserve" font-family=".LucidaGrandeUI-Bold,.Lucida Grande UI" font-weight="bold" font-size="22.0" fill="#FEFFFF" transform="matrix(1.00, 0.00, -0.00, -1.00, 182.5, 17.6)">e</text><text xml:space="preserve" font-family=".LucidaGrandeUI-Bold,.Lucida Grande UI" font-weight="bold" font-size="22.0" fill="#FEFFFF" transform="matrix(1.00, 0.00, -0.00, -1.00, 195.5, 17.6)">&gt;</text><text xml:space="preserve" font-family=".LucidaGrandeUI-Bold,.Lucida Grande UI" font-weight="bold" font-size="22.0" fill="#FEFFFF" transform="matrix(1.00, 0.00, -0.00, -1.00, 213.0, 17.6)"> </text><text xml:space="preserve" font-family=".LucidaGrandeUI-Bold,.Lucida Grande UI" font-weight="bold" font-size="22.0" fill="#FEFFFF" transform="matrix(1.00, 0.00, -0.00, -1.00, 220.3, 17.6)">&lt;</text><text xml:space="preserve" font-family=".LucidaGrandeUI-Bold,.Lucida Grande UI" font-weight="bold" font-size="22.0" fill="#FEFFFF" transform="matrix(1.00, 0.00, -0.00, -1.00, 237.8, 17.6)">t</text><text xml:space="preserve" font-family=".LucidaGrandeUI-Bold,.Lucida Grande UI" font-weight="bold" font-size="22.0" fill="#FEFFFF" transform="matrix(1.00, 0.00, -0.00, -1.00, 246.8, 17.6)">s</text><text xml:space="preserve" font-family=".LucidaGrandeUI-Bold,.Lucida Grande UI" font-weight="bold" font-size="22.0" fill="#FEFFFF" transform="matrix(1.00, 0.00, -0.00, -1.00, 259.3, 17.6)">&gt;</text></g></g></g></svg>