<?xml version="1.0" encoding="UTF-8" standalone="no"?><svg xmlns="http://www.w3.org/2000/svg" xmlns:xlink="http://www.w3.org/1999/xlink" clip-rule="evenodd" stroke-miterlimit="10" viewBox="0 0 720 540"><desc>SVG generated by Keynote</desc><defs></defs><g transform="matrix(1.00, 0.00, -0.00, -1.00, 0.0, 540.0)"><path d="M 0.0 540.0 L 720.0 540.0 L 720.0 0.0 L 0.0 0.0 Z M 0.0 540.0 " fill="#FEFFFF"></path><path d="M 0.5 -0.2 L 606.5 -0.2 " fill="none" stroke="#949EAF" stroke-width="2.00" transform="matrix(1.00, 0.00, 0.00, -1.00, 0.5, 482.8)"></path><g><clipPath id="clip0x608000ea8b20"><path d="M 626.4 503.1 L 720.9 503.1 L 720.9 506.8 L 626.4 506.8 Z M 626.4 503.1 "></path></clipPath><g clip-path="url(#clip0x608000ea8b20)"><path d="M -0.4 0.0 L 92.6 0.0 " fill="none" stroke="#949EAF" stroke-width="2.00" transform="matrix(1.00, 0.00, 0.00, -1.00, 627.4, 505.0)"></path></g></g><g><clipPath id="clip0x608000ea8d60"><path d="M 604.7 480.7 L 629.1 480.7 L 629.1 506.9 L 604.7 506.9 Z M 604.7 480.7 "></path></clipPath><g clip-path="url(#clip0x608000ea8d60)"><path d="M 0.0 23.1 L 21.2 0.0 " fill="none" stroke="#949EAF" stroke-width="2.00" transform="matrix(1.00, 0.00, 0.00, -1.00, 606.2, 505.4)"></path></g></g><text xml:space="preserve" font-family=".LucidaGrandeUI,.Lucida Grande UI" font-size="10.0" fill="#363636" transform="matrix(1.00, 0.00, -0.00, -1.00, 13.5, 9.1)">©</text><text xml:space="preserve" font-family=".LucidaGrandeUI,.Lucida Grande UI" font-size="10.0" fill="#363636" transform="matrix(1.00, 0.00, -0.00, -1.00, 22.0, 9.1)">B</text><text xml:space="preserve" font-family=".LucidaGrandeUI,.Lucida Grande UI" font-size="10.0" fill="#363636" transform="matrix(1.00, 0.00, -0.00, -1.00, 27.8, 9.1)">u</text><text xml:space="preserve" font-family=".LucidaGrandeUI,.Lucida Grande UI" font-size="10.0" fill="#363636" transform="matrix(1.00, 0.00, -0.00, -1.00, 34.0, 9.1)">l</text><text xml:space="preserve" font-family=".LucidaGrandeUI,.Lucida Grande UI" font-size="10.0" fill="#363636" transform="matrix(1.00, 0.00, -0.00, -1.00, 36.9, 9.1)">l</text><text xml:space="preserve" font-family=".LucidaGrandeUI,.Lucida Grande UI" font-size="10.0" fill="#363636" transform="matrix(1.00, 0.00, -0.00, -1.00, 39.8, 9.1)"> </text><text xml:space="preserve" font-family=".LucidaGrandeUI,.Lucida Grande UI" font-size="10.0" fill="#363636" transform="matrix(1.00, 0.00, -0.00, -1.00, 42.9, 9.1)">2</text><text xml:space="preserve" font-family=".LucidaGrandeUI,.Lucida Grande UI" font-size="10.0" fill="#363636" transform="matrix(1.00, 0.00, -0.00, -1.00, 49.3, 9.1)">0</text><text xml:space="preserve" font-family=".LucidaGrandeUI,.Lucida Grande UI" font-size="10.0" fill="#363636" transform="matrix(1.00, 0.00, -0.00, -1.00, 55.6, 9.1)">1</text><text xml:space="preserve" font-family=".LucidaGrandeUI,.Lucida Grande UI" font-size="10.0" fill="#363636" transform="matrix(1.00, 0.00, -0.00, -1.00, 61.9, 9.1)">2</text><g><clipPath id="clip0x608000ea93c0"><path d="M 0.0 0.1 L 719.9 0.1 L 719.9 539.4 L 0.0 539.4 Z M 0.0 0.1 "></path></clipPath><g clip-path="url(#clip0x608000ea93c0)"><image xlink:href="191D06B8BED35011E95B04583C9FD36E.jpeg" width="1766.00" height="1323.00" transform="matrix(0.41, 0.00, -0.00, -0.41, 0.0, 539.4)"></image></g></g><g><clipPath id="clip0x608000ea9420"><path d="M -0.6 280.0 L 453.6 280.0 L 453.6 284.0 L -0.6 284.0 Z M -0.6 280.0 "></path></clipPath><g clip-path="url(#clip0x608000ea9420)"><path d="M 452.6 0.2 L -0.4 0.2 " fill="none" stroke="#949EAF" stroke-width="2.00" transform="matrix(1.00, 0.00, 0.00, -1.00, 0.4, 282.2)"></path></g></g><g><clipPath id="clip0x608000ea9840"><path d="M 510.5 335.0 L 721.4 335.0 L 721.4 338.6 L 510.5 338.6 Z M 510.5 335.0 "></path></clipPath><g clip-path="url(#clip0x608000ea9840)"><path d="M 208.5 -0.1 L 0.5 -0.1 " fill="none" stroke="#949EAF" stroke-width="2.00" transform="matrix(1.00, 0.00, 0.00, -1.00, 511.5, 336.9)"></path></g></g><g><clipPath id="clip0x608000ea9a80"><path d="M 450.6 280.3 L 513.0 280.3 L 513.0 338.8 L 450.6 338.8 Z M 450.6 280.3 "></path></clipPath><g clip-path="url(#clip0x608000ea9a80)"><path d="M 59.4 0.0 L 0.0 55.4 " fill="none" stroke="#949EAF" stroke-width="2.00" transform="matrix(1.00, 0.00, 0.00, -1.00, 452.1, 337.2)"></path></g></g><path d="M -0.1 -0.1 L -0.1 39.9 " fill="none" stroke="#626262" stroke-width="2.00" transform="matrix(1.00, 0.00, 0.00, -1.00, 453.1, 137.9)"></path><g><clipPath id="clip0x608000ea9d80"><path d="M 499.0 468.0 L 666.0 468.0 L 666.0 374.0 L 499.0 374.0 Z M 499.0 467.5 "></path></clipPath><g clip-path="url(#clip0x608000ea9d80)"><image xlink:href="4BE265A88237E82DFD763332F58FE3AB.jpeg" width="1000.00" height="1000.00" transform="matrix(0.21, 0.00, -0.00, -0.21, 476.3, 525.7)"></image></g></g><text xml:space="preserve" font-family=".LucidaGrandeUI,.Lucida Grande UI" font-size="32.0" fill="#424242" transform="matrix(1.00, 0.00, -0.00, -1.00, 15.1, 294.6)">O</text><text xml:space="preserve" font-family=".LucidaGrandeUI,.Lucida Grande UI" font-size="32.0" fill="#424242" transform="matrix(1.00, 0.00, -0.00, -1.00, 39.9, 294.6)">v</text><text xml:space="preserve" font-family=".LucidaGrandeUI,.Lucida Grande UI" font-size="32.0" fill="#424242" transform="matrix(1.00, 0.00, -0.00, -1.00, 56.4, 294.6)">e</text><text xml:space="preserve" font-family=".LucidaGrandeUI,.Lucida Grande UI" font-size="32.0" fill="#424242" transform="matrix(1.00, 0.00, -0.00, -1.00, 74.2, 294.6)">r</text><text xml:space="preserve" font-family=".LucidaGrandeUI,.Lucida Grande UI" font-size="32.0" fill="#424242" transform="matrix(1.00, 0.00, -0.00, -1.00, 87.3, 294.6)">l</text><text xml:space="preserve" font-family=".LucidaGrandeUI,.Lucida Grande UI" font-size="32.0" fill="#424242" transform="matrix(1.00, 0.00, -0.00, -1.00, 96.6, 294.6)">a</text><text xml:space="preserve" font-family=".LucidaGrandeUI,.Lucida Grande UI" font-size="32.0" fill="#424242" transform="matrix(1.00, 0.00, -0.00, -1.00, 114.3, 294.6)">y</text><text xml:space="preserve" font-family=".LucidaGrandeUI,.Lucida Grande UI" font-size="32.0" fill="#424242" transform="matrix(1.00, 0.00, -0.00, -1.00, 130.7, 294.6)"> </text><text xml:space="preserve" font-family=".LucidaGrandeUI,.Lucida Grande UI" font-size="32.0" fill="#424242" transform="matrix(1.00, 0.00, -0.00, -1.00, 140.9, 294.6)">H</text><text xml:space="preserve" font-family=".LucidaGrandeUI,.Lucida Grande UI" font-size="32.0" fill="#424242" transform="matrix(1.00, 0.00, -0.00, -1.00, 164.4, 294.6)">P</text><text xml:space="preserve" font-family=".LucidaGrandeUI,.Lucida Grande UI" font-size="32.0" fill="#424242" transform="matrix(1.00, 0.00, -0.00, -1.00, 182.0, 294.6)">C</text><text xml:space="preserve" font-family=".LucidaGrandeUI,.Lucida Grande UI" font-size="32.0" fill="#424242" transform="matrix(1.00, 0.00, -0.00, -1.00, 204.2, 294.6)"> </text><text xml:space="preserve" font-family=".LucidaGrandeUI,.Lucida Grande UI" font-size="32.0" fill="#424242" transform="matrix(1.00, 0.00, -0.00, -1.00, 214.3, 294.6)">I</text><text xml:space="preserve" font-family=".LucidaGrandeUI,.Lucida Grande UI" font-size="32.0" fill="#424242" transform="matrix(1.00, 0.00, -0.00, -1.00, 223.5, 294.6)">n</text><text xml:space="preserve" font-family=".LucidaGrandeUI,.Lucida Grande UI" font-size="32.0" fill="#424242" transform="matrix(1.00, 0.00, -0.00, -1.00, 243.4, 294.6)">f</text><text xml:space="preserve" font-family=".LucidaGrandeUI,.Lucida Grande UI" font-size="32.0" fill="#424242" transform="matrix(1.00, 0.00, -0.00, -1.00, 255.1, 294.6)">o</text><text xml:space="preserve" font-family=".LucidaGrandeUI,.Lucida Grande UI" font-size="32.0" fill="#424242" transform="matrix(1.00, 0.00, -0.00, -1.00, 274.8, 294.6)">r</text><text xml:space="preserve" font-family=".LucidaGrandeUI,.Lucida Grande UI" font-size="32.0" fill="#424242" transform="matrix(1.00, 0.00, -0.00, -1.00, 287.9, 294.6)">m</text><text xml:space="preserve" font-family=".LucidaGrandeUI,.Lucida Grande UI" font-size="32.0" fill="#424242" transform="matrix(1.00, 0.00, -0.00, -1.00, 317.8, 294.6)">a</text><text xml:space="preserve" font-family=".LucidaGrandeUI,.Lucida Grande UI" font-size="32.0" fill="#424242" transform="matrix(1.00, 0.00, -0.00, -1.00, 335.5, 294.6)">t</text><text xml:space="preserve" font-family=".LucidaGrandeUI,.Lucida Grande UI" font-size="32.0" fill="#424242" transform="matrix(1.00, 0.00, -0.00, -1.00, 347.4, 294.6)">i</text><text xml:space="preserve" font-family=".LucidaGrandeUI,.Lucida Grande UI" font-size="32.0" fill="#424242" transform="matrix(1.00, 0.00, -0.00, -1.00, 356.7, 294.6)">o</text><text xml:space="preserve" font-family=".LucidaGrandeUI,.Lucida Grande UI" font-size="32.0" fill="#424242" transform="matrix(1.00, 0.00, -0.00, -1.00, 376.3, 294.6)">n</text><text xml:space="preserve" font-family=".LucidaGrandeUI,.Lucida Grande UI" font-size="8.0" fill="#363636" transform="matrix(1.00, 0.00, -0.00, -1.00, 692.0, 9.4)">1</text><text xml:space="preserve" font-family="TimesNewRomanPSMT,Times New Roman" font-size="14.0" fill="#424242" transform="matrix(1.00, 0.00, -0.00, -1.00, 467.8, 130.7)">C</text><text xml:space="preserve" font-family="TimesNewRomanPSMT,Times New Roman" font-size="14.0" fill="#424242" transform="matrix(1.00, 0.00, -0.00, -1.00, 477.1, 130.7)">h</text><text xml:space="preserve" font-family="TimesNewRomanPSMT,Times New Roman" font-size="14.0" fill="#424242" transform="matrix(1.00, 0.00, -0.00, -1.00, 484.1, 130.7)">r</text><text xml:space="preserve" font-family="TimesNewRomanPSMT,Times New Roman" font-size="14.0" fill="#424242" transform="matrix(1.00, 0.00, -0.00, -1.00, 488.8, 130.7)">i</text><text xml:space="preserve" font-family="TimesNewRomanPSMT,Times New Roman" font-size="14.0" fill="#424242" transform="matrix(1.00, 0.00, -0.00, -1.00, 492.6, 130.7)">s</text><text xml:space="preserve" font-family="TimesNewRomanPSMT,Times New Roman" font-size="14.0" fill="#424242" transform="matrix(1.00, 0.00, -0.00, -1.00, 498.1, 130.7)">t</text><text xml:space="preserve" font-family="TimesNewRomanPSMT,Times New Roman" font-size="14.0" fill="#424242" transform="matrix(1.00, 0.00, -0.00, -1.00, 502.0, 130.7)">i</text><text xml:space="preserve" font-family="TimesNewRomanPSMT,Times New Roman" font-size="14.0" fill="#424242" transform="matrix(1.00, 0.00, -0.00, -1.00, 505.9, 130.7)">a</text><text xml:space="preserve" font-family="TimesNewRomanPSMT,Times New Roman" font-size="14.0" fill="#424242" transform="matrix(1.00, 0.00, -0.00, -1.00, 512.1, 130.7)">n</text><text xml:space="preserve" font-family="TimesNewRomanPSMT,Times New Roman" font-size="14.0" fill="#424242" transform="matrix(1.00, 0.00, -0.00, -1.00, 519.1, 130.7)"> </text><text xml:space="preserve" font-family="TimesNewRomanPSMT,Times New Roman" font-size="14.0" fill="#424242" transform="matrix(1.00, 0.00, -0.00, -1.00, 522.6, 130.7)">K</text><text xml:space="preserve" font-family="TimesNewRomanPSMT,Times New Roman" font-size="14.0" fill="#424242" transform="matrix(1.00, 0.00, -0.00, -1.00, 532.7, 130.7)">n</text><text xml:space="preserve" font-family="TimesNewRomanPSMT,Times New Roman" font-size="14.0" fill="#424242" transform="matrix(1.00, 0.00, -0.00, -1.00, 539.7, 130.7)">i</text><text xml:space="preserve" font-family="TimesNewRomanPSMT,Times New Roman" font-size="14.0" fill="#424242" transform="matrix(1.00, 0.00, -0.00, -1.00, 543.6, 130.7)">e</text><text xml:space="preserve" font-family="TimesNewRomanPSMT,Times New Roman" font-size="14.0" fill="#424242" transform="matrix(1.00, 0.00, -0.00, -1.00, 549.8, 130.7)">p</text><text xml:space="preserve" font-family="TimesNewRomanPSMT,Times New Roman" font-size="12.0" fill="#424242" transform="matrix(1.00, 0.00, -0.00, -1.00, 467.8, 102.9)">R</text><text xml:space="preserve" font-family="TimesNewRomanPSMT,Times New Roman" font-size="12.0" fill="#424242" transform="matrix(1.00, 0.00, -0.00, -1.00, 475.8, 102.9)">&amp;</text><text xml:space="preserve" font-family="TimesNewRomanPSMT,Times New Roman" font-size="12.0" fill="#424242" transform="matrix(1.00, 0.00, -0.00, -1.00, 485.1, 102.9)">D</text><text xml:space="preserve" font-family="TimesNewRomanPSMT,Times New Roman" font-size="12.0" fill="#424242" transform="matrix(1.00, 0.00, -0.00, -1.00, 493.8, 102.9)"> </text><text xml:space="preserve" font-family="TimesNewRomanPSMT,Times New Roman" font-size="12.0" fill="#424242" transform="matrix(1.00, 0.00, -0.00, -1.00, 496.8, 102.9)">H</text><text xml:space="preserve" font-family="TimesNewRomanPSMT,Times New Roman" font-size="12.0" fill="#424242" transform="matrix(1.00, 0.00, -0.00, -1.00, 505.4, 102.9)">P</text><text xml:space="preserve" font-family="TimesNewRomanPSMT,Times New Roman" font-size="12.0" fill="#424242" transform="matrix(1.00, 0.00, -0.00, -1.00, 512.1, 102.9)">C</text><text xml:space="preserve" font-family="TimesNewRomanPSMT,Times New Roman" font-size="12.0" fill="#424242" transform="matrix(1.00, 0.00, -0.00, -1.00, 520.1, 102.9)"> </text><text xml:space="preserve" font-family="TimesNewRomanPSMT,Times New Roman" font-size="12.0" fill="#424242" transform="matrix(1.00, 0.00, -0.00, -1.00, 523.1, 102.9)">E</text><text xml:space="preserve" font-family="TimesNewRomanPSMT,Times New Roman" font-size="12.0" fill="#424242" transform="matrix(1.00, 0.00, -0.00, -1.00, 530.4, 102.9)">n</text><text xml:space="preserve" font-family="TimesNewRomanPSMT,Times New Roman" font-size="12.0" fill="#424242" transform="matrix(1.00, 0.00, -0.00, -1.00, 536.4, 102.9)">g</text><text xml:space="preserve" font-family="TimesNewRomanPSMT,Times New Roman" font-size="12.0" fill="#424242" transform="matrix(1.00, 0.00, -0.00, -1.00, 542.4, 102.9)">i</text><text xml:space="preserve" font-family="TimesNewRomanPSMT,Times New Roman" font-size="12.0" fill="#424242" transform="matrix(1.00, 0.00, -0.00, -1.00, 545.8, 102.9)">n</text><text xml:space="preserve" font-family="TimesNewRomanPSMT,Times New Roman" font-size="12.0" fill="#424242" transform="matrix(1.00, 0.00, -0.00, -1.00, 551.8, 102.9)">e</text><text xml:space="preserve" font-family="TimesNewRomanPSMT,Times New Roman" font-size="12.0" fill="#424242" transform="matrix(1.00, 0.00, -0.00, -1.00, 557.1, 102.9)">e</text><text xml:space="preserve" font-family="TimesNewRomanPSMT,Times New Roman" font-size="12.0" fill="#424242" transform="matrix(1.00, 0.00, -0.00, -1.00, 562.4, 102.9)">r</text><text xml:space="preserve" font-family=".LucidaGrandeUI,.Lucida Grande UI" font-size="14.0" fill="#008E00" transform="matrix(1.00, 0.00, -0.00, -1.00, 341.7, 115.8)">2</text><text xml:space="preserve" font-family=".LucidaGrandeUI,.Lucida Grande UI" font-size="14.0" fill="#008E00" transform="matrix(1.00, 0.00, -0.00, -1.00, 350.6, 115.8)">0</text><text xml:space="preserve" font-family=".LucidaGrandeUI,.Lucida Grande UI" font-size="14.0" fill="#008E00" transform="matrix(1.00, 0.00, -0.00, -1.00, 359.4, 115.8)">1</text><text xml:space="preserve" font-family=".LucidaGrandeUI,.Lucida Grande UI" font-size="14.0" fill="#008E00" transform="matrix(1.00, 0.00, -0.00, -1.00, 368.3, 115.8)">4</text><text xml:space="preserve" font-family=".LucidaGrandeUI,.Lucida Grande UI" font-size="14.0" fill="#008E00" transform="matrix(1.00, 0.00, -0.00, -1.00, 377.2, 115.8)">-</text><text xml:space="preserve" font-family=".LucidaGrandeUI,.Lucida Grande UI" font-size="14.0" fill="#008E00" transform="matrix(1.00, 0.00, -0.00, -1.00, 385.2, 115.8)">0</text><text xml:space="preserve" font-family=".LucidaGrandeUI,.Lucida Grande UI" font-size="14.0" fill="#008E00" transform="matrix(1.00, 0.00, -0.00, -1.00, 394.1, 115.8)">6</text><text xml:space="preserve" font-family=".LucidaGrandeUI,.Lucida Grande UI" font-size="14.0" fill="#008E00" transform="matrix(1.00, 0.00, -0.00, -1.00, 403.0, 115.8)">-</text><text xml:space="preserve" font-family=".LucidaGrandeUI,.Lucida Grande UI" font-size="14.0" fill="#008E00" transform="matrix(1.00, 0.00, -0.00, -1.00, 411.1, 115.8)">2</text><text xml:space="preserve" font-family=".LucidaGrandeUI,.Lucida Grande UI" font-size="14.0" fill="#008E00" transform="matrix(1.00, 0.00, -0.00, -1.00, 419.9, 115.8)">4</text></g></svg>