<?xml version="1.0" encoding="UTF-8" standalone="no"?><svg xmlns="http://www.w3.org/2000/svg" xmlns:xlink="http://www.w3.org/1999/xlink" clip-rule="evenodd" stroke-miterlimit="10" viewBox="0 0 301 34"><desc>SVG generated by Keynote</desc><defs></defs><g transform="matrix(1.00, 0.00, -0.00, -1.00, 0.0, 34.0)"><text xml:space="preserve" font-family=".LucidaGrandeUI,.Lucida Grande UI" font-size="13.5" fill="#008E00" transform="matrix(1.00, 0.00, -0.00, -1.00, 35.7, 7.0)">•</text><text xml:space="preserve" font-family=".LucidaGrandeUI,.Lucida Grande UI" font-size="18.0" fill="#008E00" transform="matrix(1.00, 0.00, -0.00, -1.00, 59.1, 5.4)">a</text><text xml:space="preserve" font-family=".LucidaGrandeUI,.Lucida Grande UI" font-size="18.0" fill="#008E00" transform="matrix(1.00, 0.00, -0.00, -1.00, 69.0, 5.4)">n</text><text xml:space="preserve" font-family=".LucidaGrandeUI,.Lucida Grande UI" font-size="18.0" fill="#008E00" transform="matrix(1.00, 0.00, -0.00, -1.00, 80.2, 5.4)">d</text><text xml:space="preserve" font-family=".LucidaGrandeUI,.Lucida Grande UI" font-size="18.0" fill="#008E00" transform="matrix(1.00, 0.00, -0.00, -1.00, 91.5, 5.4)"> </text><text xml:space="preserve" font-family=".LucidaGrandeUI,.Lucida Grande UI" font-size="18.0" fill="#008E00" transform="matrix(1.00, 0.00, -0.00, -1.00, 97.2, 5.4)">t</text><text xml:space="preserve" font-family=".LucidaGrandeUI,.Lucida Grande UI" font-size="18.0" fill="#008E00" transform="matrix(1.00, 0.00, -0.00, -1.00, 103.9, 5.4)">h</text><text xml:space="preserve" font-family=".LucidaGrandeUI,.Lucida Grande UI" font-size="18.0" fill="#008E00" transform="matrix(1.00, 0.00, -0.00, -1.00, 115.1, 5.4)">e</text><text xml:space="preserve" font-family=".LucidaGrandeUI,.Lucida Grande UI" font-size="18.0" fill="#008E00" transform="matrix(1.00, 0.00, -0.00, -1.00, 125.1, 5.4)"> </text><text xml:space="preserve" font-family=".LucidaGrandeUI,.Lucida Grande UI" font-size="18.0" fill="#008E00" transform="matrix(1.00, 0.00, -0.00, -1.00, 130.8, 5.4)">o</text><text xml:space="preserve" font-family=".LucidaGrandeUI,.Lucida Grande UI" font-size="18.0" fill="#008E00" transform="matrix(1.00, 0.00, -0.00, -1.00, 141.9, 5.4)">t</text><text xml:space="preserve" font-family=".LucidaGrandeUI,.Lucida Grande UI" font-size="18.0" fill="#008E00" transform="matrix(1.00, 0.00, -0.00, -1.00, 148.6, 5.4)">h</text><text xml:space="preserve" font-family=".LucidaGrandeUI,.Lucida Grande UI" font-size="18.0" fill="#008E00" transform="matrix(1.00, 0.00, -0.00, -1.00, 159.8, 5.4)">e</text><text xml:space="preserve" font-family=".LucidaGrandeUI,.Lucida Grande UI" font-size="18.0" fill="#008E00" transform="matrix(1.00, 0.00, -0.00, -1.00, 169.8, 5.4)">r</text><text xml:space="preserve" font-family=".LucidaGrandeUI,.Lucida Grande UI" font-size="18.0" fill="#008E00" transform="matrix(1.00, 0.00, -0.00, -1.00, 177.2, 5.4)"> </text><text xml:space="preserve" font-family=".LucidaGrandeUI,.Lucida Grande UI" font-size="18.0" fill="#008E00" transform="matrix(1.00, 0.00, -0.00, -1.00, 182.9, 5.4)">w</text><text xml:space="preserve" font-family=".LucidaGrandeUI,.Lucida Grande UI" font-size="18.0" fill="#008E00" transform="matrix(1.00, 0.00, -0.00, -1.00, 196.8, 5.4)">a</text><text xml:space="preserve" font-family=".LucidaGrandeUI,.Lucida Grande UI" font-size="18.0" fill="#008E00" transform="matrix(1.00, 0.00, -0.00, -1.00, 206.7, 5.4)">y</text><text xml:space="preserve" font-family=".LucidaGrandeUI,.Lucida Grande UI" font-size="18.0" fill="#008E00" transform="matrix(1.00, 0.00, -0.00, -1.00, 216.0, 5.4)"> </text><text xml:space="preserve" font-family=".LucidaGrandeUI,.Lucida Grande UI" font-size="18.0" fill="#008E00" transform="matrix(1.00, 0.00, -0.00, -1.00, 221.7, 5.4)">a</text><text xml:space="preserve" font-family=".LucidaGrandeUI,.Lucida Grande UI" font-size="18.0" fill="#008E00" transform="matrix(1.00, 0.00, -0.00, -1.00, 231.6, 5.4)">r</text><text xml:space="preserve" font-family=".LucidaGrandeUI,.Lucida Grande UI" font-size="18.0" fill="#008E00" transform="matrix(1.00, 0.00, -0.00, -1.00, 239.0, 5.4)">o</text><text xml:space="preserve" font-family=".LucidaGrandeUI,.Lucida Grande UI" font-size="18.0" fill="#008E00" transform="matrix(1.00, 0.00, -0.00, -1.00, 250.0, 5.4)">u</text><text xml:space="preserve" font-family=".LucidaGrandeUI,.Lucida Grande UI" font-size="18.0" fill="#008E00" transform="matrix(1.00, 0.00, -0.00, -1.00, 261.2, 5.4)">n</text><text xml:space="preserve" font-family=".LucidaGrandeUI,.Lucida Grande UI" font-size="18.0" fill="#008E00" transform="matrix(1.00, 0.00, -0.00, -1.00, 272.4, 5.4)">d</text><text xml:space="preserve" font-family=".LucidaGrandeUI,.Lucida Grande UI" font-size="18.0" fill="#008E00" transform="matrix(1.00, 0.00, -0.00, -1.00, 283.7, 5.4)">…</text></g></svg>