<?xml version="1.0" encoding="UTF-8" standalone="no"?><svg xmlns="http://www.w3.org/2000/svg" xmlns:xlink="http://www.w3.org/1999/xlink" clip-rule="evenodd" stroke-miterlimit="10" viewBox="0 0 382 101"><desc>SVG generated by Keynote</desc><defs><pattern id="patternP1" patternUnits="userSpaceOnUse" width="600" height="600" viewBox="0 0 600 600"><image xlink:href="../../3B93A076-4E72-40AF-A817-43FF8D608A54/assets/80178DB44A976F13345376CE634CB034.png" width="600.00" height="600.00"></image></pattern></defs><g transform="matrix(1.00, 0.00, -0.00, -1.00, 0.0, 101.0)"><image xlink:href="36532306C871B7D5B5F0C2042595BD08.png" width="376.00" height="96.00" transform="matrix(1.00, 0.00, -0.00, -1.00, 4.8, 96.8)" opacity="0.79"></image><g><clipPath id="clip0x6080044b8ea0"><path d="M 5.0 96.0 L 377.0 96.0 L 377.0 4.0 L 5.0 4.0 Z M 5.2 96.1 "></path></clipPath><g clip-path="url(#clip0x6080044b8ea0)"><path d="M 5.0 4.0 L 377.0 4.0 L 377.0 96.0 L 5.0 96.0 Z M 5.0 4.0 " fill="url(#patternP1)"></path></g></g><g><clipPath id="clip0x6080044b9500"><path d="M 4.5 4.3 L 377.7 4.3 L 377.7 96.1 L 4.5 96.1 Z M 4.5 4.3 "></path></clipPath><g clip-path="url(#clip0x6080044b9500)"><text xml:space="preserve" font-family="Monaco,Monaco" font-size="15.0" fill="#FEFFFF" transform="matrix(1.00, 0.00, -0.00, -1.00, 12.4, 74.1)">r</text><text xml:space="preserve" font-family="Monaco,Monaco" font-size="15.0" fill="#FEFFFF" transform="matrix(1.00, 0.00, -0.00, -1.00, 21.4, 74.1)">e</text><text xml:space="preserve" font-family="Monaco,Monaco" font-size="15.0" fill="#FEFFFF" transform="matrix(1.00, 0.00, -0.00, -1.00, 30.4, 74.1)">q</text><text xml:space="preserve" font-family="Monaco,Monaco" font-size="15.0" fill="#FEFFFF" transform="matrix(1.00, 0.00, -0.00, -1.00, 39.4, 74.1)">u</text><text xml:space="preserve" font-family="Monaco,Monaco" font-size="15.0" fill="#FEFFFF" transform="matrix(1.00, 0.00, -0.00, -1.00, 48.4, 74.1)">e</text><text xml:space="preserve" font-family="Monaco,Monaco" font-size="15.0" fill="#FEFFFF" transform="matrix(1.00, 0.00, -0.00, -1.00, 57.4, 74.1)">s</text><text xml:space="preserve" font-family="Monaco,Monaco" font-size="15.0" fill="#FEFFFF" transform="matrix(1.00, 0.00, -0.00, -1.00, 66.4, 74.1)">t</text><text xml:space="preserve" font-family="Monaco,Monaco" font-size="15.0" fill="#FEFFFF" transform="matrix(1.00, 0.00, -0.00, -1.00, 75.4, 74.1)"> </text><text xml:space="preserve" font-family="Monaco,Monaco" font-size="15.0" fill="#FEFFFF" transform="matrix(1.00, 0.00, -0.00, -1.00, 84.4, 74.1)"> </text><text xml:space="preserve" font-family="Monaco,Monaco" font-size="15.0" fill="#FEFFFF" transform="matrix(1.00, 0.00, -0.00, -1.00, 93.4, 74.1)"> </text><text xml:space="preserve" font-family="Monaco,Monaco" font-size="15.0" fill="#FEFFFF" transform="matrix(1.00, 0.00, -0.00, -1.00, 102.5, 74.1)"> </text><text xml:space="preserve" font-family="Monaco,Monaco" font-size="15.0" fill="#FEFFFF" transform="matrix(1.00, 0.00, -0.00, -1.00, 111.5, 74.1)">=</text><text xml:space="preserve" font-family="Monaco,Monaco" font-size="15.0" fill="#FEFFFF" transform="matrix(1.00, 0.00, -0.00, -1.00, 120.5, 74.1)">&gt;</text><text xml:space="preserve" font-family="Monaco,Monaco" font-size="15.0" fill="#FEFFFF" transform="matrix(1.00, 0.00, -0.00, -1.00, 129.5, 74.1)"> </text><text xml:space="preserve" font-family="Monaco,Monaco" font-size="15.0" fill="#FEFFFF" transform="matrix(1.00, 0.00, -0.00, -1.00, 138.5, 74.1)">„</text><text xml:space="preserve" font-family="Monaco,Monaco" font-size="15.0" fill="#FEFFFF" transform="matrix(1.00, 0.00, -0.00, -1.00, 147.5, 74.1)">/</text><text xml:space="preserve" font-family="Monaco,Monaco" font-size="15.0" fill="#FEFFFF" transform="matrix(1.00, 0.00, -0.00, -1.00, 156.5, 74.1)">s</text><text xml:space="preserve" font-family="Monaco,Monaco" font-size="15.0" fill="#FEFFFF" transform="matrix(1.00, 0.00, -0.00, -1.00, 165.5, 74.1)">t</text><text xml:space="preserve" font-family="Monaco,Monaco" font-size="15.0" fill="#FEFFFF" transform="matrix(1.00, 0.00, -0.00, -1.00, 174.5, 74.1)">a</text><text xml:space="preserve" font-family="Monaco,Monaco" font-size="15.0" fill="#FEFFFF" transform="matrix(1.00, 0.00, -0.00, -1.00, 183.5, 74.1)">t</text><text xml:space="preserve" font-family="Monaco,Monaco" font-size="15.0" fill="#FEFFFF" transform="matrix(1.00, 0.00, -0.00, -1.00, 192.5, 74.1)">u</text><text xml:space="preserve" font-family="Monaco,Monaco" font-size="15.0" fill="#FEFFFF" transform="matrix(1.00, 0.00, -0.00, -1.00, 201.5, 74.1)">s</text><text xml:space="preserve" font-family="Monaco,Monaco" font-size="15.0" fill="#FEFFFF" transform="matrix(1.00, 0.00, -0.00, -1.00, 210.5, 74.1)">.</text><text xml:space="preserve" font-family="Monaco,Monaco" font-size="15.0" fill="#FEFFFF" transform="matrix(1.00, 0.00, -0.00, -1.00, 219.5, 74.1)">p</text><text xml:space="preserve" font-family="Monaco,Monaco" font-size="15.0" fill="#FEFFFF" transform="matrix(1.00, 0.00, -0.00, -1.00, 228.5, 74.1)">h</text><text xml:space="preserve" font-family="Monaco,Monaco" font-size="15.0" fill="#FEFFFF" transform="matrix(1.00, 0.00, -0.00, -1.00, 237.5, 74.1)">p</text><text xml:space="preserve" font-family="Monaco,Monaco" font-size="15.0" fill="#FEFFFF" transform="matrix(1.00, 0.00, -0.00, -1.00, 246.5, 74.1)">“</text><text xml:space="preserve" font-family="Monaco,Monaco" font-size="15.0" fill="#FEFFFF" transform="matrix(1.00, 0.00, -0.00, -1.00, 255.5, 74.1)">	</text><text xml:space="preserve" font-family="Monaco,Monaco" font-size="15.0" fill="#FEFFFF" transform="matrix(1.00, 0.00, -0.00, -1.00, 12.4, 54.1)">v</text><text xml:space="preserve" font-family="Monaco,Monaco" font-size="15.0" fill="#FEFFFF" transform="matrix(1.00, 0.00, -0.00, -1.00, 21.4, 54.1)">e</text><text xml:space="preserve" font-family="Monaco,Monaco" font-size="15.0" fill="#FEFFFF" transform="matrix(1.00, 0.00, -0.00, -1.00, 30.4, 54.1)">r</text><text xml:space="preserve" font-family="Monaco,Monaco" font-size="15.0" fill="#FEFFFF" transform="matrix(1.00, 0.00, -0.00, -1.00, 39.4, 54.1)">b</text><text xml:space="preserve" font-family="Monaco,Monaco" font-size="15.0" fill="#FEFFFF" transform="matrix(1.00, 0.00, -0.00, -1.00, 48.4, 54.1)"> </text><text xml:space="preserve" font-family="Monaco,Monaco" font-size="15.0" fill="#FEFFFF" transform="matrix(1.00, 0.00, -0.00, -1.00, 57.4, 54.1)"> </text><text xml:space="preserve" font-family="Monaco,Monaco" font-size="15.0" fill="#FEFFFF" transform="matrix(1.00, 0.00, -0.00, -1.00, 66.4, 54.1)"> </text><text xml:space="preserve" font-family="Monaco,Monaco" font-size="15.0" fill="#FEFFFF" transform="matrix(1.00, 0.00, -0.00, -1.00, 75.4, 54.1)"> </text><text xml:space="preserve" font-family="Monaco,Monaco" font-size="15.0" fill="#FEFFFF" transform="matrix(1.00, 0.00, -0.00, -1.00, 84.4, 54.1)"> </text><text xml:space="preserve" font-family="Monaco,Monaco" font-size="15.0" fill="#FEFFFF" transform="matrix(1.00, 0.00, -0.00, -1.00, 93.4, 54.1)"> </text><text xml:space="preserve" font-family="Monaco,Monaco" font-size="15.0" fill="#FEFFFF" transform="matrix(1.00, 0.00, -0.00, -1.00, 102.5, 54.1)"> </text><text xml:space="preserve" font-family="Monaco,Monaco" font-size="15.0" fill="#FEFFFF" transform="matrix(1.00, 0.00, -0.00, -1.00, 111.5, 54.1)">=</text><text xml:space="preserve" font-family="Monaco,Monaco" font-size="15.0" fill="#FEFFFF" transform="matrix(1.00, 0.00, -0.00, -1.00, 120.5, 54.1)">&gt;</text><text xml:space="preserve" font-family="Monaco,Monaco" font-size="15.0" fill="#FEFFFF" transform="matrix(1.00, 0.00, -0.00, -1.00, 129.5, 54.1)"> </text><text xml:space="preserve" font-family="Monaco,Monaco" font-size="15.0" fill="#FEFFFF" transform="matrix(1.00, 0.00, -0.00, -1.00, 138.5, 54.1)">„</text><text xml:space="preserve" font-family="Monaco,Monaco" font-size="15.0" fill="#FEFFFF" transform="matrix(1.00, 0.00, -0.00, -1.00, 147.5, 54.1)">G</text><text xml:space="preserve" font-family="Monaco,Monaco" font-size="15.0" fill="#FEFFFF" transform="matrix(1.00, 0.00, -0.00, -1.00, 156.5, 54.1)">E</text><text xml:space="preserve" font-family="Monaco,Monaco" font-size="15.0" fill="#FEFFFF" transform="matrix(1.00, 0.00, -0.00, -1.00, 165.5, 54.1)">T</text><text xml:space="preserve" font-family="Monaco,Monaco" font-size="15.0" fill="#FEFFFF" transform="matrix(1.00, 0.00, -0.00, -1.00, 174.5, 54.1)">“</text><text xml:space="preserve" font-family="Monaco,Monaco" font-size="15.0" fill="#FEFFFF" transform="matrix(1.00, 0.00, -0.00, -1.00, 183.5, 54.1)">	</text><text xml:space="preserve" font-family="Monaco,Monaco" font-size="15.0" fill="#FEFFFF" transform="matrix(1.00, 0.00, -0.00, -1.00, 12.4, 34.1)">@</text><text xml:space="preserve" font-family="Monaco,Monaco" font-size="15.0" fill="#FEFFFF" transform="matrix(1.00, 0.00, -0.00, -1.00, 21.4, 34.1)">t</text><text xml:space="preserve" font-family="Monaco,Monaco" font-size="15.0" fill="#FEFFFF" transform="matrix(1.00, 0.00, -0.00, -1.00, 30.4, 34.1)">i</text><text xml:space="preserve" font-family="Monaco,Monaco" font-size="15.0" fill="#FEFFFF" transform="matrix(1.00, 0.00, -0.00, -1.00, 39.4, 34.1)">m</text><text xml:space="preserve" font-family="Monaco,Monaco" font-size="15.0" fill="#FEFFFF" transform="matrix(1.00, 0.00, -0.00, -1.00, 48.4, 34.1)">e</text><text xml:space="preserve" font-family="Monaco,Monaco" font-size="15.0" fill="#FEFFFF" transform="matrix(1.00, 0.00, -0.00, -1.00, 57.4, 34.1)">s</text><text xml:space="preserve" font-family="Monaco,Monaco" font-size="15.0" fill="#FEFFFF" transform="matrix(1.00, 0.00, -0.00, -1.00, 66.4, 34.1)">t</text><text xml:space="preserve" font-family="Monaco,Monaco" font-size="15.0" fill="#FEFFFF" transform="matrix(1.00, 0.00, -0.00, -1.00, 75.4, 34.1)">a</text><text xml:space="preserve" font-family="Monaco,Monaco" font-size="15.0" fill="#FEFFFF" transform="matrix(1.00, 0.00, -0.00, -1.00, 84.4, 34.1)">m</text><text xml:space="preserve" font-family="Monaco,Monaco" font-size="15.0" fill="#FEFFFF" transform="matrix(1.00, 0.00, -0.00, -1.00, 93.4, 34.1)">p</text><text xml:space="preserve" font-family="Monaco,Monaco" font-size="15.0" fill="#FEFFFF" transform="matrix(1.00, 0.00, -0.00, -1.00, 102.5, 34.1)"> </text><text xml:space="preserve" font-family="Monaco,Monaco" font-size="15.0" fill="#FEFFFF" transform="matrix(1.00, 0.00, -0.00, -1.00, 111.5, 34.1)">=</text><text xml:space="preserve" font-family="Monaco,Monaco" font-size="15.0" fill="#FEFFFF" transform="matrix(1.00, 0.00, -0.00, -1.00, 120.5, 34.1)">&gt;</text><text xml:space="preserve" font-family="Monaco,Monaco" font-size="15.0" fill="#FEFFFF" transform="matrix(1.00, 0.00, -0.00, -1.00, 129.5, 34.1)"> </text><text xml:space="preserve" font-family="Monaco,Monaco" font-size="15.0" fill="#8DF900" transform="matrix(1.00, 0.00, -0.00, -1.00, 138.4, 34.1)">2</text><text xml:space="preserve" font-family="Monaco,Monaco" font-size="15.0" fill="#8DF900" transform="matrix(1.00, 0.00, -0.00, -1.00, 147.4, 34.1)">0</text><text xml:space="preserve" font-family="Monaco,Monaco" font-size="15.0" fill="#8DF900" transform="matrix(1.00, 0.00, -0.00, -1.00, 156.4, 34.1)">1</text><text xml:space="preserve" font-family="Monaco,Monaco" font-size="15.0" fill="#8DF900" transform="matrix(1.00, 0.00, -0.00, -1.00, 165.5, 34.1)">3</text><text xml:space="preserve" font-family="Monaco,Monaco" font-size="15.0" fill="#8DF900" transform="matrix(1.00, 0.00, -0.00, -1.00, 174.5, 34.1)">-</text><text xml:space="preserve" font-family="Monaco,Monaco" font-size="15.0" fill="#8DF900" transform="matrix(1.00, 0.00, -0.00, -1.00, 183.5, 34.1)">1</text><text xml:space="preserve" font-family="Monaco,Monaco" font-size="15.0" fill="#8DF900" transform="matrix(1.00, 0.00, -0.00, -1.00, 192.5, 34.1)">2</text><text xml:space="preserve" font-family="Monaco,Monaco" font-size="15.0" fill="#8DF900" transform="matrix(1.00, 0.00, -0.00, -1.00, 201.5, 34.1)">-</text><text xml:space="preserve" font-family="Monaco,Monaco" font-size="15.0" fill="#8DF900" transform="matrix(1.00, 0.00, -0.00, -1.00, 210.5, 34.1)">1</text><text xml:space="preserve" font-family="Monaco,Monaco" font-size="15.0" fill="#8DF900" transform="matrix(1.00, 0.00, -0.00, -1.00, 219.5, 34.1)">1</text><text xml:space="preserve" font-family="Monaco,Monaco" font-size="15.0" fill="#FEFFFF" transform="matrix(1.00, 0.00, -0.00, -1.00, 228.5, 34.1)"> </text><text xml:space="preserve" font-family="Monaco,Monaco" font-size="15.0" fill="#FEFFFF" transform="matrix(1.00, 0.00, -0.00, -1.00, 237.5, 34.1)">[</text><text xml:space="preserve" font-family="Monaco,Monaco" font-size="15.0" fill="#FEFFFF" transform="matrix(1.00, 0.00, -0.00, -1.00, 246.5, 34.1)">…</text><text xml:space="preserve" font-family="Monaco,Monaco" font-size="15.0" fill="#FEFFFF" transform="matrix(1.00, 0.00, -0.00, -1.00, 255.5, 34.1)">]</text><text xml:space="preserve" font-family="Monaco,Monaco" font-size="15.0" fill="#FEFFFF" transform="matrix(1.00, 0.00, -0.00, -1.00, 264.5, 34.1)">	</text><text xml:space="preserve" font-family="Monaco,Monaco" font-size="15.0" fill="#FEFFFF" transform="matrix(1.00, 0.00, -0.00, -1.00, 12.4, 14.1)">t</text><text xml:space="preserve" font-family="Monaco,Monaco" font-size="15.0" fill="#FEFFFF" transform="matrix(1.00, 0.00, -0.00, -1.00, 21.4, 14.1)">i</text><text xml:space="preserve" font-family="Monaco,Monaco" font-size="15.0" fill="#FEFFFF" transform="matrix(1.00, 0.00, -0.00, -1.00, 30.4, 14.1)">m</text><text xml:space="preserve" font-family="Monaco,Monaco" font-size="15.0" fill="#FEFFFF" transform="matrix(1.00, 0.00, -0.00, -1.00, 39.4, 14.1)">e</text><text xml:space="preserve" font-family="Monaco,Monaco" font-size="15.0" fill="#FEFFFF" transform="matrix(1.00, 0.00, -0.00, -1.00, 48.4, 14.1)">s</text><text xml:space="preserve" font-family="Monaco,Monaco" font-size="15.0" fill="#FEFFFF" transform="matrix(1.00, 0.00, -0.00, -1.00, 57.4, 14.1)">t</text><text xml:space="preserve" font-family="Monaco,Monaco" font-size="15.0" fill="#FEFFFF" transform="matrix(1.00, 0.00, -0.00, -1.00, 66.4, 14.1)">a</text><text xml:space="preserve" font-family="Monaco,Monaco" font-size="15.0" fill="#FEFFFF" transform="matrix(1.00, 0.00, -0.00, -1.00, 75.4, 14.1)">m</text><text xml:space="preserve" font-family="Monaco,Monaco" font-size="15.0" fill="#FEFFFF" transform="matrix(1.00, 0.00, -0.00, -1.00, 84.4, 14.1)">p</text><text xml:space="preserve" font-family="Monaco,Monaco" font-size="15.0" fill="#FEFFFF" transform="matrix(1.00, 0.00, -0.00, -1.00, 93.4, 14.1)"> </text><text xml:space="preserve" font-family="Monaco,Monaco" font-size="15.0" fill="#FEFFFF" transform="matrix(1.00, 0.00, -0.00, -1.00, 102.5, 14.1)"> </text><text xml:space="preserve" font-family="Monaco,Monaco" font-size="15.0" fill="#FEFFFF" transform="matrix(1.00, 0.00, -0.00, -1.00, 111.5, 14.1)">=</text><text xml:space="preserve" font-family="Monaco,Monaco" font-size="15.0" fill="#FEFFFF" transform="matrix(1.00, 0.00, -0.00, -1.00, 120.5, 14.1)">&gt;</text><text xml:space="preserve" font-family="Monaco,Monaco" font-size="15.0" fill="#FEFFFF" transform="matrix(1.00, 0.00, -0.00, -1.00, 129.5, 14.1)"> </text><text xml:space="preserve" font-family="Monaco,Monaco" font-size="15.0" fill="#FEFFFF" transform="matrix(1.00, 0.00, -0.00, -1.00, 138.5, 14.1)">2</text><text xml:space="preserve" font-family="Monaco,Monaco" font-size="15.0" fill="#FEFFFF" transform="matrix(1.00, 0.00, -0.00, -1.00, 147.5, 14.1)">0</text><text xml:space="preserve" font-family="Monaco,Monaco" font-size="15.0" fill="#FEFFFF" transform="matrix(1.00, 0.00, -0.00, -1.00, 156.5, 14.1)">1</text><text xml:space="preserve" font-family="Monaco,Monaco" font-size="15.0" fill="#FEFFFF" transform="matrix(1.00, 0.00, -0.00, -1.00, 165.5, 14.1)">3</text><text xml:space="preserve" font-family="Monaco,Monaco" font-size="15.0" fill="#FEFFFF" transform="matrix(1.00, 0.00, -0.00, -1.00, 174.5, 14.1)">-</text><text xml:space="preserve" font-family="Monaco,Monaco" font-size="15.0" fill="#FEFFFF" transform="matrix(1.00, 0.00, -0.00, -1.00, 183.5, 14.1)">1</text><text xml:space="preserve" font-family="Monaco,Monaco" font-size="15.0" fill="#FEFFFF" transform="matrix(1.00, 0.00, -0.00, -1.00, 192.5, 14.1)">2</text><text xml:space="preserve" font-family="Monaco,Monaco" font-size="15.0" fill="#FEFFFF" transform="matrix(1.00, 0.00, -0.00, -1.00, 201.5, 14.1)">-</text><text xml:space="preserve" font-family="Monaco,Monaco" font-size="15.0" fill="#FEFFFF" transform="matrix(1.00, 0.00, -0.00, -1.00, 210.5, 14.1)">1</text><text xml:space="preserve" font-family="Monaco,Monaco" font-size="15.0" fill="#FEFFFF" transform="matrix(1.00, 0.00, -0.00, -1.00, 219.5, 14.1)">1</text><text xml:space="preserve" font-family="Monaco,Monaco" font-size="15.0" fill="#FEFFFF" transform="matrix(1.00, 0.00, -0.00, -1.00, 228.5, 14.1)"> </text><text xml:space="preserve" font-family="Monaco,Monaco" font-size="15.0" fill="#FEFFFF" transform="matrix(1.00, 0.00, -0.00, -1.00, 237.5, 14.1)">[</text><text xml:space="preserve" font-family="Monaco,Monaco" font-size="15.0" fill="#FEFFFF" transform="matrix(1.00, 0.00, -0.00, -1.00, 246.5, 14.1)">…</text><text xml:space="preserve" font-family="Monaco,Monaco" font-size="15.0" fill="#FEFFFF" transform="matrix(1.00, 0.00, -0.00, -1.00, 255.5, 14.1)">]</text></g></g></g></svg>