<?xml version="1.0" encoding="UTF-8" standalone="no"?><svg xmlns="http://www.w3.org/2000/svg" xmlns:xlink="http://www.w3.org/1999/xlink" clip-rule="evenodd" stroke-miterlimit="10" viewBox="0 0 382 102"><desc>SVG generated by Keynote</desc><defs><pattern id="patternP1" patternUnits="userSpaceOnUse" width="600" height="600" viewBox="0 0 600 600"><image xlink:href="../../3B93A076-4E72-40AF-A817-43FF8D608A54/assets/80178DB44A976F13345376CE634CB034.png" width="600.00" height="600.00"></image></pattern></defs><g transform="matrix(1.00, 0.00, -0.00, -1.00, 0.0, 102.0)"><image xlink:href="5BCF231A8E7A52F2E8BB8D2365459ADB.png" width="376.00" height="96.00" transform="matrix(1.00, 0.00, -0.00, -1.00, 4.8, 97.7)" opacity="0.79"></image><g><clipPath id="clip0x600002ebb6c0"><path d="M 5.0 97.0 L 377.0 97.0 L 377.0 5.0 L 5.0 5.0 Z M 5.2 97.0 "></path></clipPath><g clip-path="url(#clip0x600002ebb6c0)"><path d="M 5.0 5.0 L 377.0 5.0 L 377.0 97.0 L 5.0 97.0 Z M 5.0 5.0 " fill="url(#patternP1)"></path></g></g><g><clipPath id="clip0x600002ebbba0"><path d="M 4.5 5.2 L 377.7 5.2 L 377.7 97.0 L 4.5 97.0 Z M 4.5 5.2 "></path></clipPath><g clip-path="url(#clip0x600002ebbba0)"><text xml:space="preserve" font-family="Monaco,Monaco" font-size="15.0" fill="#FEFFFF" transform="matrix(1.00, 0.00, -0.00, -1.00, 12.4, 75.0)">m</text><text xml:space="preserve" font-family="Monaco,Monaco" font-size="15.0" fill="#FEFFFF" transform="matrix(1.00, 0.00, -0.00, -1.00, 21.4, 75.0)">e</text><text xml:space="preserve" font-family="Monaco,Monaco" font-size="15.0" fill="#FEFFFF" transform="matrix(1.00, 0.00, -0.00, -1.00, 30.4, 75.0)">s</text><text xml:space="preserve" font-family="Monaco,Monaco" font-size="15.0" fill="#FEFFFF" transform="matrix(1.00, 0.00, -0.00, -1.00, 39.4, 75.0)">s</text><text xml:space="preserve" font-family="Monaco,Monaco" font-size="15.0" fill="#FEFFFF" transform="matrix(1.00, 0.00, -0.00, -1.00, 48.4, 75.0)">a</text><text xml:space="preserve" font-family="Monaco,Monaco" font-size="15.0" fill="#FEFFFF" transform="matrix(1.00, 0.00, -0.00, -1.00, 57.4, 75.0)">g</text><text xml:space="preserve" font-family="Monaco,Monaco" font-size="15.0" fill="#FEFFFF" transform="matrix(1.00, 0.00, -0.00, -1.00, 66.4, 75.0)">e</text><text xml:space="preserve" font-family="Monaco,Monaco" font-size="15.0" fill="#FEFFFF" transform="matrix(1.00, 0.00, -0.00, -1.00, 75.4, 75.0)"> </text><text xml:space="preserve" font-family="Monaco,Monaco" font-size="15.0" fill="#FEFFFF" transform="matrix(1.00, 0.00, -0.00, -1.00, 84.4, 75.0)"> </text><text xml:space="preserve" font-family="Monaco,Monaco" font-size="15.0" fill="#FEFFFF" transform="matrix(1.00, 0.00, -0.00, -1.00, 93.4, 75.0)"> </text><text xml:space="preserve" font-family="Monaco,Monaco" font-size="15.0" fill="#FEFFFF" transform="matrix(1.00, 0.00, -0.00, -1.00, 102.5, 75.0)"> </text><text xml:space="preserve" font-family="Monaco,Monaco" font-size="15.0" fill="#FEFFFF" transform="matrix(1.00, 0.00, -0.00, -1.00, 111.5, 75.0)">=</text><text xml:space="preserve" font-family="Monaco,Monaco" font-size="15.0" fill="#FEFFFF" transform="matrix(1.00, 0.00, -0.00, -1.00, 120.5, 75.0)">&gt;</text><text xml:space="preserve" font-family="Monaco,Monaco" font-size="15.0" fill="#FEFFFF" transform="matrix(1.00, 0.00, -0.00, -1.00, 129.5, 75.0)"> </text><text xml:space="preserve" font-family="Monaco,Monaco" font-size="15.0" fill="#FEFFFF" transform="matrix(1.00, 0.00, -0.00, -1.00, 138.5, 75.0)">„</text><text xml:space="preserve" font-family="Monaco,Monaco" font-size="15.0" fill="#FEFFFF" transform="matrix(1.00, 0.00, -0.00, -1.00, 147.5, 75.0)">1</text><text xml:space="preserve" font-family="Monaco,Monaco" font-size="15.0" fill="#FEFFFF" transform="matrix(1.00, 0.00, -0.00, -1.00, 156.5, 75.0)">2</text><text xml:space="preserve" font-family="Monaco,Monaco" font-size="15.0" fill="#FEFFFF" transform="matrix(1.00, 0.00, -0.00, -1.00, 165.5, 75.0)">7</text><text xml:space="preserve" font-family="Monaco,Monaco" font-size="15.0" fill="#FEFFFF" transform="matrix(1.00, 0.00, -0.00, -1.00, 174.5, 75.0)">.</text><text xml:space="preserve" font-family="Monaco,Monaco" font-size="15.0" fill="#FEFFFF" transform="matrix(1.00, 0.00, -0.00, -1.00, 183.5, 75.0)">0</text><text xml:space="preserve" font-family="Monaco,Monaco" font-size="15.0" fill="#FEFFFF" transform="matrix(1.00, 0.00, -0.00, -1.00, 192.5, 75.0)">.</text><text xml:space="preserve" font-family="Monaco,Monaco" font-size="15.0" fill="#FEFFFF" transform="matrix(1.00, 0.00, -0.00, -1.00, 201.5, 75.0)">0</text><text xml:space="preserve" font-family="Monaco,Monaco" font-size="15.0" fill="#FEFFFF" transform="matrix(1.00, 0.00, -0.00, -1.00, 210.5, 75.0)">.</text><text xml:space="preserve" font-family="Monaco,Monaco" font-size="15.0" fill="#FEFFFF" transform="matrix(1.00, 0.00, -0.00, -1.00, 219.5, 75.0)">1</text><text xml:space="preserve" font-family="Monaco,Monaco" font-size="15.0" fill="#FEFFFF" transform="matrix(1.00, 0.00, -0.00, -1.00, 228.5, 75.0)"> </text><text xml:space="preserve" font-family="Monaco,Monaco" font-size="15.0" fill="#FEFFFF" transform="matrix(1.00, 0.00, -0.00, -1.00, 237.5, 75.0)">-</text><text xml:space="preserve" font-family="Monaco,Monaco" font-size="15.0" fill="#FEFFFF" transform="matrix(1.00, 0.00, -0.00, -1.00, 246.5, 75.0)">-</text><text xml:space="preserve" font-family="Monaco,Monaco" font-size="15.0" fill="#FEFFFF" transform="matrix(1.00, 0.00, -0.00, -1.00, 255.5, 75.0)"> </text><text xml:space="preserve" font-family="Monaco,Monaco" font-size="15.0" fill="#FEFFFF" transform="matrix(1.00, 0.00, -0.00, -1.00, 264.5, 75.0)">[</text><text xml:space="preserve" font-family="Monaco,Monaco" font-size="15.0" fill="#FEFFFF" transform="matrix(1.00, 0.00, -0.00, -1.00, 273.5, 75.0)">1</text><text xml:space="preserve" font-family="Monaco,Monaco" font-size="15.0" fill="#FEFFFF" transform="matrix(1.00, 0.00, -0.00, -1.00, 282.5, 75.0)">1</text><text xml:space="preserve" font-family="Monaco,Monaco" font-size="15.0" fill="#FEFFFF" transform="matrix(1.00, 0.00, -0.00, -1.00, 291.5, 75.0)">/</text><text xml:space="preserve" font-family="Monaco,Monaco" font-size="15.0" fill="#FEFFFF" transform="matrix(1.00, 0.00, -0.00, -1.00, 300.5, 75.0)">D</text><text xml:space="preserve" font-family="Monaco,Monaco" font-size="15.0" fill="#FEFFFF" transform="matrix(1.00, 0.00, -0.00, -1.00, 309.5, 75.0)">e</text><text xml:space="preserve" font-family="Monaco,Monaco" font-size="15.0" fill="#FEFFFF" transform="matrix(1.00, 0.00, -0.00, -1.00, 318.5, 75.0)">c</text><text xml:space="preserve" font-family="Monaco,Monaco" font-size="15.0" fill="#FEFFFF" transform="matrix(1.00, 0.00, -0.00, -1.00, 327.5, 75.0)">…</text><text xml:space="preserve" font-family="Monaco,Monaco" font-size="15.0" fill="#FEFFFF" transform="matrix(1.00, 0.00, -0.00, -1.00, 336.5, 75.0)">	</text><text xml:space="preserve" font-family="Monaco,Monaco" font-size="15.0" fill="#FEFFFF" transform="matrix(1.00, 0.00, -0.00, -1.00, 12.4, 55.0)">v</text><text xml:space="preserve" font-family="Monaco,Monaco" font-size="15.0" fill="#FEFFFF" transform="matrix(1.00, 0.00, -0.00, -1.00, 21.4, 55.0)">e</text><text xml:space="preserve" font-family="Monaco,Monaco" font-size="15.0" fill="#FEFFFF" transform="matrix(1.00, 0.00, -0.00, -1.00, 30.4, 55.0)">r</text><text xml:space="preserve" font-family="Monaco,Monaco" font-size="15.0" fill="#FEFFFF" transform="matrix(1.00, 0.00, -0.00, -1.00, 39.4, 55.0)">s</text><text xml:space="preserve" font-family="Monaco,Monaco" font-size="15.0" fill="#FEFFFF" transform="matrix(1.00, 0.00, -0.00, -1.00, 48.4, 55.0)">i</text><text xml:space="preserve" font-family="Monaco,Monaco" font-size="15.0" fill="#FEFFFF" transform="matrix(1.00, 0.00, -0.00, -1.00, 57.4, 55.0)">o</text><text xml:space="preserve" font-family="Monaco,Monaco" font-size="15.0" fill="#FEFFFF" transform="matrix(1.00, 0.00, -0.00, -1.00, 66.4, 55.0)">n</text><text xml:space="preserve" font-family="Monaco,Monaco" font-size="15.0" fill="#FEFFFF" transform="matrix(1.00, 0.00, -0.00, -1.00, 75.4, 55.0)"> </text><text xml:space="preserve" font-family="Monaco,Monaco" font-size="15.0" fill="#FEFFFF" transform="matrix(1.00, 0.00, -0.00, -1.00, 84.4, 55.0)"> </text><text xml:space="preserve" font-family="Monaco,Monaco" font-size="15.0" fill="#FEFFFF" transform="matrix(1.00, 0.00, -0.00, -1.00, 93.4, 55.0)"> </text><text xml:space="preserve" font-family="Monaco,Monaco" font-size="15.0" fill="#FEFFFF" transform="matrix(1.00, 0.00, -0.00, -1.00, 102.5, 55.0)"> </text><text xml:space="preserve" font-family="Monaco,Monaco" font-size="15.0" fill="#FEFFFF" transform="matrix(1.00, 0.00, -0.00, -1.00, 111.5, 55.0)">=</text><text xml:space="preserve" font-family="Monaco,Monaco" font-size="15.0" fill="#FEFFFF" transform="matrix(1.00, 0.00, -0.00, -1.00, 120.5, 55.0)">&gt;</text><text xml:space="preserve" font-family="Monaco,Monaco" font-size="15.0" fill="#FEFFFF" transform="matrix(1.00, 0.00, -0.00, -1.00, 129.5, 55.0)"> </text><text xml:space="preserve" font-family="Monaco,Monaco" font-size="15.0" fill="#FEFFFF" transform="matrix(1.00, 0.00, -0.00, -1.00, 138.5, 55.0)">„</text><text xml:space="preserve" font-family="Monaco,Monaco" font-size="15.0" fill="#FEFFFF" transform="matrix(1.00, 0.00, -0.00, -1.00, 147.5, 55.0)">1</text><text xml:space="preserve" font-family="Monaco,Monaco" font-size="15.0" fill="#FEFFFF" transform="matrix(1.00, 0.00, -0.00, -1.00, 156.5, 55.0)">“</text><text xml:space="preserve" font-family="Monaco,Monaco" font-size="15.0" fill="#FEFFFF" transform="matrix(1.00, 0.00, -0.00, -1.00, 165.5, 55.0)">	</text><text xml:space="preserve" font-family="Monaco,Monaco" font-size="15.0" fill="#FEFFFF" transform="matrix(1.00, 0.00, -0.00, -1.00, 12.4, 35.0)">@</text><text xml:space="preserve" font-family="Monaco,Monaco" font-size="15.0" fill="#FEFFFF" transform="matrix(1.00, 0.00, -0.00, -1.00, 21.4, 35.0)">t</text><text xml:space="preserve" font-family="Monaco,Monaco" font-size="15.0" fill="#FEFFFF" transform="matrix(1.00, 0.00, -0.00, -1.00, 30.4, 35.0)">i</text><text xml:space="preserve" font-family="Monaco,Monaco" font-size="15.0" fill="#FEFFFF" transform="matrix(1.00, 0.00, -0.00, -1.00, 39.4, 35.0)">m</text><text xml:space="preserve" font-family="Monaco,Monaco" font-size="15.0" fill="#FEFFFF" transform="matrix(1.00, 0.00, -0.00, -1.00, 48.4, 35.0)">e</text><text xml:space="preserve" font-family="Monaco,Monaco" font-size="15.0" fill="#FEFFFF" transform="matrix(1.00, 0.00, -0.00, -1.00, 57.4, 35.0)">s</text><text xml:space="preserve" font-family="Monaco,Monaco" font-size="15.0" fill="#FEFFFF" transform="matrix(1.00, 0.00, -0.00, -1.00, 66.4, 35.0)">t</text><text xml:space="preserve" font-family="Monaco,Monaco" font-size="15.0" fill="#FEFFFF" transform="matrix(1.00, 0.00, -0.00, -1.00, 75.4, 35.0)">a</text><text xml:space="preserve" font-family="Monaco,Monaco" font-size="15.0" fill="#FEFFFF" transform="matrix(1.00, 0.00, -0.00, -1.00, 84.4, 35.0)">m</text><text xml:space="preserve" font-family="Monaco,Monaco" font-size="15.0" fill="#FEFFFF" transform="matrix(1.00, 0.00, -0.00, -1.00, 93.4, 35.0)">p</text><text xml:space="preserve" font-family="Monaco,Monaco" font-size="15.0" fill="#FEFFFF" transform="matrix(1.00, 0.00, -0.00, -1.00, 102.5, 35.0)"> </text><text xml:space="preserve" font-family="Monaco,Monaco" font-size="15.0" fill="#FEFFFF" transform="matrix(1.00, 0.00, -0.00, -1.00, 111.5, 35.0)">=</text><text xml:space="preserve" font-family="Monaco,Monaco" font-size="15.0" fill="#FEFFFF" transform="matrix(1.00, 0.00, -0.00, -1.00, 120.5, 35.0)">&gt;</text><text xml:space="preserve" font-family="Monaco,Monaco" font-size="15.0" fill="#FEFFFF" transform="matrix(1.00, 0.00, -0.00, -1.00, 129.5, 35.0)"> </text><text xml:space="preserve" font-family="Monaco,Monaco" font-size="15.0" fill="#FEFFFF" transform="matrix(1.00, 0.00, -0.00, -1.00, 138.5, 35.0)">„</text><text xml:space="preserve" font-family="Monaco,Monaco" font-size="15.0" fill="#FEFFFF" transform="matrix(1.00, 0.00, -0.00, -1.00, 147.5, 35.0)">2</text><text xml:space="preserve" font-family="Monaco,Monaco" font-size="15.0" fill="#FEFFFF" transform="matrix(1.00, 0.00, -0.00, -1.00, 156.5, 35.0)">0</text><text xml:space="preserve" font-family="Monaco,Monaco" font-size="15.0" fill="#FEFFFF" transform="matrix(1.00, 0.00, -0.00, -1.00, 165.5, 35.0)">1</text><text xml:space="preserve" font-family="Monaco,Monaco" font-size="15.0" fill="#FEFFFF" transform="matrix(1.00, 0.00, -0.00, -1.00, 174.5, 35.0)">4</text><text xml:space="preserve" font-family="Monaco,Monaco" font-size="15.0" fill="#FEFFFF" transform="matrix(1.00, 0.00, -0.00, -1.00, 183.5, 35.0)">-</text><text xml:space="preserve" font-family="Monaco,Monaco" font-size="15.0" fill="#FEFFFF" transform="matrix(1.00, 0.00, -0.00, -1.00, 192.5, 35.0)">0</text><text xml:space="preserve" font-family="Monaco,Monaco" font-size="15.0" fill="#FEFFFF" transform="matrix(1.00, 0.00, -0.00, -1.00, 201.5, 35.0)">6</text><text xml:space="preserve" font-family="Monaco,Monaco" font-size="15.0" fill="#FEFFFF" transform="matrix(1.00, 0.00, -0.00, -1.00, 210.5, 35.0)">-</text><text xml:space="preserve" font-family="Monaco,Monaco" font-size="15.0" fill="#FEFFFF" transform="matrix(1.00, 0.00, -0.00, -1.00, 219.5, 35.0)">2</text><text xml:space="preserve" font-family="Monaco,Monaco" font-size="15.0" fill="#FEFFFF" transform="matrix(1.00, 0.00, -0.00, -1.00, 228.5, 35.0)">4</text><text xml:space="preserve" font-family="Monaco,Monaco" font-size="15.0" fill="#FEFFFF" transform="matrix(1.00, 0.00, -0.00, -1.00, 237.5, 35.0)"> </text><text xml:space="preserve" font-family="Monaco,Monaco" font-size="15.0" fill="#FEFFFF" transform="matrix(1.00, 0.00, -0.00, -1.00, 246.5, 35.0)">[</text><text xml:space="preserve" font-family="Monaco,Monaco" font-size="15.0" fill="#FEFFFF" transform="matrix(1.00, 0.00, -0.00, -1.00, 255.5, 35.0)">…</text><text xml:space="preserve" font-family="Monaco,Monaco" font-size="15.0" fill="#FEFFFF" transform="matrix(1.00, 0.00, -0.00, -1.00, 264.5, 35.0)">]</text><text xml:space="preserve" font-family="Monaco,Monaco" font-size="15.0" fill="#FEFFFF" transform="matrix(1.00, 0.00, -0.00, -1.00, 273.5, 35.0)">“</text><text xml:space="preserve" font-family="Monaco,Monaco" font-size="15.0" fill="#FEFFFF" transform="matrix(1.00, 0.00, -0.00, -1.00, 282.5, 35.0)">	</text><text xml:space="preserve" font-family="Monaco,Monaco" font-size="15.0" fill="#FEFFFF" transform="matrix(1.00, 0.00, -0.00, -1.00, 12.4, 15.0)">h</text><text xml:space="preserve" font-family="Monaco,Monaco" font-size="15.0" fill="#FEFFFF" transform="matrix(1.00, 0.00, -0.00, -1.00, 21.4, 15.0)">o</text><text xml:space="preserve" font-family="Monaco,Monaco" font-size="15.0" fill="#FEFFFF" transform="matrix(1.00, 0.00, -0.00, -1.00, 30.4, 15.0)">s</text><text xml:space="preserve" font-family="Monaco,Monaco" font-size="15.0" fill="#FEFFFF" transform="matrix(1.00, 0.00, -0.00, -1.00, 39.4, 15.0)">t</text><text xml:space="preserve" font-family="Monaco,Monaco" font-size="15.0" fill="#FEFFFF" transform="matrix(1.00, 0.00, -0.00, -1.00, 48.4, 15.0)"> </text><text xml:space="preserve" font-family="Monaco,Monaco" font-size="15.0" fill="#FEFFFF" transform="matrix(1.00, 0.00, -0.00, -1.00, 57.4, 15.0)"> </text><text xml:space="preserve" font-family="Monaco,Monaco" font-size="15.0" fill="#FEFFFF" transform="matrix(1.00, 0.00, -0.00, -1.00, 66.4, 15.0)"> </text><text xml:space="preserve" font-family="Monaco,Monaco" font-size="15.0" fill="#FEFFFF" transform="matrix(1.00, 0.00, -0.00, -1.00, 75.4, 15.0)"> </text><text xml:space="preserve" font-family="Monaco,Monaco" font-size="15.0" fill="#FEFFFF" transform="matrix(1.00, 0.00, -0.00, -1.00, 84.4, 15.0)"> </text><text xml:space="preserve" font-family="Monaco,Monaco" font-size="15.0" fill="#FEFFFF" transform="matrix(1.00, 0.00, -0.00, -1.00, 93.4, 15.0)"> </text><text xml:space="preserve" font-family="Monaco,Monaco" font-size="15.0" fill="#FEFFFF" transform="matrix(1.00, 0.00, -0.00, -1.00, 102.5, 15.0)"> </text><text xml:space="preserve" font-family="Monaco,Monaco" font-size="15.0" fill="#FEFFFF" transform="matrix(1.00, 0.00, -0.00, -1.00, 111.5, 15.0)">=</text><text xml:space="preserve" font-family="Monaco,Monaco" font-size="15.0" fill="#FEFFFF" transform="matrix(1.00, 0.00, -0.00, -1.00, 120.5, 15.0)">&gt;</text><text xml:space="preserve" font-family="Monaco,Monaco" font-size="15.0" fill="#FEFFFF" transform="matrix(1.00, 0.00, -0.00, -1.00, 129.5, 15.0)"> </text><text xml:space="preserve" font-family="Monaco,Monaco" font-size="15.0" fill="#FEFFFF" transform="matrix(1.00, 0.00, -0.00, -1.00, 138.5, 15.0)">„</text><text xml:space="preserve" font-family="Monaco,Monaco" font-size="15.0" fill="#FEFFFF" transform="matrix(1.00, 0.00, -0.00, -1.00, 147.5, 15.0)">e</text><text xml:space="preserve" font-family="Monaco,Monaco" font-size="15.0" fill="#FEFFFF" transform="matrix(1.00, 0.00, -0.00, -1.00, 156.5, 15.0)">l</text><text xml:space="preserve" font-family="Monaco,Monaco" font-size="15.0" fill="#FEFFFF" transform="matrix(1.00, 0.00, -0.00, -1.00, 165.5, 15.0)">k</text><text xml:space="preserve" font-family="Monaco,Monaco" font-size="15.0" fill="#FEFFFF" transform="matrix(1.00, 0.00, -0.00, -1.00, 174.5, 15.0)">“</text></g></g></g></svg>