<?xml version="1.0" encoding="UTF-8" standalone="no"?><svg xmlns="http://www.w3.org/2000/svg" xmlns:xlink="http://www.w3.org/1999/xlink" clip-rule="evenodd" stroke-miterlimit="10" viewBox="0 0 642 41"><desc>SVG generated by Keynote</desc><defs><pattern id="patternP1" patternUnits="userSpaceOnUse" width="600" height="600" viewBox="0 0 600 600"><image xlink:href="../../3B93A076-4E72-40AF-A817-43FF8D608A54/assets/80178DB44A976F13345376CE634CB034.png" width="600.00" height="600.00"></image></pattern></defs><g transform="matrix(1.00, 0.00, -0.00, -1.00, 0.0, 41.0)"><image xlink:href="6D7D0C5E88ECCDA710781A87278161A1.png" width="636.00" height="36.00" transform="matrix(1.00, 0.00, -0.00, -0.99, 4.5, 36.7)" opacity="0.79"></image><g><clipPath id="clip0x608003eb4e20"><path d="M 5.0 19.3 L 5.0 21.0 C 5.0 29.3 11.7 36.0 20.0 36.0 L 622.0 36.0 C 630.3 36.0 637.0 29.3 637.0 21.0 L 637.0 19.3 C 637.0 11.1 630.3 4.0 622.0 4.0 L 20.0 4.0 C 11.7 4.0 5.0 11.1 5.0 19.3 Z M 5.0 19.3 "></path></clipPath><g clip-path="url(#clip0x608003eb4e20)"><path d="M 5.0 4.0 L 637.0 4.0 L 637.0 36.0 L 5.0 36.0 Z M 5.0 4.0 " fill="url(#patternP1)"></path></g></g><g><clipPath id="clip0x608003eb5180"><path d="M 5.0 4.3 L 637.0 4.3 L 637.0 36.0 L 5.0 36.0 Z M 5.0 4.3 "></path></clipPath><g clip-path="url(#clip0x608003eb5180)"><text xml:space="preserve" font-family="Monaco,Monaco" font-size="15.0" fill="#FEFFFF" transform="matrix(1.00, 0.00, -0.00, -1.00, 50.9, 15.5)">1</text><text xml:space="preserve" font-family="Monaco,Monaco" font-size="15.0" fill="#FEFFFF" transform="matrix(1.00, 0.00, -0.00, -1.00, 60.0, 15.5)">2</text><text xml:space="preserve" font-family="Monaco,Monaco" font-size="15.0" fill="#FEFFFF" transform="matrix(1.00, 0.00, -0.00, -1.00, 69.0, 15.5)">7</text><text xml:space="preserve" font-family="Monaco,Monaco" font-size="15.0" fill="#FEFFFF" transform="matrix(1.00, 0.00, -0.00, -1.00, 78.0, 15.5)">.</text><text xml:space="preserve" font-family="Monaco,Monaco" font-size="15.0" fill="#FEFFFF" transform="matrix(1.00, 0.00, -0.00, -1.00, 87.0, 15.5)">0</text><text xml:space="preserve" font-family="Monaco,Monaco" font-size="15.0" fill="#FEFFFF" transform="matrix(1.00, 0.00, -0.00, -1.00, 96.0, 15.5)">.</text><text xml:space="preserve" font-family="Monaco,Monaco" font-size="15.0" fill="#FEFFFF" transform="matrix(1.00, 0.00, -0.00, -1.00, 105.0, 15.5)">0</text><text xml:space="preserve" font-family="Monaco,Monaco" font-size="15.0" fill="#FEFFFF" transform="matrix(1.00, 0.00, -0.00, -1.00, 114.0, 15.5)">.</text><text xml:space="preserve" font-family="Monaco,Monaco" font-size="15.0" fill="#FEFFFF" transform="matrix(1.00, 0.00, -0.00, -1.00, 123.0, 15.5)">1</text><text xml:space="preserve" font-family="Monaco,Monaco" font-size="15.0" fill="#FEFFFF" transform="matrix(1.00, 0.00, -0.00, -1.00, 132.0, 15.5)"> </text><text xml:space="preserve" font-family="Monaco,Monaco" font-size="15.0" fill="#FEFFFF" transform="matrix(1.00, 0.00, -0.00, -1.00, 141.0, 15.5)">-</text><text xml:space="preserve" font-family="Monaco,Monaco" font-size="15.0" fill="#FEFFFF" transform="matrix(1.00, 0.00, -0.00, -1.00, 150.0, 15.5)"> </text><text xml:space="preserve" font-family="Monaco,Monaco" font-size="15.0" fill="#FEFFFF" transform="matrix(1.00, 0.00, -0.00, -1.00, 159.0, 15.5)">-</text><text xml:space="preserve" font-family="Monaco,Monaco" font-size="15.0" fill="#FEFFFF" transform="matrix(1.00, 0.00, -0.00, -1.00, 168.0, 15.5)"> </text><text xml:space="preserve" font-family="Monaco,Monaco" font-size="15.0" fill="#FEFFFF" transform="matrix(1.00, 0.00, -0.00, -1.00, 177.0, 15.5)">[</text><text xml:space="preserve" font-family="Monaco,Monaco" font-size="15.0" fill="#FEFFFF" transform="matrix(1.00, 0.00, -0.00, -1.00, 186.0, 15.5)">1</text><text xml:space="preserve" font-family="Monaco,Monaco" font-size="15.0" fill="#FEFFFF" transform="matrix(1.00, 0.00, -0.00, -1.00, 195.0, 15.5)">1</text><text xml:space="preserve" font-family="Monaco,Monaco" font-size="15.0" fill="#FEFFFF" transform="matrix(1.00, 0.00, -0.00, -1.00, 204.0, 15.5)">/</text><text xml:space="preserve" font-family="Monaco,Monaco" font-size="15.0" fill="#FEFFFF" transform="matrix(1.00, 0.00, -0.00, -1.00, 213.0, 15.5)">D</text><text xml:space="preserve" font-family="Monaco,Monaco" font-size="15.0" fill="#FEFFFF" transform="matrix(1.00, 0.00, -0.00, -1.00, 222.0, 15.5)">e</text><text xml:space="preserve" font-family="Monaco,Monaco" font-size="15.0" fill="#FEFFFF" transform="matrix(1.00, 0.00, -0.00, -1.00, 231.0, 15.5)">c</text><text xml:space="preserve" font-family="Monaco,Monaco" font-size="15.0" fill="#FEFFFF" transform="matrix(1.00, 0.00, -0.00, -1.00, 240.0, 15.5)">/</text><text xml:space="preserve" font-family="Monaco,Monaco" font-size="15.0" fill="#FEFFFF" transform="matrix(1.00, 0.00, -0.00, -1.00, 249.0, 15.5)">2</text><text xml:space="preserve" font-family="Monaco,Monaco" font-size="15.0" fill="#FEFFFF" transform="matrix(1.00, 0.00, -0.00, -1.00, 258.0, 15.5)">0</text><text xml:space="preserve" font-family="Monaco,Monaco" font-size="15.0" fill="#FEFFFF" transform="matrix(1.00, 0.00, -0.00, -1.00, 267.0, 15.5)">1</text><text xml:space="preserve" font-family="Monaco,Monaco" font-size="15.0" fill="#FEFFFF" transform="matrix(1.00, 0.00, -0.00, -1.00, 276.0, 15.5)">3</text><text xml:space="preserve" font-family="Monaco,Monaco" font-size="15.0" fill="#FEFFFF" transform="matrix(1.00, 0.00, -0.00, -1.00, 285.0, 15.5)">:</text><text xml:space="preserve" font-family="Monaco,Monaco" font-size="15.0" fill="#FEFFFF" transform="matrix(1.00, 0.00, -0.00, -1.00, 294.0, 15.5)">0</text><text xml:space="preserve" font-family="Monaco,Monaco" font-size="15.0" fill="#FEFFFF" transform="matrix(1.00, 0.00, -0.00, -1.00, 303.0, 15.5)">0</text><text xml:space="preserve" font-family="Monaco,Monaco" font-size="15.0" fill="#FEFFFF" transform="matrix(1.00, 0.00, -0.00, -1.00, 312.0, 15.5)">:</text><text xml:space="preserve" font-family="Monaco,Monaco" font-size="15.0" fill="#FEFFFF" transform="matrix(1.00, 0.00, -0.00, -1.00, 321.0, 15.5)">0</text><text xml:space="preserve" font-family="Monaco,Monaco" font-size="15.0" fill="#FEFFFF" transform="matrix(1.00, 0.00, -0.00, -1.00, 330.0, 15.5)">1</text><text xml:space="preserve" font-family="Monaco,Monaco" font-size="15.0" fill="#FEFFFF" transform="matrix(1.00, 0.00, -0.00, -1.00, 339.0, 15.5)">:</text><text xml:space="preserve" font-family="Monaco,Monaco" font-size="15.0" fill="#FEFFFF" transform="matrix(1.00, 0.00, -0.00, -1.00, 348.0, 15.5)">4</text><text xml:space="preserve" font-family="Monaco,Monaco" font-size="15.0" fill="#FEFFFF" transform="matrix(1.00, 0.00, -0.00, -1.00, 357.1, 15.5)">5</text><text xml:space="preserve" font-family="Monaco,Monaco" font-size="15.0" fill="#FEFFFF" transform="matrix(1.00, 0.00, -0.00, -1.00, 366.1, 15.5)"> </text><text xml:space="preserve" font-family="Monaco,Monaco" font-size="15.0" fill="#FEFFFF" transform="matrix(1.00, 0.00, -0.00, -1.00, 375.1, 15.5)">-</text><text xml:space="preserve" font-family="Monaco,Monaco" font-size="15.0" fill="#FEFFFF" transform="matrix(1.00, 0.00, -0.00, -1.00, 384.1, 15.5)">0</text><text xml:space="preserve" font-family="Monaco,Monaco" font-size="15.0" fill="#FEFFFF" transform="matrix(1.00, 0.00, -0.00, -1.00, 393.1, 15.5)">8</text><text xml:space="preserve" font-family="Monaco,Monaco" font-size="15.0" fill="#FEFFFF" transform="matrix(1.00, 0.00, -0.00, -1.00, 402.1, 15.5)">0</text><text xml:space="preserve" font-family="Monaco,Monaco" font-size="15.0" fill="#FEFFFF" transform="matrix(1.00, 0.00, -0.00, -1.00, 411.1, 15.5)">0</text><text xml:space="preserve" font-family="Monaco,Monaco" font-size="15.0" fill="#FEFFFF" transform="matrix(1.00, 0.00, -0.00, -1.00, 420.1, 15.5)">]</text><text xml:space="preserve" font-family="Monaco,Monaco" font-size="15.0" fill="#FEFFFF" transform="matrix(1.00, 0.00, -0.00, -1.00, 429.1, 15.5)"> </text><text xml:space="preserve" font-family="Monaco,Monaco" font-size="15.0" fill="#FEFFFF" transform="matrix(1.00, 0.00, -0.00, -1.00, 438.1, 15.5)">"</text><text xml:space="preserve" font-family="Monaco,Monaco" font-size="15.0" fill="#FEFFFF" transform="matrix(1.00, 0.00, -0.00, -1.00, 447.1, 15.5)">G</text><text xml:space="preserve" font-family="Monaco,Monaco" font-size="15.0" fill="#FEFFFF" transform="matrix(1.00, 0.00, -0.00, -1.00, 456.1, 15.5)">E</text><text xml:space="preserve" font-family="Monaco,Monaco" font-size="15.0" fill="#FEFFFF" transform="matrix(1.00, 0.00, -0.00, -1.00, 465.1, 15.5)">T</text><text xml:space="preserve" font-family="Monaco,Monaco" font-size="15.0" fill="#FEFFFF" transform="matrix(1.00, 0.00, -0.00, -1.00, 474.1, 15.5)"> </text><text xml:space="preserve" font-family="Monaco,Monaco" font-size="15.0" fill="#FEFFFF" transform="matrix(1.00, 0.00, -0.00, -1.00, 483.1, 15.5)">/</text><text xml:space="preserve" font-family="Monaco,Monaco" font-size="15.0" fill="#FEFFFF" transform="matrix(1.00, 0.00, -0.00, -1.00, 492.1, 15.5)">s</text><text xml:space="preserve" font-family="Monaco,Monaco" font-size="15.0" fill="#FEFFFF" transform="matrix(1.00, 0.00, -0.00, -1.00, 501.1, 15.5)">t</text><text xml:space="preserve" font-family="Monaco,Monaco" font-size="15.0" fill="#FEFFFF" transform="matrix(1.00, 0.00, -0.00, -1.00, 510.1, 15.5)">a</text><text xml:space="preserve" font-family="Monaco,Monaco" font-size="15.0" fill="#FEFFFF" transform="matrix(1.00, 0.00, -0.00, -1.00, 519.1, 15.5)">t</text><text xml:space="preserve" font-family="Monaco,Monaco" font-size="15.0" fill="#FEFFFF" transform="matrix(1.00, 0.00, -0.00, -1.00, 528.1, 15.5)">u</text><text xml:space="preserve" font-family="Monaco,Monaco" font-size="15.0" fill="#FEFFFF" transform="matrix(1.00, 0.00, -0.00, -1.00, 537.1, 15.5)">s</text><text xml:space="preserve" font-family="Monaco,Monaco" font-size="15.0" fill="#FEFFFF" transform="matrix(1.00, 0.00, -0.00, -1.00, 546.1, 15.5)">.</text><text xml:space="preserve" font-family="Monaco,Monaco" font-size="15.0" fill="#FEFFFF" transform="matrix(1.00, 0.00, -0.00, -1.00, 555.1, 15.5)">p</text><text xml:space="preserve" font-family="Monaco,Monaco" font-size="15.0" fill="#FEFFFF" transform="matrix(1.00, 0.00, -0.00, -1.00, 564.1, 15.5)">h</text><text xml:space="preserve" font-family="Monaco,Monaco" font-size="15.0" fill="#FEFFFF" transform="matrix(1.00, 0.00, -0.00, -1.00, 573.1, 15.5)">p</text><text xml:space="preserve" font-family="Monaco,Monaco" font-size="15.0" fill="#FEFFFF" transform="matrix(1.00, 0.00, -0.00, -1.00, 582.1, 15.5)">"</text></g></g></g></svg>