<?xml version="1.0" encoding="UTF-8" standalone="no"?><svg xmlns="http://www.w3.org/2000/svg" xmlns:xlink="http://www.w3.org/1999/xlink" clip-rule="evenodd" stroke-miterlimit="10" viewBox="0 0 513 124"><desc>SVG generated by Keynote</desc><defs><linearGradient id="gradSh1.11" x1="0.0" y1="0.0" x2="100.0" y2="0.0" gradientUnits="userSpaceOnUse" gradientTransform="matrix(0.00, -1.12, -5.06, 0.00, 256.0, 118.0)"><stop offset="0.00000" stop-color="#FBFBFB"></stop><stop offset="0.01466" stop-color="#FAFAFA"></stop><stop offset="1.00000" stop-color="#BEBEBE"></stop></linearGradient></defs><g transform="matrix(1.00, 0.00, -0.00, -1.00, 0.0, 124.0)"><image xlink:href="DEB9E28C5E1282AD9FCC561D11774631.png" width="510.00" height="117.00" transform="matrix(1.00, 0.00, -0.00, -1.00, 1.5, 118.5)" opacity="0.50"></image><g><clipPath id="clip0x608003cb27e0"><path d="M 4.0 117.0 L 508.0 117.0 L 508.0 7.0 L 4.0 7.0 Z M 4.5 117.5 "></path></clipPath><g clip-path="url(#clip0x608003cb27e0)"><path d="M 4.0 117.0 L 508.0 117.0 L 508.0 7.0 L 4.0 7.0 Z M 4.5 117.5 " fill="url(#gradSh1.11)"></path></g></g><g><clipPath id="clip0x608003eb2ae0"><path d="M 2.6 6.7 L 510.3 6.7 L 510.3 119.4 L 2.6 119.4 Z M 2.6 6.7 "></path></clipPath><g clip-path="url(#clip0x608003eb2ae0)"><text xml:space="preserve" font-family=".LucidaGrandeUI-Bold,.Lucida Grande UI" font-weight="bold" font-size="20.0" fill="#363636" transform="matrix(1.00, 0.00, -0.00, -1.00, 11.7, 94.7)">I</text><text xml:space="preserve" font-family=".LucidaGrandeUI-Bold,.Lucida Grande UI" font-weight="bold" font-size="20.0" fill="#363636" transform="matrix(1.00, 0.00, -0.00, -1.00, 18.4, 94.7)">N</text><text xml:space="preserve" font-family=".LucidaGrandeUI-Bold,.Lucida Grande UI" font-weight="bold" font-size="20.0" fill="#363636" transform="matrix(1.00, 0.00, -0.00, -1.00, 33.9, 94.7)">P</text><text xml:space="preserve" font-family=".LucidaGrandeUI-Bold,.Lucida Grande UI" font-weight="bold" font-size="20.0" fill="#363636" transform="matrix(1.00, 0.00, -0.00, -1.00, 46.3, 94.7)">U</text><text xml:space="preserve" font-family=".LucidaGrandeUI-Bold,.Lucida Grande UI" font-weight="bold" font-size="20.0" fill="#363636" transform="matrix(1.00, 0.00, -0.00, -1.00, 61.1, 94.7)">T</text></g></g></g></svg>