<?xml version="1.0" encoding="UTF-8" standalone="no"?><svg xmlns="http://www.w3.org/2000/svg" xmlns:xlink="http://www.w3.org/1999/xlink" clip-rule="evenodd" stroke-miterlimit="10" viewBox="0 0 720 540"><desc>SVG generated by Keynote</desc><defs></defs><g transform="matrix(1.00, 0.00, -0.00, -1.00, 0.0, 540.0)"><path d="M 0.0 540.0 L 720.0 540.0 L 720.0 0.0 L 0.0 0.0 Z M 0.0 540.0 " fill="#FEFFFF"></path><path d="M 0.5 -0.2 L 606.5 -0.2 " fill="none" stroke="#949EAF" stroke-width="2.00" transform="matrix(1.00, 0.00, 0.00, -1.00, 0.5, 482.8)"></path><g><clipPath id="clip0x6080052a4320"><path d="M 626.4 503.1 L 720.9 503.1 L 720.9 506.8 L 626.4 506.8 Z M 626.4 503.1 "></path></clipPath><g clip-path="url(#clip0x6080052a4320)"><path d="M -0.4 0.0 L 92.6 0.0 " fill="none" stroke="#949EAF" stroke-width="2.00" transform="matrix(1.00, 0.00, 0.00, -1.00, 627.4, 505.0)"></path></g></g><g><clipPath id="clip0x6080052a4560"><path d="M 604.7 480.7 L 629.1 480.7 L 629.1 506.9 L 604.7 506.9 Z M 604.7 480.7 "></path></clipPath><g clip-path="url(#clip0x6080052a4560)"><path d="M 0.0 23.1 L 21.2 0.0 " fill="none" stroke="#949EAF" stroke-width="2.00" transform="matrix(1.00, 0.00, 0.00, -1.00, 606.2, 505.4)"></path></g></g><text xml:space="preserve" font-family=".LucidaGrandeUI,.Lucida Grande UI" font-size="10.0" fill="#363636" transform="matrix(1.00, 0.00, -0.00, -1.00, 14.2, 9.1)">©</text><text xml:space="preserve" font-family=".LucidaGrandeUI,.Lucida Grande UI" font-size="10.0" fill="#363636" transform="matrix(1.00, 0.00, -0.00, -1.00, 22.8, 9.1)">B</text><text xml:space="preserve" font-family=".LucidaGrandeUI,.Lucida Grande UI" font-size="10.0" fill="#363636" transform="matrix(1.00, 0.00, -0.00, -1.00, 28.5, 9.1)">u</text><text xml:space="preserve" font-family=".LucidaGrandeUI,.Lucida Grande UI" font-size="10.0" fill="#363636" transform="matrix(1.00, 0.00, -0.00, -1.00, 34.7, 9.1)">l</text><text xml:space="preserve" font-family=".LucidaGrandeUI,.Lucida Grande UI" font-size="10.0" fill="#363636" transform="matrix(1.00, 0.00, -0.00, -1.00, 37.6, 9.1)">l</text><text xml:space="preserve" font-family=".LucidaGrandeUI,.Lucida Grande UI" font-size="10.0" fill="#363636" transform="matrix(1.00, 0.00, -0.00, -1.00, 40.5, 9.1)"> </text><text xml:space="preserve" font-family=".LucidaGrandeUI,.Lucida Grande UI" font-size="10.0" fill="#363636" transform="matrix(1.00, 0.00, -0.00, -1.00, 43.7, 9.1)">2</text><text xml:space="preserve" font-family=".LucidaGrandeUI,.Lucida Grande UI" font-size="10.0" fill="#363636" transform="matrix(1.00, 0.00, -0.00, -1.00, 50.0, 9.1)">0</text><text xml:space="preserve" font-family=".LucidaGrandeUI,.Lucida Grande UI" font-size="10.0" fill="#363636" transform="matrix(1.00, 0.00, -0.00, -1.00, 56.3, 9.1)">1</text><text xml:space="preserve" font-family=".LucidaGrandeUI,.Lucida Grande UI" font-size="10.0" fill="#363636" transform="matrix(1.00, 0.00, -0.00, -1.00, 62.6, 9.1)">4</text><text xml:space="preserve" font-family=".LucidaGrandeUI,.Lucida Grande UI" font-size="28.0" fill="#424242" transform="matrix(1.00, 0.00, -0.00, -1.00, 43.1, 492.9)">L</text><text xml:space="preserve" font-family=".LucidaGrandeUI,.Lucida Grande UI" font-size="28.0" fill="#424242" transform="matrix(1.00, 0.00, -0.00, -1.00, 57.7, 492.9)">o</text><text xml:space="preserve" font-family=".LucidaGrandeUI,.Lucida Grande UI" font-size="28.0" fill="#424242" transform="matrix(1.00, 0.00, -0.00, -1.00, 75.0, 492.9)">g</text><text xml:space="preserve" font-family=".LucidaGrandeUI,.Lucida Grande UI" font-size="28.0" fill="#424242" transform="matrix(1.00, 0.00, -0.00, -1.00, 92.4, 492.9)">s</text><text xml:space="preserve" font-family=".LucidaGrandeUI,.Lucida Grande UI" font-size="28.0" fill="#424242" transform="matrix(1.00, 0.00, -0.00, -1.00, 105.4, 492.9)">t</text><text xml:space="preserve" font-family=".LucidaGrandeUI,.Lucida Grande UI" font-size="28.0" fill="#424242" transform="matrix(1.00, 0.00, -0.00, -1.00, 115.8, 492.9)">a</text><text xml:space="preserve" font-family=".LucidaGrandeUI,.Lucida Grande UI" font-size="28.0" fill="#424242" transform="matrix(1.00, 0.00, -0.00, -1.00, 131.3, 492.9)">s</text><text xml:space="preserve" font-family=".LucidaGrandeUI,.Lucida Grande UI" font-size="28.0" fill="#424242" transform="matrix(1.00, 0.00, -0.00, -1.00, 144.3, 492.9)">h</text><text xml:space="preserve" font-family=".LucidaGrandeUI,.Lucida Grande UI" font-size="28.0" fill="#424242" transform="matrix(1.00, 0.00, -0.00, -1.00, 161.6, 492.9)"> </text><text xml:space="preserve" font-family=".LucidaGrandeUI,.Lucida Grande UI" font-size="28.0" fill="#424242" transform="matrix(1.00, 0.00, -0.00, -1.00, 170.5, 492.9)">-</text><text xml:space="preserve" font-family=".LucidaGrandeUI,.Lucida Grande UI" font-size="28.0" fill="#424242" transform="matrix(1.00, 0.00, -0.00, -1.00, 186.7, 492.9)"> </text><text xml:space="preserve" font-family=".LucidaGrandeUI,.Lucida Grande UI" font-size="28.0" fill="#424242" transform="matrix(1.00, 0.00, -0.00, -1.00, 195.6, 492.9)">P</text><text xml:space="preserve" font-family=".LucidaGrandeUI,.Lucida Grande UI" font-size="28.0" fill="#424242" transform="matrix(1.00, 0.00, -0.00, -1.00, 211.0, 492.9)">l</text><text xml:space="preserve" font-family=".LucidaGrandeUI,.Lucida Grande UI" font-size="28.0" fill="#424242" transform="matrix(1.00, 0.00, -0.00, -1.00, 219.1, 492.9)">u</text><text xml:space="preserve" font-family=".LucidaGrandeUI,.Lucida Grande UI" font-size="28.0" fill="#424242" transform="matrix(1.00, 0.00, -0.00, -1.00, 236.5, 492.9)">g</text><text xml:space="preserve" font-family=".LucidaGrandeUI,.Lucida Grande UI" font-size="28.0" fill="#424242" transform="matrix(1.00, 0.00, -0.00, -1.00, 253.9, 492.9)">i</text><text xml:space="preserve" font-family=".LucidaGrandeUI,.Lucida Grande UI" font-size="28.0" fill="#424242" transform="matrix(1.00, 0.00, -0.00, -1.00, 262.0, 492.9)">n</text><text xml:space="preserve" font-family=".LucidaGrandeUI,.Lucida Grande UI" font-size="28.0" fill="#424242" transform="matrix(1.00, 0.00, -0.00, -1.00, 279.4, 492.9)">s</text><text xml:space="preserve" font-family=".LucidaGrandeUI,.Lucida Grande UI" font-size="8.0" fill="#363636" transform="matrix(1.00, 0.00, -0.00, -1.00, 689.4, 9.4)">1</text><text xml:space="preserve" font-family=".LucidaGrandeUI,.Lucida Grande UI" font-size="8.0" fill="#363636" transform="matrix(1.00, 0.00, -0.00, -1.00, 694.5, 9.4)">3</text><image xlink:href="92157FA39B13510C24CDB96B7B5DFB42.png" width="781.00" height="608.00" transform="matrix(0.75, 0.00, -0.00, -0.75, 68.9, 473.8)"></image></g></svg>