<?xml version="1.0" encoding="UTF-8" standalone="no"?><svg xmlns="http://www.w3.org/2000/svg" xmlns:xlink="http://www.w3.org/1999/xlink" clip-rule="evenodd" stroke-miterlimit="10" viewBox="0 0 449 47"><desc>SVG generated by Keynote</desc><defs><pattern id="patternP1" patternUnits="userSpaceOnUse" width="580" height="580" viewBox="0 0 580 580"><image xlink:href="../../7C2A55CB-7573-4367-A759-6FF0CA913EB8/assets/E2C6BACC91D5322B15A4C2F304F1B309.png" width="580.00" height="580.00"></image></pattern></defs><g transform="matrix(1.00, 0.00, -0.00, -1.00, 0.0, 47.0)"><g><clipPath id="clip0x6080028a4920"><path d="M 1.0 46.0 L 447.0 46.0 L 447.0 1.0 L 1.0 1.0 Z M 1.3 45.7 "></path></clipPath><g clip-path="url(#clip0x6080028a4920)"><path d="M 1.0 1.0 L 447.0 1.0 L 447.0 46.0 L 1.0 46.0 Z M 1.0 1.0 " fill="url(#patternP1)"></path></g></g><image xlink:href="../../7C2A55CB-7573-4367-A759-6FF0CA913EB8/assets/6CF164888C822CA67C76528329F07B75.png" width="436.00" height="26.00" transform="matrix(1.00, 0.00, -0.00, -1.00, 4.0, 31.0)"></image><g><clipPath id="clip0x6080028a4980"><path d="M -2.5 -3.8 L 454.6 -3.8 L 454.6 45.7 L -2.5 45.7 Z M -2.5 -3.8 "></path></clipPath><g clip-path="url(#clip0x6080028a4980)"><text xml:space="preserve" font-family="Palatino-Roman,Palatino" font-size="24.0" fill="#FEFFFE" transform="matrix(1.00, 0.00, -0.00, -1.00, 4.3, 13.4)">O</text><text xml:space="preserve" font-family="Palatino-Roman,Palatino" font-size="24.0" fill="#FEFFFE" transform="matrix(1.00, 0.00, -0.00, -1.00, 23.1, 13.4)">S</text><text xml:space="preserve" font-family="Palatino-Roman,Palatino" font-size="24.0" fill="#FEFFFE" transform="matrix(1.00, 0.00, -0.00, -1.00, 35.7, 13.4)">:</text><text xml:space="preserve" font-family="Palatino-Roman,Palatino" font-size="24.0" fill="#FEFFFE" transform="matrix(1.00, 0.00, -0.00, -1.00, 181.3, 13.4)">K</text><text xml:space="preserve" font-family="Palatino-Roman,Palatino" font-size="24.0" fill="#FEFFFE" transform="matrix(1.00, 0.00, -0.00, -1.00, 198.7, 13.4)">e</text><text xml:space="preserve" font-family="Palatino-Roman,Palatino" font-size="24.0" fill="#FEFFFE" transform="matrix(1.00, 0.00, -0.00, -1.00, 210.2, 13.4)">r</text><text xml:space="preserve" font-family="Palatino-Roman,Palatino" font-size="24.0" fill="#FEFFFE" transform="matrix(1.00, 0.00, -0.00, -1.00, 219.7, 13.4)">n</text><text xml:space="preserve" font-family="Palatino-Roman,Palatino" font-size="24.0" fill="#FEFFFE" transform="matrix(1.00, 0.00, -0.00, -1.00, 233.6, 13.4)">e</text><text xml:space="preserve" font-family="Palatino-Roman,Palatino" font-size="24.0" fill="#FEFFFE" transform="matrix(1.00, 0.00, -0.00, -1.00, 245.1, 13.4)">l</text><text xml:space="preserve" font-family="Palatino-Roman,Palatino" font-size="24.0" fill="#FEFFFE" transform="matrix(1.00, 0.00, -0.00, -1.00, 252.1, 13.4)">,</text><text xml:space="preserve" font-family="Palatino-Roman,Palatino" font-size="24.0" fill="#FEFFFE" transform="matrix(1.00, 0.00, -0.00, -1.00, 258.1, 13.4)"> </text><text xml:space="preserve" font-family="Palatino-Roman,Palatino" font-size="24.0" fill="#FEFFFE" transform="matrix(1.00, 0.00, -0.00, -1.00, 264.1, 13.4)">U</text><text xml:space="preserve" font-family="Palatino-Roman,Palatino" font-size="24.0" fill="#FEFFFE" transform="matrix(1.00, 0.00, -0.00, -1.00, 282.8, 13.4)">s</text><text xml:space="preserve" font-family="Palatino-Roman,Palatino" font-size="24.0" fill="#FEFFFE" transform="matrix(1.00, 0.00, -0.00, -1.00, 292.9, 13.4)">e</text><text xml:space="preserve" font-family="Palatino-Roman,Palatino" font-size="24.0" fill="#FEFFFE" transform="matrix(1.00, 0.00, -0.00, -1.00, 304.4, 13.4)">r</text><text xml:space="preserve" font-family="Palatino-Roman,Palatino" font-size="24.0" fill="#FEFFFE" transform="matrix(1.00, 0.00, -0.00, -1.00, 313.9, 13.4)">l</text><text xml:space="preserve" font-family="Palatino-Roman,Palatino" font-size="24.0" fill="#FEFFFE" transform="matrix(1.00, 0.00, -0.00, -1.00, 320.9, 13.4)">a</text><text xml:space="preserve" font-family="Palatino-Roman,Palatino" font-size="24.0" fill="#FEFFFE" transform="matrix(1.00, 0.00, -0.00, -1.00, 332.9, 13.4)">n</text><text xml:space="preserve" font-family="Palatino-Roman,Palatino" font-size="24.0" fill="#FEFFFE" transform="matrix(1.00, 0.00, -0.00, -1.00, 346.9, 13.4)">d</text><text xml:space="preserve" font-family="Palatino-Roman,Palatino" font-size="24.0" fill="#FEFFFE" transform="matrix(1.00, 0.00, -0.00, -1.00, 361.5, 13.4)"> </text><text xml:space="preserve" font-family="Palatino-Roman,Palatino" font-size="24.0" fill="#FEFFFE" transform="matrix(1.00, 0.00, -0.00, -1.00, 367.5, 13.4)">t</text><text xml:space="preserve" font-family="Palatino-Roman,Palatino" font-size="24.0" fill="#FEFFFE" transform="matrix(1.00, 0.00, -0.00, -1.00, 375.4, 13.4)">o</text><text xml:space="preserve" font-family="Palatino-Roman,Palatino" font-size="24.0" fill="#FEFFFE" transform="matrix(1.00, 0.00, -0.00, -1.00, 388.5, 13.4)">o</text><text xml:space="preserve" font-family="Palatino-Roman,Palatino" font-size="24.0" fill="#FEFFFE" transform="matrix(1.00, 0.00, -0.00, -1.00, 401.6, 13.4)">l</text><text xml:space="preserve" font-family="Palatino-Roman,Palatino" font-size="24.0" fill="#FEFFFE" transform="matrix(1.00, 0.00, -0.00, -1.00, 408.5, 13.4)">s</text></g></g></g></svg>