<?xml version="1.0" encoding="UTF-8" standalone="no"?><svg xmlns="http://www.w3.org/2000/svg" xmlns:xlink="http://www.w3.org/1999/xlink" clip-rule="evenodd" stroke-miterlimit="10" viewBox="0 0 288 38"><desc>SVG generated by Keynote</desc><defs></defs><g transform="matrix(1.00, 0.00, -0.00, -1.00, 0.0, 38.0)"><image xlink:href="2B7D231BB3F5C9F7C87DE6E80199069A.png" width="283.00" height="35.00" transform="matrix(1.00, 0.00, -0.00, -1.01, 3.3, 36.9)" opacity="0.50"></image><g><clipPath id="clip0x6080070bc740"><path d="M 6.0 33.0 L 281.0 33.0 L 281.0 5.0 L 6.0 5.0 Z M 6.3 32.9 "></path></clipPath><g clip-path="url(#clip0x6080070bc740)"><image xlink:href="../../388AC461-A37F-4D13-9E58-D44EF987A297/assets/54AAA609FA4289ED6813ACB24DD77507.png" width="600.00" height="600.00" transform="matrix(0.50, 0.00, -0.00, -0.50, 6.0, 33.0)"></image></g></g><g><clipPath id="clip0x6080070bc8c0"><path d="M 5.0 9.9 L 282.7 9.9 L 282.7 28.9 L 5.0 28.9 Z M 5.0 9.9 "></path></clipPath><g clip-path="url(#clip0x6080070bc8c0)"><text xml:space="preserve" font-family=".LucidaGrandeUI,.Lucida Grande UI" font-size="18.0" fill="#363636" transform="matrix(1.00, 0.00, -0.00, -1.00, 84.4, 11.7)">H</text><text xml:space="preserve" font-family=".LucidaGrandeUI,.Lucida Grande UI" font-size="18.0" fill="#363636" transform="matrix(1.00, 0.00, -0.00, -1.00, 97.6, 11.7)">O</text><text xml:space="preserve" font-family=".LucidaGrandeUI,.Lucida Grande UI" font-size="18.0" fill="#363636" transform="matrix(1.00, 0.00, -0.00, -1.00, 111.6, 11.7)">S</text><text xml:space="preserve" font-family=".LucidaGrandeUI,.Lucida Grande UI" font-size="18.0" fill="#363636" transform="matrix(1.00, 0.00, -0.00, -1.00, 121.3, 11.7)">T</text><text xml:space="preserve" font-family=".LucidaGrandeUI,.Lucida Grande UI" font-size="18.0" fill="#363636" transform="matrix(1.00, 0.00, -0.00, -1.00, 132.1, 11.7)"> </text><text xml:space="preserve" font-family=".LucidaGrandeUI,.Lucida Grande UI" font-size="18.0" fill="#363636" transform="matrix(1.00, 0.00, -0.00, -1.00, 137.8, 11.7)">K</text><text xml:space="preserve" font-family=".LucidaGrandeUI,.Lucida Grande UI" font-size="18.0" fill="#363636" transform="matrix(1.00, 0.00, -0.00, -1.00, 149.5, 11.7)">E</text><text xml:space="preserve" font-family=".LucidaGrandeUI,.Lucida Grande UI" font-size="18.0" fill="#363636" transform="matrix(1.00, 0.00, -0.00, -1.00, 159.2, 11.7)">R</text><text xml:space="preserve" font-family=".LucidaGrandeUI,.Lucida Grande UI" font-size="18.0" fill="#363636" transform="matrix(1.00, 0.00, -0.00, -1.00, 170.6, 11.7)">N</text><text xml:space="preserve" font-family=".LucidaGrandeUI,.Lucida Grande UI" font-size="18.0" fill="#363636" transform="matrix(1.00, 0.00, -0.00, -1.00, 183.9, 11.7)">E</text><text xml:space="preserve" font-family=".LucidaGrandeUI,.Lucida Grande UI" font-size="18.0" fill="#363636" transform="matrix(1.00, 0.00, -0.00, -1.00, 193.7, 11.7)">L</text></g></g></g></svg>