<?xml version="1.0" encoding="UTF-8" standalone="no"?><svg xmlns="http://www.w3.org/2000/svg" xmlns:xlink="http://www.w3.org/1999/xlink" clip-rule="evenodd" stroke-miterlimit="10" viewBox="0 0 142 25"><desc>SVG generated by Keynote</desc><defs></defs><g transform="matrix(1.00, 0.00, -0.00, -1.00, 0.0, 25.0)"><text xml:space="preserve" font-family=".LucidaGrandeUI,.Lucida Grande UI" font-size="28.0" fill="#424242" transform="matrix(1.00, 0.00, -0.00, -1.00, -0.9, 1.9)">F</text><text xml:space="preserve" font-family=".LucidaGrandeUI,.Lucida Grande UI" font-size="28.0" fill="#424242" transform="matrix(1.00, 0.00, -0.00, -1.00, 13.8, 1.9)">i</text><text xml:space="preserve" font-family=".LucidaGrandeUI,.Lucida Grande UI" font-size="28.0" fill="#424242" transform="matrix(1.00, 0.00, -0.00, -1.00, 21.9, 1.9)">r</text><text xml:space="preserve" font-family=".LucidaGrandeUI,.Lucida Grande UI" font-size="28.0" fill="#424242" transform="matrix(1.00, 0.00, -0.00, -1.00, 33.4, 1.9)">s</text><text xml:space="preserve" font-family=".LucidaGrandeUI,.Lucida Grande UI" font-size="28.0" fill="#424242" transform="matrix(1.00, 0.00, -0.00, -1.00, 46.3, 1.9)">t</text><text xml:space="preserve" font-family=".LucidaGrandeUI,.Lucida Grande UI" font-size="28.0" fill="#424242" transform="matrix(1.00, 0.00, -0.00, -1.00, 56.8, 1.9)"> </text><text xml:space="preserve" font-family=".LucidaGrandeUI,.Lucida Grande UI" font-size="28.0" fill="#424242" transform="matrix(1.00, 0.00, -0.00, -1.00, 65.7, 1.9)">S</text><text xml:space="preserve" font-family=".LucidaGrandeUI,.Lucida Grande UI" font-size="28.0" fill="#424242" transform="matrix(1.00, 0.00, -0.00, -1.00, 80.8, 1.9)">t</text><text xml:space="preserve" font-family=".LucidaGrandeUI,.Lucida Grande UI" font-size="28.0" fill="#424242" transform="matrix(1.00, 0.00, -0.00, -1.00, 91.2, 1.9)">r</text><text xml:space="preserve" font-family=".LucidaGrandeUI,.Lucida Grande UI" font-size="28.0" fill="#424242" transform="matrix(1.00, 0.00, -0.00, -1.00, 102.7, 1.9)">i</text><text xml:space="preserve" font-family=".LucidaGrandeUI,.Lucida Grande UI" font-size="28.0" fill="#424242" transform="matrix(1.00, 0.00, -0.00, -1.00, 110.8, 1.9)">k</text><text xml:space="preserve" font-family=".LucidaGrandeUI,.Lucida Grande UI" font-size="28.0" fill="#424242" transform="matrix(1.00, 0.00, -0.00, -1.00, 127.0, 1.9)">e</text></g></svg>