<?xml version="1.0" encoding="UTF-8" standalone="no"?><svg xmlns="http://www.w3.org/2000/svg" xmlns:xlink="http://www.w3.org/1999/xlink" clip-rule="evenodd" stroke-miterlimit="10" viewBox="0 0 98 85"><desc>SVG generated by Keynote</desc><defs></defs><g transform="matrix(1.00, 0.00, -0.00, -1.00, 0.0, 85.0)"><image xlink:href="EDC77B7A9F4D295010405097B5586CE4.png" width="94.00" height="81.00" transform="matrix(1.00, 0.00, -0.00, -1.00, 3.0, 83.1)" opacity="0.50"></image><g><clipPath id="clip0x600004ca75c0"><path d="M 6.0 79.0 L 92.0 79.0 L 92.0 6.0 L 6.0 6.0 Z M 6.0 79.1 "></path></clipPath><g clip-path="url(#clip0x600004ca75c0)"><image xlink:href="../../388AC461-A37F-4D13-9E58-D44EF987A297/assets/54AAA609FA4289ED6813ACB24DD77507.png" width="600.00" height="600.00" transform="matrix(0.50, 0.00, -0.00, -0.50, 6.0, 79.0)"></image></g></g><g><clipPath id="clip0x600004ca7920"><path d="M 4.7 6.0 L 92.9 6.0 L 92.9 79.1 L 4.7 79.1 Z M 4.7 6.0 "></path></clipPath><g clip-path="url(#clip0x600004ca7920)"><text xml:space="preserve" font-family=".LucidaGrandeUI,.Lucida Grande UI" font-size="18.0" fill="#363636" transform="matrix(1.00, 0.00, -0.00, -1.00, 21.0, 45.9)">G</text><text xml:space="preserve" font-family=".LucidaGrandeUI,.Lucida Grande UI" font-size="18.0" fill="#363636" transform="matrix(1.00, 0.00, -0.00, -1.00, 34.0, 45.9)">U</text><text xml:space="preserve" font-family=".LucidaGrandeUI,.Lucida Grande UI" font-size="18.0" fill="#363636" transform="matrix(1.00, 0.00, -0.00, -1.00, 46.4, 45.9)">E</text><text xml:space="preserve" font-family=".LucidaGrandeUI,.Lucida Grande UI" font-size="18.0" fill="#363636" transform="matrix(1.00, 0.00, -0.00, -1.00, 56.2, 45.9)">S</text><text xml:space="preserve" font-family=".LucidaGrandeUI,.Lucida Grande UI" font-size="18.0" fill="#363636" transform="matrix(1.00, 0.00, -0.00, -1.00, 65.9, 45.9)">T</text><text xml:space="preserve" font-family=".LucidaGrandeUI,.Lucida Grande UI" font-size="18.0" fill="#363636" transform="matrix(1.00, 0.00, -0.00, -1.00, 76.7, 45.9)"> </text><text xml:space="preserve" font-family=".LucidaGrandeUI,.Lucida Grande UI" font-size="18.0" fill="#363636" transform="matrix(1.00, 0.00, -0.00, -1.00, 16.1, 24.9)">K</text><text xml:space="preserve" font-family=".LucidaGrandeUI,.Lucida Grande UI" font-size="18.0" fill="#363636" transform="matrix(1.00, 0.00, -0.00, -1.00, 27.8, 24.9)">E</text><text xml:space="preserve" font-family=".LucidaGrandeUI,.Lucida Grande UI" font-size="18.0" fill="#363636" transform="matrix(1.00, 0.00, -0.00, -1.00, 37.5, 24.9)">R</text><text xml:space="preserve" font-family=".LucidaGrandeUI,.Lucida Grande UI" font-size="18.0" fill="#363636" transform="matrix(1.00, 0.00, -0.00, -1.00, 48.9, 24.9)">N</text><text xml:space="preserve" font-family=".LucidaGrandeUI,.Lucida Grande UI" font-size="18.0" fill="#363636" transform="matrix(1.00, 0.00, -0.00, -1.00, 62.2, 24.9)">E</text><text xml:space="preserve" font-family=".LucidaGrandeUI,.Lucida Grande UI" font-size="18.0" fill="#363636" transform="matrix(1.00, 0.00, -0.00, -1.00, 72.0, 24.9)">L</text></g></g></g></svg>