<?xml version="1.0" encoding="UTF-8" standalone="no"?><svg xmlns="http://www.w3.org/2000/svg" xmlns:xlink="http://www.w3.org/1999/xlink" clip-rule="evenodd" stroke-miterlimit="10" viewBox="0 0 720 540"><desc>SVG generated by Keynote</desc><defs></defs><g transform="matrix(1.00, 0.00, -0.00, -1.00, 0.0, 540.0)"><path d="M 0.0 540.0 L 720.0 540.0 L 720.0 0.0 L 0.0 0.0 Z M 0.0 540.0 " fill="#FEFFFF"></path><path d="M 0.5 -0.2 L 606.5 -0.2 " fill="none" stroke="#949EAF" stroke-width="2.00" transform="matrix(1.00, 0.00, 0.00, -1.00, 0.5, 482.8)"></path><g><clipPath id="clip0x6000060be2a0"><path d="M 626.4 503.1 L 720.9 503.1 L 720.9 506.8 L 626.4 506.8 Z M 626.4 503.1 "></path></clipPath><g clip-path="url(#clip0x6000060be2a0)"><path d="M -0.4 0.0 L 92.6 0.0 " fill="none" stroke="#949EAF" stroke-width="2.00" transform="matrix(1.00, 0.00, 0.00, -1.00, 627.4, 505.0)"></path></g></g><g><clipPath id="clip0x6000060be4e0"><path d="M 604.7 480.7 L 629.1 480.7 L 629.1 506.9 L 604.7 506.9 Z M 604.7 480.7 "></path></clipPath><g clip-path="url(#clip0x6000060be4e0)"><path d="M 0.0 23.1 L 21.2 0.0 " fill="none" stroke="#949EAF" stroke-width="2.00" transform="matrix(1.00, 0.00, 0.00, -1.00, 606.2, 505.4)"></path></g></g><text xml:space="preserve" font-family=".LucidaGrandeUI,.Lucida Grande UI" font-size="10.0" fill="#363636" transform="matrix(1.00, 0.00, -0.00, -1.00, 14.2, 9.1)">©</text><text xml:space="preserve" font-family=".LucidaGrandeUI,.Lucida Grande UI" font-size="10.0" fill="#363636" transform="matrix(1.00, 0.00, -0.00, -1.00, 22.8, 9.1)">B</text><text xml:space="preserve" font-family=".LucidaGrandeUI,.Lucida Grande UI" font-size="10.0" fill="#363636" transform="matrix(1.00, 0.00, -0.00, -1.00, 28.5, 9.1)">u</text><text xml:space="preserve" font-family=".LucidaGrandeUI,.Lucida Grande UI" font-size="10.0" fill="#363636" transform="matrix(1.00, 0.00, -0.00, -1.00, 34.7, 9.1)">l</text><text xml:space="preserve" font-family=".LucidaGrandeUI,.Lucida Grande UI" font-size="10.0" fill="#363636" transform="matrix(1.00, 0.00, -0.00, -1.00, 37.6, 9.1)">l</text><text xml:space="preserve" font-family=".LucidaGrandeUI,.Lucida Grande UI" font-size="10.0" fill="#363636" transform="matrix(1.00, 0.00, -0.00, -1.00, 40.5, 9.1)"> </text><text xml:space="preserve" font-family=".LucidaGrandeUI,.Lucida Grande UI" font-size="10.0" fill="#363636" transform="matrix(1.00, 0.00, -0.00, -1.00, 43.7, 9.1)">2</text><text xml:space="preserve" font-family=".LucidaGrandeUI,.Lucida Grande UI" font-size="10.0" fill="#363636" transform="matrix(1.00, 0.00, -0.00, -1.00, 50.0, 9.1)">0</text><text xml:space="preserve" font-family=".LucidaGrandeUI,.Lucida Grande UI" font-size="10.0" fill="#363636" transform="matrix(1.00, 0.00, -0.00, -1.00, 56.3, 9.1)">1</text><text xml:space="preserve" font-family=".LucidaGrandeUI,.Lucida Grande UI" font-size="10.0" fill="#363636" transform="matrix(1.00, 0.00, -0.00, -1.00, 62.6, 9.1)">4</text><text xml:space="preserve" font-family=".LucidaGrandeUI,.Lucida Grande UI" font-size="28.0" fill="#424242" transform="matrix(1.00, 0.00, -0.00, -1.00, 43.1, 492.9)">G</text><text xml:space="preserve" font-family=".LucidaGrandeUI,.Lucida Grande UI" font-size="28.0" fill="#424242" transform="matrix(1.00, 0.00, -0.00, -1.00, 63.3, 492.9)">r</text><text xml:space="preserve" font-family=".LucidaGrandeUI,.Lucida Grande UI" font-size="28.0" fill="#424242" transform="matrix(1.00, 0.00, -0.00, -1.00, 74.8, 492.9)">a</text><text xml:space="preserve" font-family=".LucidaGrandeUI,.Lucida Grande UI" font-size="28.0" fill="#424242" transform="matrix(1.00, 0.00, -0.00, -1.00, 90.2, 492.9)">p</text><text xml:space="preserve" font-family=".LucidaGrandeUI,.Lucida Grande UI" font-size="28.0" fill="#424242" transform="matrix(1.00, 0.00, -0.00, -1.00, 107.9, 492.9)">h</text><text xml:space="preserve" font-family=".LucidaGrandeUI,.Lucida Grande UI" font-size="28.0" fill="#424242" transform="matrix(1.00, 0.00, -0.00, -1.00, 125.2, 492.9)"> </text><text xml:space="preserve" font-family=".LucidaGrandeUI,.Lucida Grande UI" font-size="28.0" fill="#424242" transform="matrix(1.00, 0.00, -0.00, -1.00, 134.1, 492.9)">R</text><text xml:space="preserve" font-family=".LucidaGrandeUI,.Lucida Grande UI" font-size="28.0" fill="#424242" transform="matrix(1.00, 0.00, -0.00, -1.00, 151.8, 492.9)">e</text><text xml:space="preserve" font-family=".LucidaGrandeUI,.Lucida Grande UI" font-size="28.0" fill="#424242" transform="matrix(1.00, 0.00, -0.00, -1.00, 167.4, 492.9)">p</text><text xml:space="preserve" font-family=".LucidaGrandeUI,.Lucida Grande UI" font-size="28.0" fill="#424242" transform="matrix(1.00, 0.00, -0.00, -1.00, 185.1, 492.9)">r</text><text xml:space="preserve" font-family=".LucidaGrandeUI,.Lucida Grande UI" font-size="28.0" fill="#424242" transform="matrix(1.00, 0.00, -0.00, -1.00, 196.5, 492.9)">e</text><text xml:space="preserve" font-family=".LucidaGrandeUI,.Lucida Grande UI" font-size="28.0" fill="#424242" transform="matrix(1.00, 0.00, -0.00, -1.00, 212.1, 492.9)">s</text><text xml:space="preserve" font-family=".LucidaGrandeUI,.Lucida Grande UI" font-size="28.0" fill="#424242" transform="matrix(1.00, 0.00, -0.00, -1.00, 225.1, 492.9)">e</text><text xml:space="preserve" font-family=".LucidaGrandeUI,.Lucida Grande UI" font-size="28.0" fill="#424242" transform="matrix(1.00, 0.00, -0.00, -1.00, 240.7, 492.9)">n</text><text xml:space="preserve" font-family=".LucidaGrandeUI,.Lucida Grande UI" font-size="28.0" fill="#424242" transform="matrix(1.00, 0.00, -0.00, -1.00, 258.1, 492.9)">t</text><text xml:space="preserve" font-family=".LucidaGrandeUI,.Lucida Grande UI" font-size="28.0" fill="#424242" transform="matrix(1.00, 0.00, -0.00, -1.00, 268.5, 492.9)">a</text><text xml:space="preserve" font-family=".LucidaGrandeUI,.Lucida Grande UI" font-size="28.0" fill="#424242" transform="matrix(1.00, 0.00, -0.00, -1.00, 284.0, 492.9)">t</text><text xml:space="preserve" font-family=".LucidaGrandeUI,.Lucida Grande UI" font-size="28.0" fill="#424242" transform="matrix(1.00, 0.00, -0.00, -1.00, 294.5, 492.9)">i</text><text xml:space="preserve" font-family=".LucidaGrandeUI,.Lucida Grande UI" font-size="28.0" fill="#424242" transform="matrix(1.00, 0.00, -0.00, -1.00, 302.6, 492.9)">o</text><text xml:space="preserve" font-family=".LucidaGrandeUI,.Lucida Grande UI" font-size="28.0" fill="#424242" transform="matrix(1.00, 0.00, -0.00, -1.00, 319.8, 492.9)">n</text><text xml:space="preserve" font-family=".LucidaGrandeUI,.Lucida Grande UI" font-size="8.0" fill="#363636" transform="matrix(1.00, 0.00, -0.00, -1.00, 689.4, 9.4)">2</text><text xml:space="preserve" font-family=".LucidaGrandeUI,.Lucida Grande UI" font-size="8.0" fill="#363636" transform="matrix(1.00, 0.00, -0.00, -1.00, 694.5, 9.4)">7</text><text xml:space="preserve" font-family=".LucidaGrandeUI,.Lucida Grande UI" font-size="12.0" fill="#5E5E5E" transform="matrix(1.00, 0.00, -0.00, -1.00, 41.7, 410.5)">‣</text><text xml:space="preserve" font-family=".LucidaGrandeUI,.Lucida Grande UI" font-size="24.0" fill="#5E5E5E" transform="matrix(1.00, 0.00, -0.00, -1.00, 56.7, 406.6)">G</text><text xml:space="preserve" font-family=".LucidaGrandeUI,.Lucida Grande UI" font-size="24.0" fill="#5E5E5E" transform="matrix(1.00, 0.00, -0.00, -1.00, 74.1, 406.6)">r</text><text xml:space="preserve" font-family=".LucidaGrandeUI,.Lucida Grande UI" font-size="24.0" fill="#5E5E5E" transform="matrix(1.00, 0.00, -0.00, -1.00, 83.9, 406.6)">a</text><text xml:space="preserve" font-family=".LucidaGrandeUI,.Lucida Grande UI" font-size="24.0" fill="#5E5E5E" transform="matrix(1.00, 0.00, -0.00, -1.00, 97.1, 406.6)">p</text><text xml:space="preserve" font-family=".LucidaGrandeUI,.Lucida Grande UI" font-size="24.0" fill="#5E5E5E" transform="matrix(1.00, 0.00, -0.00, -1.00, 112.3, 406.6)">h</text><text xml:space="preserve" font-family=".LucidaGrandeUI,.Lucida Grande UI" font-size="24.0" fill="#5E5E5E" transform="matrix(1.00, 0.00, -0.00, -1.00, 127.1, 406.6)"> </text><text xml:space="preserve" font-family=".LucidaGrandeUI,.Lucida Grande UI" font-size="24.0" fill="#5E5E5E" transform="matrix(1.00, 0.00, -0.00, -1.00, 134.7, 406.6)">i</text><text xml:space="preserve" font-family=".LucidaGrandeUI,.Lucida Grande UI" font-size="24.0" fill="#5E5E5E" transform="matrix(1.00, 0.00, -0.00, -1.00, 141.7, 406.6)">n</text><text xml:space="preserve" font-family=".LucidaGrandeUI,.Lucida Grande UI" font-size="24.0" fill="#5E5E5E" transform="matrix(1.00, 0.00, -0.00, -1.00, 156.6, 406.6)">v</text><text xml:space="preserve" font-family=".LucidaGrandeUI,.Lucida Grande UI" font-size="24.0" fill="#5E5E5E" transform="matrix(1.00, 0.00, -0.00, -1.00, 168.9, 406.6)">e</text><text xml:space="preserve" font-family=".LucidaGrandeUI,.Lucida Grande UI" font-size="24.0" fill="#5E5E5E" transform="matrix(1.00, 0.00, -0.00, -1.00, 182.3, 406.6)">n</text><text xml:space="preserve" font-family=".LucidaGrandeUI,.Lucida Grande UI" font-size="24.0" fill="#5E5E5E" transform="matrix(1.00, 0.00, -0.00, -1.00, 197.2, 406.6)">t</text><text xml:space="preserve" font-family=".LucidaGrandeUI,.Lucida Grande UI" font-size="24.0" fill="#5E5E5E" transform="matrix(1.00, 0.00, -0.00, -1.00, 206.2, 406.6)">o</text><text xml:space="preserve" font-family=".LucidaGrandeUI,.Lucida Grande UI" font-size="24.0" fill="#5E5E5E" transform="matrix(1.00, 0.00, -0.00, -1.00, 220.9, 406.6)">r</text><text xml:space="preserve" font-family=".LucidaGrandeUI,.Lucida Grande UI" font-size="24.0" fill="#5E5E5E" transform="matrix(1.00, 0.00, -0.00, -1.00, 230.7, 406.6)">y</text><text xml:space="preserve" font-family=".LucidaGrandeUI,.Lucida Grande UI" font-size="24.0" fill="#5E5E5E" transform="matrix(1.00, 0.00, -0.00, -1.00, 243.1, 406.6)"> </text><text xml:space="preserve" font-family=".LucidaGrandeUI,.Lucida Grande UI" font-size="24.0" fill="#5E5E5E" transform="matrix(1.00, 0.00, -0.00, -1.00, 250.7, 406.6)">n</text><text xml:space="preserve" font-family=".LucidaGrandeUI,.Lucida Grande UI" font-size="24.0" fill="#5E5E5E" transform="matrix(1.00, 0.00, -0.00, -1.00, 265.6, 406.6)">e</text><text xml:space="preserve" font-family=".LucidaGrandeUI,.Lucida Grande UI" font-size="24.0" fill="#5E5E5E" transform="matrix(1.00, 0.00, -0.00, -1.00, 278.9, 406.6)">e</text><text xml:space="preserve" font-family=".LucidaGrandeUI,.Lucida Grande UI" font-size="24.0" fill="#5E5E5E" transform="matrix(1.00, 0.00, -0.00, -1.00, 292.3, 406.6)">d</text><text xml:space="preserve" font-family=".LucidaGrandeUI,.Lucida Grande UI" font-size="24.0" fill="#5E5E5E" transform="matrix(1.00, 0.00, -0.00, -1.00, 307.4, 406.6)">e</text><text xml:space="preserve" font-family=".LucidaGrandeUI,.Lucida Grande UI" font-size="24.0" fill="#5E5E5E" transform="matrix(1.00, 0.00, -0.00, -1.00, 320.8, 406.6)">d</text><text xml:space="preserve" font-family=".LucidaGrandeUI,.Lucida Grande UI" font-size="24.0" fill="#5E5E5E" transform="matrix(1.00, 0.00, -0.00, -1.00, 335.9, 406.6)"></text><g><clipPath id="clip0x6080086a1920"><path d="M 31.6 376.5 L 450.7 376.5 L 450.7 429.5 L 31.6 429.5 Z M 31.6 376.5 "></path></clipPath><g clip-path="url(#clip0x6080086a1920)"><text xml:space="preserve" font-family=".LucidaGrandeUI,.Lucida Grande UI" font-size="13.5" fill="#008E00" transform="matrix(1.00, 0.00, -0.00, -1.00, 76.7, 380.0)">•</text><text xml:space="preserve" font-family=".LucidaGrandeUI,.Lucida Grande UI" font-size="18.0" fill="#008E00" transform="matrix(1.00, 0.00, -0.00, -1.00, 100.1, 378.4)">H</text><text xml:space="preserve" font-family=".LucidaGrandeUI,.Lucida Grande UI" font-size="18.0" fill="#008E00" transform="matrix(1.00, 0.00, -0.00, -1.00, 113.3, 378.4)">i</text><text xml:space="preserve" font-family=".LucidaGrandeUI,.Lucida Grande UI" font-size="18.0" fill="#008E00" transform="matrix(1.00, 0.00, -0.00, -1.00, 118.5, 378.4)">e</text><text xml:space="preserve" font-family=".LucidaGrandeUI,.Lucida Grande UI" font-size="18.0" fill="#008E00" transform="matrix(1.00, 0.00, -0.00, -1.00, 128.5, 378.4)">r</text><text xml:space="preserve" font-family=".LucidaGrandeUI,.Lucida Grande UI" font-size="18.0" fill="#008E00" transform="matrix(1.00, 0.00, -0.00, -1.00, 135.9, 378.4)">a</text><text xml:space="preserve" font-family=".LucidaGrandeUI,.Lucida Grande UI" font-size="18.0" fill="#008E00" transform="matrix(1.00, 0.00, -0.00, -1.00, 145.8, 378.4)">r</text><text xml:space="preserve" font-family=".LucidaGrandeUI,.Lucida Grande UI" font-size="18.0" fill="#008E00" transform="matrix(1.00, 0.00, -0.00, -1.00, 153.2, 378.4)">c</text><text xml:space="preserve" font-family=".LucidaGrandeUI,.Lucida Grande UI" font-size="18.0" fill="#008E00" transform="matrix(1.00, 0.00, -0.00, -1.00, 162.4, 378.4)">h</text><text xml:space="preserve" font-family=".LucidaGrandeUI,.Lucida Grande UI" font-size="18.0" fill="#008E00" transform="matrix(1.00, 0.00, -0.00, -1.00, 173.6, 378.4)">i</text><text xml:space="preserve" font-family=".LucidaGrandeUI,.Lucida Grande UI" font-size="18.0" fill="#008E00" transform="matrix(1.00, 0.00, -0.00, -1.00, 178.8, 378.4)">c</text><text xml:space="preserve" font-family=".LucidaGrandeUI,.Lucida Grande UI" font-size="18.0" fill="#008E00" transform="matrix(1.00, 0.00, -0.00, -1.00, 188.0, 378.4)">a</text><text xml:space="preserve" font-family=".LucidaGrandeUI,.Lucida Grande UI" font-size="18.0" fill="#008E00" transform="matrix(1.00, 0.00, -0.00, -1.00, 198.0, 378.4)">l</text><text xml:space="preserve" font-family=".LucidaGrandeUI,.Lucida Grande UI" font-size="18.0" fill="#008E00" transform="matrix(1.00, 0.00, -0.00, -1.00, 203.2, 378.4)"> </text><text xml:space="preserve" font-family=".LucidaGrandeUI,.Lucida Grande UI" font-size="18.0" fill="#008E00" transform="matrix(1.00, 0.00, -0.00, -1.00, 208.9, 378.4)">v</text><text xml:space="preserve" font-family=".LucidaGrandeUI,.Lucida Grande UI" font-size="18.0" fill="#008E00" transform="matrix(1.00, 0.00, -0.00, -1.00, 218.1, 378.4)">i</text><text xml:space="preserve" font-family=".LucidaGrandeUI,.Lucida Grande UI" font-size="18.0" fill="#008E00" transform="matrix(1.00, 0.00, -0.00, -1.00, 223.3, 378.4)">e</text><text xml:space="preserve" font-family=".LucidaGrandeUI,.Lucida Grande UI" font-size="18.0" fill="#008E00" transform="matrix(1.00, 0.00, -0.00, -1.00, 233.4, 378.4)">w</text><text xml:space="preserve" font-family=".LucidaGrandeUI,.Lucida Grande UI" font-size="18.0" fill="#008E00" transform="matrix(1.00, 0.00, -0.00, -1.00, 247.2, 378.4)"> </text><text xml:space="preserve" font-family=".LucidaGrandeUI,.Lucida Grande UI" font-size="18.0" fill="#008E00" transform="matrix(1.00, 0.00, -0.00, -1.00, 252.9, 378.4)">i</text><text xml:space="preserve" font-family=".LucidaGrandeUI,.Lucida Grande UI" font-size="18.0" fill="#008E00" transform="matrix(1.00, 0.00, -0.00, -1.00, 258.1, 378.4)">s</text><text xml:space="preserve" font-family=".LucidaGrandeUI,.Lucida Grande UI" font-size="18.0" fill="#008E00" transform="matrix(1.00, 0.00, -0.00, -1.00, 266.5, 378.4)"> </text><text xml:space="preserve" font-family=".LucidaGrandeUI,.Lucida Grande UI" font-size="18.0" fill="#008E00" transform="matrix(1.00, 0.00, -0.00, -1.00, 272.2, 378.4)">n</text><text xml:space="preserve" font-family=".LucidaGrandeUI,.Lucida Grande UI" font-size="18.0" fill="#008E00" transform="matrix(1.00, 0.00, -0.00, -1.00, 283.3, 378.4)">o</text><text xml:space="preserve" font-family=".LucidaGrandeUI,.Lucida Grande UI" font-size="18.0" fill="#008E00" transform="matrix(1.00, 0.00, -0.00, -1.00, 294.4, 378.4)">t</text><text xml:space="preserve" font-family=".LucidaGrandeUI,.Lucida Grande UI" font-size="18.0" fill="#008E00" transform="matrix(1.00, 0.00, -0.00, -1.00, 301.1, 378.4)"> </text><text xml:space="preserve" font-family=".LucidaGrandeUI,.Lucida Grande UI" font-size="18.0" fill="#008E00" transform="matrix(1.00, 0.00, -0.00, -1.00, 306.8, 378.4)">e</text><text xml:space="preserve" font-family=".LucidaGrandeUI,.Lucida Grande UI" font-size="18.0" fill="#008E00" transform="matrix(1.00, 0.00, -0.00, -1.00, 316.9, 378.4)">n</text><text xml:space="preserve" font-family=".LucidaGrandeUI,.Lucida Grande UI" font-size="18.0" fill="#008E00" transform="matrix(1.00, 0.00, -0.00, -1.00, 328.0, 378.4)">o</text><text xml:space="preserve" font-family=".LucidaGrandeUI,.Lucida Grande UI" font-size="18.0" fill="#008E00" transform="matrix(1.00, 0.00, -0.00, -1.00, 339.1, 378.4)">u</text><text xml:space="preserve" font-family=".LucidaGrandeUI,.Lucida Grande UI" font-size="18.0" fill="#008E00" transform="matrix(1.00, 0.00, -0.00, -1.00, 350.2, 378.4)">g</text><text xml:space="preserve" font-family=".LucidaGrandeUI,.Lucida Grande UI" font-size="18.0" fill="#008E00" transform="matrix(1.00, 0.00, -0.00, -1.00, 361.5, 378.4)">h</text></g></g></g></svg>