<?xml version="1.0" encoding="UTF-8" standalone="no"?><svg xmlns="http://www.w3.org/2000/svg" xmlns:xlink="http://www.w3.org/1999/xlink" clip-rule="evenodd" stroke-miterlimit="10" viewBox="0 0 100 34"><desc>SVG generated by Keynote</desc><defs></defs><g transform="matrix(1.00, 0.00, -0.00, -1.00, 0.0, 34.0)"><path d="M 1.5 10.0 L 1.5 23.7 C 1.5 28.2 5.2 31.5 9.7 31.5 L 90.1 31.5 C 94.6 31.5 98.5 28.2 98.5 23.7 L 98.5 10.3 C 98.5 5.8 94.6 2.5 90.1 2.5 L 9.7 2.5 C 5.2 2.5 1.5 5.5 1.5 10.0 Z M 1.6 10.3 " fill="#00C5FF"></path><path d="M -0.1 21.8 L -0.1 8.1 C -0.1 3.6 3.6 0.3 8.1 0.3 L 88.5 0.3 C 92.9 0.3 96.9 3.6 96.9 8.1 L 96.9 21.5 C 96.9 26.0 92.9 29.3 88.5 29.3 L 8.1 29.3 C 3.6 29.3 -0.1 26.3 -0.1 21.8 Z M 0.0 21.5 " fill="none" stroke="#000000" stroke-width="0.75" stroke-linejoin="round" transform="matrix(1.00, 0.00, 0.00, -1.00, 1.6, 31.8)"></path><g><clipPath id="clip0x6080086a6ba0"><path d="M 1.6 2.2 L 98.2 2.2 L 98.2 31.8 L 1.6 31.8 Z M 1.6 2.2 "></path></clipPath><g clip-path="url(#clip0x6080086a6ba0)"><text xml:space="preserve" font-family=".LucidaGrandeUI,.Lucida Grande UI" font-size="14.0" fill="#363636" transform="matrix(1.00, 0.00, -0.00, -1.00, 26.6, 11.4)">c</text><text xml:space="preserve" font-family=".LucidaGrandeUI,.Lucida Grande UI" font-size="14.0" fill="#363636" transform="matrix(1.00, 0.00, -0.00, -1.00, 33.8, 11.4)">o</text><text xml:space="preserve" font-family=".LucidaGrandeUI,.Lucida Grande UI" font-size="14.0" fill="#363636" transform="matrix(1.00, 0.00, -0.00, -1.00, 42.4, 11.4)">m</text><text xml:space="preserve" font-family=".LucidaGrandeUI,.Lucida Grande UI" font-size="14.0" fill="#363636" transform="matrix(1.00, 0.00, -0.00, -1.00, 55.5, 11.4)">p</text><text xml:space="preserve" font-family=".LucidaGrandeUI,.Lucida Grande UI" font-size="14.0" fill="#363636" transform="matrix(1.00, 0.00, -0.00, -1.00, 64.3, 11.4)">2</text></g></g></g></svg>