<?xml version="1.0" encoding="UTF-8" standalone="no"?><svg xmlns="http://www.w3.org/2000/svg" xmlns:xlink="http://www.w3.org/1999/xlink" clip-rule="evenodd" stroke-miterlimit="10" viewBox="0 0 96 52"><desc>SVG generated by Keynote</desc><defs></defs><g transform="matrix(1.00, 0.00, -0.00, -1.00, 0.0, 52.0)"><image xlink:href="F59BFE429CBD48B9C30F3B2428F02771.png" width="90.00" height="49.00" transform="matrix(1.01, 0.00, -0.00, -1.00, 3.7, 50.9)" opacity="0.50"></image><g><clipPath id="clip0x6080086a9fc0"><path d="M 7.0 47.0 L 89.0 47.0 L 89.0 6.0 L 7.0 6.0 Z M 6.7 46.9 "></path></clipPath><g clip-path="url(#clip0x6080086a9fc0)"><image xlink:href="../../388AC461-A37F-4D13-9E58-D44EF987A297/assets/54AAA609FA4289ED6813ACB24DD77507.png" width="600.00" height="600.00" transform="matrix(0.50, 0.00, -0.00, -0.50, 7.0, 47.0)"></image></g></g><g><clipPath id="clip0x6080086aa440"><path d="M 5.4 5.6 L 90.5 5.6 L 90.5 46.9 L 5.4 46.9 Z M 5.4 5.6 "></path></clipPath><g clip-path="url(#clip0x6080086aa440)"><text xml:space="preserve" font-family=".LucidaGrandeUI,.Lucida Grande UI" font-size="18.0" fill="#363636" transform="matrix(1.00, 0.00, -0.00, -1.00, 22.9, 19.7)">i</text><text xml:space="preserve" font-family=".LucidaGrandeUI,.Lucida Grande UI" font-size="18.0" fill="#363636" transform="matrix(1.00, 0.00, -0.00, -1.00, 28.1, 19.7)">b</text><text xml:space="preserve" font-family=".LucidaGrandeUI,.Lucida Grande UI" font-size="18.0" fill="#363636" transform="matrix(1.00, 0.00, -0.00, -1.00, 39.5, 19.7)">s</text><text xml:space="preserve" font-family=".LucidaGrandeUI,.Lucida Grande UI" font-size="18.0" fill="#363636" transform="matrix(1.00, 0.00, -0.00, -1.00, 47.8, 19.7)">w</text><text xml:space="preserve" font-family=".LucidaGrandeUI,.Lucida Grande UI" font-size="18.0" fill="#363636" transform="matrix(1.00, 0.00, -0.00, -1.00, 61.6, 19.7)">2</text></g></g></g></svg>