<?xml version="1.0" encoding="UTF-8" standalone="no"?><svg xmlns="http://www.w3.org/2000/svg" xmlns:xlink="http://www.w3.org/1999/xlink" clip-rule="evenodd" stroke-miterlimit="10" viewBox="0 0 293 30"><desc>SVG generated by Keynote</desc><defs></defs><g transform="matrix(1.00, 0.00, -0.00, -1.00, 0.0, 30.0)"><text xml:space="preserve" font-family=".LucidaGrandeUI,.Lucida Grande UI" font-size="28.0" fill="#424242" transform="matrix(1.00, 0.00, -0.00, -1.00, 0.1, 6.9)">G</text><text xml:space="preserve" font-family=".LucidaGrandeUI,.Lucida Grande UI" font-size="28.0" fill="#424242" transform="matrix(1.00, 0.00, -0.00, -1.00, 20.3, 6.9)">r</text><text xml:space="preserve" font-family=".LucidaGrandeUI,.Lucida Grande UI" font-size="28.0" fill="#424242" transform="matrix(1.00, 0.00, -0.00, -1.00, 31.8, 6.9)">a</text><text xml:space="preserve" font-family=".LucidaGrandeUI,.Lucida Grande UI" font-size="28.0" fill="#424242" transform="matrix(1.00, 0.00, -0.00, -1.00, 47.2, 6.9)">p</text><text xml:space="preserve" font-family=".LucidaGrandeUI,.Lucida Grande UI" font-size="28.0" fill="#424242" transform="matrix(1.00, 0.00, -0.00, -1.00, 64.9, 6.9)">h</text><text xml:space="preserve" font-family=".LucidaGrandeUI,.Lucida Grande UI" font-size="28.0" fill="#424242" transform="matrix(1.00, 0.00, -0.00, -1.00, 82.2, 6.9)"> </text><text xml:space="preserve" font-family=".LucidaGrandeUI,.Lucida Grande UI" font-size="28.0" fill="#424242" transform="matrix(1.00, 0.00, -0.00, -1.00, 91.1, 6.9)">R</text><text xml:space="preserve" font-family=".LucidaGrandeUI,.Lucida Grande UI" font-size="28.0" fill="#424242" transform="matrix(1.00, 0.00, -0.00, -1.00, 108.8, 6.9)">e</text><text xml:space="preserve" font-family=".LucidaGrandeUI,.Lucida Grande UI" font-size="28.0" fill="#424242" transform="matrix(1.00, 0.00, -0.00, -1.00, 124.4, 6.9)">p</text><text xml:space="preserve" font-family=".LucidaGrandeUI,.Lucida Grande UI" font-size="28.0" fill="#424242" transform="matrix(1.00, 0.00, -0.00, -1.00, 142.1, 6.9)">r</text><text xml:space="preserve" font-family=".LucidaGrandeUI,.Lucida Grande UI" font-size="28.0" fill="#424242" transform="matrix(1.00, 0.00, -0.00, -1.00, 153.5, 6.9)">e</text><text xml:space="preserve" font-family=".LucidaGrandeUI,.Lucida Grande UI" font-size="28.0" fill="#424242" transform="matrix(1.00, 0.00, -0.00, -1.00, 169.1, 6.9)">s</text><text xml:space="preserve" font-family=".LucidaGrandeUI,.Lucida Grande UI" font-size="28.0" fill="#424242" transform="matrix(1.00, 0.00, -0.00, -1.00, 182.1, 6.9)">e</text><text xml:space="preserve" font-family=".LucidaGrandeUI,.Lucida Grande UI" font-size="28.0" fill="#424242" transform="matrix(1.00, 0.00, -0.00, -1.00, 197.7, 6.9)">n</text><text xml:space="preserve" font-family=".LucidaGrandeUI,.Lucida Grande UI" font-size="28.0" fill="#424242" transform="matrix(1.00, 0.00, -0.00, -1.00, 215.1, 6.9)">t</text><text xml:space="preserve" font-family=".LucidaGrandeUI,.Lucida Grande UI" font-size="28.0" fill="#424242" transform="matrix(1.00, 0.00, -0.00, -1.00, 225.5, 6.9)">a</text><text xml:space="preserve" font-family=".LucidaGrandeUI,.Lucida Grande UI" font-size="28.0" fill="#424242" transform="matrix(1.00, 0.00, -0.00, -1.00, 241.0, 6.9)">t</text><text xml:space="preserve" font-family=".LucidaGrandeUI,.Lucida Grande UI" font-size="28.0" fill="#424242" transform="matrix(1.00, 0.00, -0.00, -1.00, 251.5, 6.9)">i</text><text xml:space="preserve" font-family=".LucidaGrandeUI,.Lucida Grande UI" font-size="28.0" fill="#424242" transform="matrix(1.00, 0.00, -0.00, -1.00, 259.6, 6.9)">o</text><text xml:space="preserve" font-family=".LucidaGrandeUI,.Lucida Grande UI" font-size="28.0" fill="#424242" transform="matrix(1.00, 0.00, -0.00, -1.00, 276.8, 6.9)">n</text></g></svg>