<?xml version="1.0" encoding="UTF-8" standalone="no"?><svg xmlns="http://www.w3.org/2000/svg" xmlns:xlink="http://www.w3.org/1999/xlink" clip-rule="evenodd" stroke-miterlimit="10" viewBox="0 0 96 52"><desc>SVG generated by Keynote</desc><defs></defs><g transform="matrix(1.00, 0.00, -0.00, -1.00, 0.0, 52.0)"><image xlink:href="15EEE6FEFEF69011C77025F9F081FDB6.png" width="90.00" height="49.00" transform="matrix(1.01, 0.00, -0.00, -1.00, 3.9, 50.9)" opacity="0.50"></image><g><clipPath id="clip0x6000062a2e20"><path d="M 7.0 47.0 L 89.0 47.0 L 89.0 6.0 L 7.0 6.0 Z M 6.9 46.9 "></path></clipPath><g clip-path="url(#clip0x6000062a2e20)"><image xlink:href="../../388AC461-A37F-4D13-9E58-D44EF987A297/assets/54AAA609FA4289ED6813ACB24DD77507.png" width="600.00" height="600.00" transform="matrix(0.50, 0.00, -0.00, -0.50, 7.0, 47.0)"></image></g></g><g><clipPath id="clip0x6000062a2f40"><path d="M 5.6 5.6 L 90.7 5.6 L 90.7 46.9 L 5.6 46.9 Z M 5.6 5.6 "></path></clipPath><g clip-path="url(#clip0x6000062a2f40)"><text xml:space="preserve" font-family=".LucidaGrandeUI,.Lucida Grande UI" font-size="18.0" fill="#363636" transform="matrix(1.00, 0.00, -0.00, -1.00, 23.1, 19.7)">i</text><text xml:space="preserve" font-family=".LucidaGrandeUI,.Lucida Grande UI" font-size="18.0" fill="#363636" transform="matrix(1.00, 0.00, -0.00, -1.00, 28.3, 19.7)">b</text><text xml:space="preserve" font-family=".LucidaGrandeUI,.Lucida Grande UI" font-size="18.0" fill="#363636" transform="matrix(1.00, 0.00, -0.00, -1.00, 39.6, 19.7)">s</text><text xml:space="preserve" font-family=".LucidaGrandeUI,.Lucida Grande UI" font-size="18.0" fill="#363636" transform="matrix(1.00, 0.00, -0.00, -1.00, 47.9, 19.7)">w</text><text xml:space="preserve" font-family=".LucidaGrandeUI,.Lucida Grande UI" font-size="18.0" fill="#363636" transform="matrix(1.00, 0.00, -0.00, -1.00, 61.8, 19.7)">0</text></g></g></g></svg>